SplineFontDB: 3.0
FontName: ltfont
FullName: ltfont
FamilyName: ltfont
Weight: Regular
Copyright: Copyright (c) 2017 Uruwi
UComments: "2017-10-21: Created with FontForge (http://fontforge.org)"
Version: 001.000
ItalicAngle: 0
UnderlinePosition: -99
UnderlineWidth: 49
Ascent: 1050
Descent: 200
InvalidEm: 0
LayerCount: 2
Layer: 0 0 "Back" 1
Layer: 1 0 "Fore" 0
XUID: [1021 881 2055310830 19285]
FSType: 0
OS2Version: 0
OS2_WeightWidthSlopeOnly: 0
OS2_UseTypoMetrics: 1
CreationTime: 1508636382
ModificationTime: 1508814654
PfmFamily: 17
TTFWeight: 400
TTFWidth: 5
LineGap: 90
VLineGap: 0
OS2TypoAscent: 0
OS2TypoAOffset: 1
OS2TypoDescent: 0
OS2TypoDOffset: 1
OS2TypoLinegap: 90
OS2WinAscent: 0
OS2WinAOffset: 1
OS2WinDescent: 0
OS2WinDOffset: 1
HheadAscent: 0
HheadAOffset: 1
HheadDescent: 0
HheadDOffset: 1
OS2Vendor: 'PfEd'
MarkAttachClasses: 1
DEI: 91125
LangName: 1033
Encoding: ISO8859-1
UnicodeInterp: none
NameList: Adobe Glyph List
DisplaySize: -48
AntiAlias: 1
FitToEm: 0
WinInfo: 0 38 14
BeginPrivate: 0
EndPrivate
Grid
-1346 1675 m 0
 -1346 -825 l 1024
-1250 1471 m 0
 2500 1471 l 1024
-1250 1485 m 0
 2500 1485 l 1024
EndSplineSet
BeginChars: 523 331

StartChar: W
Encoding: 87 87 0
Width: 999
VWidth: 0
Flags: W
HStem: 132 50<169 844> 602 51<170 846> 802 20G<480.571 504.941>
LayerCount: 2
Fore
SplineSet
542 -2 m 5
 522 -37 l 5
 502 -2 l 5
 104 614 l 5
 79 653 l 5
 125 653 l 5
 890 654 l 5
 934 654 l 5
 912 616 l 5
 542 -2 l 5
521 58 m 5
 846 604 l 5
 170 602 l 5
 521 58 l 5
472 787 m 5
 492 822 l 5
 514 788 l 5
 911 170 l 5
 936 132 l 5
 890 132 l 5
 125 131 l 5
 82 131 l 5
 103 169 l 5
 472 787 l 5
494 727 m 5
 169 181 l 5
 844 182 l 5
 494 727 l 5
EndSplineSet
EndChar

StartChar: T
Encoding: 84 84 1
Width: 999
VWidth: 0
Flags: HW
HStem: 640 55<286 482 485 528 532 701> 760 50<473 532>
VStem: 470 50<-10 474> 481 50<277 695>
LayerCount: 2
Fore
SplineSet
496 -10 m 5xe0
 470 -10 l 5
 470 14 l 5xe0
 481 670 l 5
 482 695 l 5
 506 695 l 5
 532 695 l 5
 530 670 l 5xd0
 521 14 l 5
 521 -10 l 5
 496 -10 l 5xe0
227 582 m 5
 204 593 l 5
 216 616 l 5
 248 677 l 5
 254 690 l 5
 270 690 l 5
 712 694 l 5
 725 694 l 5
 733 684 l 5
 779 623 l 5
 794 602 l 5
 774 588 l 5
 754 574 l 5
 739 593 l 5
 701 644 l 5
 286 640 l 5
 260 592 l 5
 248 570 l 5
 227 582 l 5
504 714 m 5
 532 760 l 5
 473 760 l 5
 504 714 l 5
485 654 m 5
 406 770 l 5
 379 808 l 5
 426 809 l 5
 576 811 l 5
 620 812 l 5
 598 773 l 5
 528 655 l 5
 508 622 l 5
 485 654 l 5
EndSplineSet
EndChar

StartChar: P
Encoding: 80 80 2
Width: 999
VWidth: 0
Flags: HW
VStem: 230 50<103 228>
LayerCount: 2
Fore
SplineSet
258 439 m 5
 772 392 l 5
 768 342 l 5
 252 389 l 5
 258 439 l 5
233 637 m 1
 216 655 l 1
 233 672 l 1
 232 671 234 672 233 672 c 1
 313 750 414 803 542 780 c 0
 578 773 618 759 654 739 c 0
 721 702 794 631 750 552 c 0
 692 450 590 430 502 368 c 0
 386 286 275 262 280 154 c 0
 280 152 281 148 281 146 c 0
 291 74 400 35 498 47 c 0
 599 59 663 136 725 228 c 2
 739 248 l 1
 760 235 l 1
 781 221 l 1
 767 200 l 2
 705 108 629 14 504 -2 c 0
 402 -14 244 18 230 140 c 0
 229 142 230 149 230 151 c 0
 222 301 376 342 472 409 c 0
 574 480 660 496 706 578 c 0
 726 615 697 658 630 695 c 0
 599 713 563 725 534 730 c 0
 427 750 342 707 268 636 c 2
 250 618 l 1
 233 637 l 1
EndSplineSet
EndChar

StartChar: K
Encoding: 75 75 3
Width: 999
VWidth: 0
Flags: HW
HStem: 26 50<611 829> 772 20G<794 868>
LayerCount: 2
Fore
SplineSet
679 316 m 1
 698 352 l 1
 722 318 l 1
 898 72 l 1
 925 34 l 1
 878 34 l 1
 569 26 l 1
 528 26 l 1
 547 62 l 1
 679 316 l 1
704 257 m 1
 611 78 l 1
 829 82 l 1
 704 257 l 1
808 536 m 1
 782 542 l 1
 758 547 l 1
 766 572 l 1
 791 689 l 1
 107 22 l 1
 88 5 l 1
 71 22 l 1
 53 41 l 1
 72 58 l 1
 734 706 l 1
 611 674 l 1
 599 722 l 1
 630 730 l 1
 874 792 l 1
 808 536 l 1
EndSplineSet
EndChar

StartChar: S
Encoding: 83 83 4
Width: 999
VWidth: 0
Flags: HW
HStem: 325 50<143 410> 340 50<533 800> 805 20G<472 494>
VStem: 472 50<110 710> 480 50<-8 624>
LayerCount: 2
Fore
SplineSet
805 372 m 0x60
 807 349 820 339 828 340 c 0
 842 341 855 354 853 372 c 0
 851 394 835 408 817 406 c 0
 811 406 803 396 805 372 c 0x60
755 364 m 0
 751 396 762 454 814 456 c 0
 862 460 897 421 902 379 c 0
 908 337 879 292 832 290 c 0
 784 288 760 330 755 364 c 0
143 324 m 5
 142 374 l 1
 800 391 l 1
 800 391 l 1
 802 341 l 1
 143 324 l 5
505 -8 m 1
 480 -8 l 1
 480 17 l 1x28
 472 768 l 1
 472 826 l 1
 514 787 l 1
 768 557 l 1
 787 540 l 1
 769 521 l 1
 752 502 l 1
 734 518 l 1
 522 710 l 1x30
 530 18 l 1
 530 -8 l 1x28
 505 -8 l 1
EndSplineSet
EndChar

StartChar: X
Encoding: 88 88 5
Width: 999
VWidth: 0
Flags: HW
HStem: 752 20G<838 862>
VStem: 150 50<652 712> 319 50<118 355> 812 50<252 770> 822 50<14 534>
LayerCount: 2
Fore
SplineSet
838 770 m 1xf0
 862 772 l 1
 862 746 l 1xf0
 872 40 l 1
 872 14 l 1
 848 14 l 1
 822 14 l 1
 822 40 l 1xe8
 812 746 l 1
 812 770 l 1
 838 770 l 1xf0
344 118 m 1
 319 118 l 1
 320 142 l 2
 322 216 289 282 330 368 c 0
 398 514 563 496 538 598 c 0
 512 702 392 694 254 719 c 0
 250 720 245 720 239 719 c 0
 213 714 198 694 200 677 c 2
 204 652 l 1
 179 648 l 1
 155 643 l 1
 150 668 l 2
 140 722 187 760 230 768 c 0
 241 770 251 770 263 768 c 0
 381 746 549 758 586 610 c 0
 621 468 414 430 376 348 c 0
 345 282 372 236 370 142 c 2
 370 116 l 1
 344 118 l 1
344 82 m 4
 346 59 360 49 368 50 c 4
 382 51 394 64 392 82 c 4
 390 104 376 118 358 116 c 4
 352 116 342 106 344 82 c 4
294 74 m 4
 290 106 300 164 352 166 c 4
 400 170 437 131 442 89 c 4
 448 47 418 2 371 0 c 4
 323 -2 299 40 294 74 c 4
EndSplineSet
EndChar

StartChar: F
Encoding: 70 70 6
Width: 999
VWidth: 0
Flags: HW
HStem: 22 22G<134 170> 762 20G<479 515 762 788>
VStem: 474 50<18 746> 762 50<601 781>
LayerCount: 2
Fore
SplineSet
910 662 m 5
 932 654 l 5
 925 630 l 6
 885 509 864 439 763 348 c 4
 651 248 513 351 427 293 c 4
 306 214 265 155 170 40 c 6
 154 22 l 5
 134 37 l 5
 116 52 l 5
 132 72 l 6
 226 184 271 252 398 335 c 4
 528 420 650 313 730 385 c 4
 822 468 838 524 878 646 c 6
 886 670 l 5
 910 662 l 5
788 781 m 5
 812 781 l 5
 812 756 l 6
 810 634 799 550 696 458 c 4
 584 358 444 464 358 406 c 4
 237 327 197 267 102 152 c 6
 86 132 l 5
 68 148 l 5
 48 166 l 5
 62 184 l 6
 156 296 205 363 332 446 c 4
 462 531 582 425 662 497 c 4
 753 579 760 636 762 757 c 6
 762 782 l 5
 788 781 l 5
479 766 m 1
 498 785 l 1
 516 764 l 1
 708 542 l 1
 689 526 l 1
 670 508 l 1
 496 710 l 1
 300 505 l 1
 282 522 l 1
 263 539 l 1
 479 766 l 1
494 746 m 1
 520 746 l 1
 520 739 l 1
 524 42 l 1
 524 18 l 1
 499 17 l 1
 474 17 l 1
 474 42 l 1
 470 739 l 1
 470 746 l 1
 494 746 l 1
EndSplineSet
EndChar

StartChar: N
Encoding: 78 78 7
Width: 1002
VWidth: 0
Flags: HW
HStem: 22 50<226 766> 766 20G<816 835>
VStem: 787 48<394 662> 797 50<113 450>
LayerCount: 2
Fore
SplineSet
766 73 m 5xc0
 499 358 l 5
 226 68 l 5
 766 73 l 5xc0
787 662 m 5xe0
 534 395 l 5
 797 113 l 5xd0
 787 662 l 5xe0
500 430 m 5
 835 786 l 5xe0
 848 58 l 5
 848 22 l 5
 822 22 l 5
 799 22 l 5
 109 16 l 5
 466 394 l 5
 157 725 l 5
 193 758 l 5
 500 430 l 5
EndSplineSet
EndChar

StartChar: M
Encoding: 77 77 8
Width: 999
VWidth: 0
Flags: HW
LayerCount: 2
Fore
SplineSet
239 791 m 5
 238 554 l 5
 332 556 434 558 510 472 c 4
 516 465 520 456 522 446 c 4
 532 388 440 339 430 326 c 5
 530 252 595 273 758 263 c 6
 782 262 l 5
 781 238 l 5
 779 212 l 5
 754 214 l 6
 602 224 516 199 398 288 c 4
 388 296 380 306 378 319 c 4
 376 336 385 348 392 358 c 4
 420 394 468 425 472 438 c 5
 413 508 334 505 238 503 c 5
 238 60 l 5
 812 64 l 5
 814 14 l 5
 187 10 l 5
 190 791 l 5
 239 791 l 5
EndSplineSet
EndChar

StartChar: H
Encoding: 72 72 9
Width: 999
VWidth: 0
Flags: HW
HStem: 762 20G<752 785>
LayerCount: 2
Fore
SplineSet
786 760 m 1
 798 738 l 1
 775 727 l 2
 627 653 495 588 515 506 c 0
 531 440 800 500 812 362 c 0
 826 200 670 131 542 46 c 2
 522 31 l 1
 508 52 l 1
 494 72 l 1
 516 86 l 2
 656 180 773 237 762 358 c 0
 754 441 503 342 467 494 c 0
 435 632 624 707 752 772 c 2
 775 782 l 1
 786 760 l 1
487 718 m 1
 498 696 l 1
 475 684 l 2
 327 610 195 545 215 463 c 0
 231 397 500 457 512 319 c 0
 526 157 370 87 242 2 c 1
 243 2 243 3 242 2 c 1
 222 -11 l 1
 209 10 l 1
 194 31 l 1
 216 44 l 2
 356 138 473 193 462 314 c 0
 454 397 203 300 167 452 c 0
 135 590 324 665 452 730 c 2
 475 740 l 1
 487 718 l 1
EndSplineSet
EndChar

StartChar: Z
Encoding: 90 90 10
Width: 999
VWidth: 0
Flags: HW
HStem: 754 46G<158 162 636 670>
VStem: 485 50<269 526>
LayerCount: 2
Fore
SplineSet
670 758 m 5
 690 743 l 5
 674 722 l 6
 580 592 530 521 535 376 c 4
 540 236 606 173 700 47 c 6
 715 26 l 5
 695 12 l 5
 674 -2 l 5
 660 17 l 6
 568 139 490 216 485 374 c 4
 480 535 541 624 635 752 c 6
 649 773 l 5
 670 758 l 5
856 396 m 1
 142 2 l 1
 134 16 126 32 118 46 c 1
 330 164 542 280 754 398 c 1
 138 755 l 1
 146 769 154 784 162 798 c 1
 162 798 632 526 856 396 c 1
EndSplineSet
EndChar

StartChar: Y
Encoding: 89 89 11
Width: 999
VWidth: 0
Flags: HW
HStem: -2 50<412 608> 634 50<436 586> 787 20G<491 523>
VStem: 192 50<228 442> 797 50<234 450>
LayerCount: 2
Fore
SplineSet
312 574 m 1
 296 592 l 1
 314 610 l 1
 491 792 l 1
 506 806 l 1
 523 793 l 1
 712 613 l 1
 732 598 l 1
 718 578 l 1
 701 559 l 1
 682 574 l 1
 509 742 l 1
 348 574 l 1
 330 556 l 1
 312 574 l 1
508 634 m 0
 363 636 246 492 242 338 c 0
 240 192 357 49 499 47 c 0
 662 45 792 172 797 336 c 0
 802 498 671 632 508 634 c 0
508 683 m 0
 698 681 852 526 847 334 c 0
 842 144 689 -4 498 -2 c 0
 323 0 188 168 192 338 c 0
 196 511 327 685 508 683 c 0
EndSplineSet
EndChar

StartChar: C
Encoding: 67 67 12
Width: 999
VWidth: 0
Flags: HW
HStem: 4 50<172 820>
LayerCount: 2
Fore
SplineSet
481 720 m 4
 483 697 496 687 504 688 c 4
 518 689 531 703 529 721 c 4
 527 743 511 756 493 754 c 4
 487 754 479 744 481 720 c 4
431 712 m 4
 427 744 438 802 490 804 c 4
 538 808 573 770 578 728 c 4
 584 686 555 640 508 638 c 4
 460 636 436 678 431 712 c 4
478 640 m 1
 498 674 l 1
 518 640 l 1
 886 42 l 1
 910 2 l 1
 865 2 l 1
 127 4 l 1
 82 4 l 1
 106 42 l 1
 478 640 l 1
498 580 m 1
 172 54 l 1
 820 53 l 1
 498 580 l 1
EndSplineSet
EndChar

StartChar: L
Encoding: 76 76 13
Width: 999
VWidth: 0
Flags: HW
HStem: -5 50<548 821> 782 20G<439 472>
VStem: 418 50<184 386 442 715>
LayerCount: 2
Fore
SplineSet
467 397 m 1
 466 313 468 230 482 136 c 0
 494 62 591 48 706 46 c 0
 802 44 825 63 907 128 c 2
 926 143 l 1
 942 122 l 1
 958 104 l 1
 938 88 l 2
 856 23 812 -7 704 -5 c 0
 601 -3 452 3 433 128 c 0
 419 220 417 304 418 386 c 1
 122 542 l 1
 84 563 l 1
 121 586 l 1
 434 780 l 1
 470 803 l 1
 472 760 l 2
 476 628 470 519 468 415 c 1
 467 409 l 1
 467 397 l 1
418 442 m 1
 420 528 424 613 422 715 c 1
 184 566 l 1
 418 442 l 1
EndSplineSet
EndChar

StartChar: G
Encoding: 71 71 14
Width: 999
VWidth: 0
Flags: HW
HStem: 799 20G<170 202 719 724>
VStem: 378 49<90 264> 724 52<731 786>
LayerCount: 2
Fore
SplineSet
97 288 m 2
 215 314 331 354 440 382 c 0
 445 384 464 390 466 394 c 0
 470 400 496 414 500 420 c 0
 504 426 497 422 502 428 c 1
 490 424 458 420 446 418 c 0
 252 392 212 638 157 778 c 2
 148 802 l 1
 170 810 l 1
 194 818 l 1
 203 796 l 2
 268 629 300 441 438 460 c 0
 504 470 590 531 646 613 c 0
 694 681 713 764 724 786 c 1
 724 786 776 807 776 782 c 0
 776 762 772 774 770 766 c 0
 768 764 766 758 764 752 c 0
 722 654 680 583 642 530 c 0
 602 475 564 437 533 402 c 1
 642 421 747 420 836 368 c 0
 912 324 893 224 851 152 c 0
 823 104 782 60 730 32 c 0
 629 -22 444 -18 390 84 c 0
 380 103 376 128 378 152 c 0
 385 226 397 280 419 324 c 1
 321 298 217 264 108 240 c 2
 83 234 l 1
 78 258 l 1
 72 283 l 1
 97 288 l 2
97 288 m 1
 98 288 96 288 97 288 c 1
486 341 m 0
 484 339 481 333 479 331 c 0
 453 289 435 234 427 146 c 0
 425 130 428 119 434 108 c 0
 466 47 617 28 706 76 c 0
 748 98 784 137 808 178 c 0
 849 248 845 304 810 326 c 0
 728 374 626 372 506 346 c 0
 499 344 493 343 486 341 c 0
EndSplineSet
EndChar

StartChar: Q
Encoding: 81 81 15
Width: 999
VWidth: 0
Flags: HW
HStem: 788 20G<746 772>
VStem: 246 50<-16 532> 253 49<10 532> 722 50<370 806>
LayerCount: 2
Fore
SplineSet
522 509 m 1xb0
 517 485 l 1
 492 491 l 1
 302 532 l 1xb0
 296 8 l 1
 296 -17 l 1
 271 -16 l 1
 246 -16 l 1
 246 10 l 1
 246 11 245 10 246 10 c 1xd0
 253 564 l 1
 253 595 l 1
 283 588 l 1
 503 539 l 1
 528 534 l 1
 522 509 l 1xb0
746 806 m 1
 772 808 l 1
 772 782 l 1
 778 343 l 1
 778 316 l 1
 750 318 l 1
 290 356 l 1
 266 358 l 1
 268 383 l 1
 270 408 l 1
 295 406 l 1
 727 370 l 1
 722 782 l 1
 722 806 l 1
 746 806 l 1
EndSplineSet
EndChar

StartChar: D
Encoding: 68 68 16
Width: 999
VWidth: 0
Flags: HW
HStem: 774 20G<184 218 781 816>
LayerCount: 2
Fore
SplineSet
816 778 m 1
 835 762 l 1
 818 743 l 1
 218 4 l 1
 203 -14 l 1
 184 1 l 1
 166 17 l 1
 181 36 l 1
 781 775 l 1
 797 794 l 1
 816 778 l 1
184 778 m 1
 203 794 l 1
 218 775 l 1
 818 36 l 1
 835 17 l 1
 816 1 l 1
 797 -14 l 1
 781 4 l 1
 181 743 l 1
 166 762 l 1
 184 778 l 1
EndSplineSet
EndChar

StartChar: B
Encoding: 66 66 17
Width: 999
VWidth: 0
Flags: HW
HStem: 26 50<572 760>
VStem: 136 50<184 580> 360 49<468 584> 768 49<77 161>
LayerCount: 2
Fore
SplineSet
385 587 m 5
 409 590 l 5
 412 565 l 6
 423 485 428 438 462 440 c 4
 500 444 501 519 499 580 c 6
 499 586 l 5
 548 582 l 6
 555 581 561 517 563 503 c 4
 586 405 585 338 523 253 c 4
 511 236 492 231 476 232 c 4
 436 234 381 275 385 322 c 6
 388 348 l 5
 412 346 l 5
 438 342 l 5
 434 318 l 6
 435 310 468 280 482 282 c 4
 520 336 534 405 529 457 c 5
 517 439 494 392 468 390 c 4
 371 380 370 506 362 558 c 6
 360 583 l 5
 385 587 l 5
778 662 m 5
 756 648 l 5
 742 668 l 6
 720 698 687 744 670 743 c 4
 472 731 360 747 251 635 c 4
 168 550 185 514 186 398 c 4
 187 279 174 190 260 104 c 4
 368 -5 510 64 752 76 c 5
 759 88 766 126 768 144 c 6
 772 169 l 5
 797 166 l 5
 821 160 l 5
 817 136 l 6
 816 128 818 28 760 26 c 4
 534 15 361 -68 224 70 c 4
 122 173 137 285 136 397 c 4
 135 509 115 568 215 670 c 4
 351 809 485 785 671 793 c 4
 721 795 760 728 782 698 c 6
 797 677 l 5
 778 662 l 5
EndSplineSet
EndChar

StartChar: A
Encoding: 65 65 18
Width: 999
VWidth: 0
Flags: HW
HStem: -2 50<190 821> 565 50<475 521> 724 50<282 368 641 708>
LayerCount: 2
Fore
SplineSet
482 496 m 1
 502 520 l 1
 520 496 l 1
 892 38 l 1
 926 -2 l 1
 874 -2 l 1
 137 -2 l 1
 85 -2 l 1
 118 38 l 1
 482 496 l 1
502 440 m 1
 190 48 l 1
 821 47 l 1
 502 440 l 1
168 578 m 1
 146 592 l 1
 158 614 l 2
 196 680 236 776 342 774 c 0
 464 772 450 615 497 614 c 0
 533 613 567 773 661 769 c 0
 756 764 801 680 850 614 c 2
 864 595 l 1
 844 580 l 1
 824 565 l 1
 809 586 l 2
 754 660 721 717 659 719 c 0
 629 721 592 563 494 565 c 0
 379 567 403 722 341 724 c 0
 274 726 249 666 202 588 c 2
 190 566 l 1
 168 578 l 1
EndSplineSet
EndChar

StartChar: E
Encoding: 69 69 19
Width: 999
VWidth: 0
Flags: HW
HStem: -17 50<172 240 290 358>
VStem: 240 50<-8 214> 546 48<53 113>
LayerCount: 2
Fore
SplineSet
644 192 m 1
 648 186 l 1
 642 182 l 2
 641 177 640 174 638 170 c 0
 626 133 610 105 600 67 c 2
 594 42 l 1
 570 49 l 1
 546 55 l 1
 552 79 l 2
 560 107 570 129 578 149 c 1
 550 135 504 113 470 154 c 0
 421 216 500 276 536 299 c 0
 546 305 553 308 563 310 c 0
 595 314 641 297 647 254 c 0
 649 231 648 211 644 192 c 1
598 218 m 0
 599 228 600 237 598 248 c 0
 597 252 587 262 571 260 c 0
 569 259 564 258 562 257 c 0
 516 228 498 198 509 185 c 0
 519 173 534 183 588 212 c 0
 590 214 596 216 598 218 c 0
251 412 m 1
 249 290 285 177 290 17 c 1
 289 17 290 16 290 17 c 1
 290 -8 l 1
 266 -10 l 1
 241 -10 l 1
 240 14 l 2
 235 176 194 292 202 438 c 0
 204 480 210 525 222 574 c 0
 251 684 332 803 462 781 c 0
 478 779 494 774 512 769 c 0
 634 735 820 646 780 498 c 0
 725 295 417 396 251 412 c 1
253 462 m 1
 453 443 694 368 732 511 c 0
 757 605 629 686 499 721 c 0
 483 725 468 730 454 732 c 0
 366 748 299 665 271 562 c 0
 261 527 255 494 253 462 c 1
172 10 m 1
 172 35 l 1
 198 35 l 1
 332 34 l 1
 358 32 l 1
 358 8 l 1
 358 -18 l 1
 332 -17 l 1
 197 -14 l 1
 172 -14 l 1
 172 10 l 1
EndSplineSet
EndChar

StartChar: I
Encoding: 73 73 20
Width: 999
VWidth: 0
Flags: W
LayerCount: 2
Fore
SplineSet
862 620 m 1
 842 607 l 1
 828 628 l 2
 826 630 824 633 822 635 c 0
 764 717 678 764 617 722 c 0
 483 628 420 378 458 212 c 0
 468 169 490 131 518 103 c 0
 596 25 729 8 842 122 c 2
 860 142 l 1
 878 122 l 1
 895 106 l 1
 878 88 l 2
 747 -44 580 -30 482 68 c 0
 447 103 420 148 408 200 c 0
 365 382 430 653 588 763 c 0
 688 833 803 750 864 664 c 0
 866 662 868 657 870 655 c 2
 883 634 l 1
 862 620 l 1
121 578 m 1
 98 588 l 1
 108 612 l 2
 122 644 147 678 175 710 c 0
 236 777 337 842 419 768 c 0
 601 600 669 407 598 166 c 0
 578 99 545 51 502 22 c 0
 386 -56 227 14 132 156 c 2
 118 178 l 1
 139 191 l 1
 160 205 l 1
 173 184 l 2
 261 53 392 8 474 62 c 0
 506 84 532 122 550 180 c 0
 616 403 557 574 385 732 c 0
 339 774 272 744 212 677 c 0
 187 649 166 616 154 590 c 2
 143 568 l 1
 121 578 l 1
EndSplineSet
EndChar

StartChar: U
Encoding: 85 85 21
Width: 999
VWidth: 0
Flags: HW
HStem: 362 50<532 818> 715 50<299 725> 754 49<150 308> 776 20G<810 854>
LayerCount: 2
Fore
SplineSet
148 778 m 1xa0
 150 803 l 1xa0
 175 802 l 2
 309 788 380 768 512 766 c 0
 626 764 691 781 810 791 c 2
 872 796 l 1
 830 749 l 2
 710 613 603 561 529 428 c 1
 584 420 642 415 710 413 c 0
 775 411 807 431 880 460 c 2
 902 469 l 1
 912 446 l 1
 922 422 l 1
 898 414 l 2
 831 388 788 360 709 362 c 0
 632 364 567 374 506 382 c 1
 454 261 501 188 512 40 c 2
 518 -44 l 1
 457 19 l 1
 134 450 l 1
 98 498 l 1
 158 490 l 2
 285 472 380 452 478 436 c 1
 550 575 647 634 748 734 c 1
 671 724 607 713 512 715 c 0xd0
 375 717 300 737 169 751 c 2
 144 754 l 1
 148 778 l 1xa0
455 389 m 1
 377 401 303 418 211 432 c 1
 460 94 l 1
 446 182 417 287 455 389 c 1
EndSplineSet
EndChar

StartChar: R
Encoding: 82 82 22
Width: 999
VWidth: 0
Flags: HW
HStem: 785 20G<382 414 584 614>
VStem: 78 50<305 526> 836 50<150 244 540 640>
LayerCount: 2
Fore
SplineSet
583 782 m 1
 592 805 l 1
 614 797 l 2
 720 759 885 726 887 578 c 0
 889 451 646 420 638 408 c 1
 648 389 886 334 886 202 c 0
 886 68 712 34 618 8 c 2
 594 1 l 1
 587 25 l 1
 580 49 l 1
 604 56 l 1
 714 88 836 120 836 202 c 0
 836 298 587 305 587 408 c 0
 587 517 840 488 838 577 c 0
 836 679 719 707 598 749 c 2
 575 758 l 1
 583 782 l 1
415 785 m 1
 427 763 l 1
 404 752 l 2
 250 673 126 581 128 418 c 0
 130 240 248 138 418 60 c 2
 439 49 l 1
 428 26 l 1
 418 4 l 1
 396 14 l 2
 220 96 80 215 78 418 c 0
 76 612 228 717 382 796 c 2
 404 808 l 1
 415 785 l 1
EndSplineSet
EndChar

StartChar: O
Encoding: 79 79 23
Width: 999
VWidth: 0
Flags: W
HStem: 280 50<470.955 515.037> 814 20G<493.786 510.276>
LayerCount: 2
Fore
SplineSet
469 245 m 4
 471 222 484 213 492 214 c 4
 506 215 520 229 518 247 c 4
 516 269 499 282 481 280 c 4
 475 280 467 269 469 245 c 4
419 238 m 4
 415 270 426 328 478 330 c 4
 526 334 561 295 566 253 c 4
 572 211 543 166 496 164 c 4
 448 162 424 204 419 238 c 4
188 -1 m 1
 166 8 l 1
 175 32 l 1
 479 778 l 1
 502 834 l 1
 526 776 l 1
 822 28 l 1
 830 4 l 1
 808 -5 l 1
 784 -14 l 1
 775 10 l 1
 502 700 l 1
 221 12 l 1
 212 -11 l 1
 188 -1 l 1
EndSplineSet
EndChar

StartChar: ltd01
Encoding: 256 -1 24
Width: 999
VWidth: 0
Flags: HW
HStem: 772 20G<794 868>
LayerCount: 2
Fore
SplineSet
808 536 m 5
 782 542 l 5
 758 547 l 5
 766 572 l 5
 791 689 l 5
 107 22 l 5
 88 5 l 5
 71 22 l 5
 53 41 l 5
 72 58 l 5
 734 706 l 5
 611 674 l 5
 599 722 l 5
 630 730 l 5
 874 792 l 5
 808 536 l 5
EndSplineSet
EndChar

StartChar: V
Encoding: 86 86 25
Width: 999
VWidth: 0
Flags: HW
HStem: -17 46<667 678> 793 20G<647 674>
VStem: 277 50<314 532> 437 50<320 503>
LayerCount: 2
Fore
SplineSet
683 782 m 1
 673 770 l 2
 579 650 485 489 487 424 c 0
 489 352 544 161 686 29 c 2
 694 22 l 1
 674 -17 l 1
 662 -13 l 2
 414 57 285 223 277 422 c 0
 269 613 433 743 647 810 c 2
 658 814 l 1
 683 782 l 1
584 734 m 1
 420 664 320 559 326 425 c 0
 332 273 415 146 582 70 c 1
 480 202 439 349 437 422 c 0
 435 502 507 626 584 734 c 1
EndSplineSet
EndChar

StartChar: ltd02
Encoding: 257 -1 26
Width: 999
VWidth: 0
Flags: HW
HStem: 640 50<286 485 528 701> 654 36<485 528> 760 50<473 532>
LayerCount: 2
Fore
SplineSet
227 582 m 1xa0
 204 593 l 1
 216 616 l 1
 248 677 l 1
 254 690 l 1
 270 690 l 1x60
 712 694 l 1
 725 694 l 1
 733 684 l 1
 779 623 l 1
 794 602 l 1
 774 588 l 1
 754 574 l 1
 739 593 l 1
 701 644 l 1
 286 640 l 1
 260 592 l 1
 248 570 l 1
 227 582 l 1xa0
504 714 m 1
 532 760 l 1
 473 760 l 1
 504 714 l 1
485 654 m 1
 406 770 l 1
 379 808 l 1
 426 809 l 1
 576 811 l 1
 620 812 l 1
 598 773 l 1
 528 655 l 1
 506 653 l 1
 485 654 l 1
EndSplineSet
EndChar

StartChar: ltd03
Encoding: 258 -1 27
Width: 999
VWidth: 0
Flags: HW
HStem: 325 50<58 377> 340 50<528 848>
LayerCount: 2
Fore
SplineSet
852 372 m 4x40
 854 349 869 339 877 340 c 4
 891 341 903 354 901 372 c 4
 899 394 883 408 865 406 c 4
 859 406 850 396 852 372 c 4x40
803 364 m 4
 799 396 810 454 862 456 c 4
 910 460 945 421 950 379 c 4
 956 337 927 292 880 290 c 4
 832 288 808 330 803 364 c 4
56 349 m 1
 55 374 l 1
 80 374 l 1
 79 374 80 373 80 374 c 1x80
 823 390 l 5
 848 391 l 5
 850 366 l 5
 850 341 l 5
 826 340 l 5x40
 82 325 l 1
 82 326 81 325 82 325 c 1x80
 58 324 l 1
 56 349 l 1
EndSplineSet
EndChar

StartChar: ltd04
Encoding: 259 -1 28
Width: 999
VWidth: 0
Flags: HW
HStem: 752 20G<874 899>
VStem: 850 50<323 770> 859 50<14 534>
LayerCount: 2
Fore
SplineSet
874 770 m 1xc0
 898 772 l 1
 899 746 l 1xc0
 910 40 l 1
 910 14 l 1
 884 14 l 1
 859 14 l 1
 859 40 l 1xa0
 850 746 l 1
 848 770 l 1
 874 770 l 1xc0
EndSplineSet
EndChar

StartChar: ltd05
Encoding: 260 -1 29
Width: 999
VWidth: 0
Flags: HW
HStem: -158 136
VStem: 454 154
LayerCount: 2
Fore
SplineSet
469 -41 m 1
 485 -22 l 1
 607 -119 l 1
 590 -139 l 1
 575 -158 l 1
 454 -61 l 1
 469 -41 l 1
EndSplineSet
EndChar

StartChar: ltd06
Encoding: 261 -1 30
Width: 999
VWidth: 0
Flags: HW
HStem: -180 166
VStem: 419 148
LayerCount: 2
Fore
SplineSet
468 -98 m 0
 470 -121 484 -131 492 -130 c 0
 506 -129 520 -116 518 -98 c 0
 516 -76 499 -62 481 -64 c 0
 475 -64 466 -74 468 -98 c 0
419 -106 m 0
 415 -74 426 -16 478 -14 c 0
 526 -10 561 -49 566 -91 c 0
 572 -133 543 -178 496 -180 c 0
 448 -182 424 -140 419 -106 c 0
EndSplineSet
EndChar

StartChar: ltd07
Encoding: 262 -1 31
Width: 999
VWidth: 0
Flags: HW
HStem: 22 22G<134 170> 762 20G<762 788>
VStem: 762 50<601 781>
LayerCount: 2
Fore
SplineSet
910 662 m 5
 932 654 l 5
 925 630 l 6
 885 509 864 439 763 348 c 4
 651 248 513 351 427 293 c 4
 306 214 265 155 170 40 c 6
 154 22 l 5
 134 37 l 5
 116 52 l 5
 132 72 l 6
 226 184 271 252 398 335 c 4
 528 420 650 313 730 385 c 4
 822 468 838 524 878 646 c 6
 886 670 l 5
 910 662 l 5
788 781 m 5
 812 781 l 5
 812 756 l 6
 810 634 799 550 696 458 c 4
 584 358 444 464 358 406 c 4
 237 327 197 267 102 152 c 6
 86 132 l 5
 68 148 l 5
 48 166 l 5
 62 184 l 6
 156 296 205 363 332 446 c 4
 462 531 582 425 662 497 c 4
 753 579 760 636 762 757 c 6
 762 782 l 5
 788 781 l 5
EndSplineSet
EndChar

StartChar: ltd08
Encoding: 263 -1 32
Width: 999
VWidth: 0
Flags: HW
HStem: 754 20G<636 670>
VStem: 485 50<263 524>
LayerCount: 2
Fore
SplineSet
670 758 m 5
 690 743 l 5
 674 722 l 6
 580 592 530 521 535 376 c 4
 540 236 606 173 700 47 c 6
 715 26 l 5
 695 12 l 5
 674 -2 l 5
 660 17 l 6
 568 139 490 216 485 374 c 4
 480 535 541 624 635 752 c 6
 649 773 l 5
 670 758 l 5
EndSplineSet
EndChar

StartChar: lt_ZA
Encoding: 264 -1 33
Width: 999
VWidth: 0
Flags: HW
HStem: -2 50<190 821> 565 50<475 521> 724 50<282 368 641 708>
VStem: 607 40<-53 96>
LayerCount: 2
Fore
SplineSet
697 173 m 5
 706 168 l 5
 713 162 l 5
 707 154 l 5
 701 146 l 6
 681 120 668 100 658 78 c 4
 650 59 646 38 647 12 c 4
 647 0 650 -10 652 -20 c 4
 662 -52 681 -75 710 -113 c 6
 718 -121 l 5
 722 -130 l 5
 715 -134 l 5
 707 -142 l 5
 698 -146 l 5
 691 -154 l 5
 685 -145 l 5
 679 -137 l 6
 654 -103 630 -77 617 -41 c 4
 611 -25 608 -8 607 12 c 4
 606 44 612 69 622 92 c 4
 633 118 650 141 670 169 c 6
 674 178 l 5
 682 185 l 5
 688 179 l 5
 697 173 l 5
482 496 m 1
 502 520 l 1
 520 496 l 1
 892 38 l 1
 926 -2 l 1
 874 -2 l 1
 137 -2 l 1
 85 -2 l 1
 118 38 l 1
 482 496 l 1
502 440 m 1
 190 48 l 1
 821 47 l 1
 502 440 l 1
168 578 m 1
 146 592 l 1
 158 614 l 2
 196 680 236 776 342 774 c 0
 464 772 450 615 497 614 c 0
 533 613 567 773 661 769 c 0
 756 764 801 680 850 614 c 2
 864 595 l 1
 844 580 l 1
 824 565 l 1
 809 586 l 2
 754 660 721 717 659 719 c 0
 629 721 592 563 494 565 c 0
 379 567 403 722 341 724 c 0
 274 726 249 666 202 588 c 2
 190 566 l 1
 168 578 l 1
EndSplineSet
EndChar

StartChar: lt_ZB
Encoding: 265 -1 34
Width: 999
VWidth: 0
Flags: HW
HStem: 26 50<638 760>
VStem: 136 50<184 580> 360 49<468 584> 594 40<42 136> 768 49<77 161>
LayerCount: 2
Fore
SplineSet
385 587 m 1
 409 590 l 1
 412 565 l 2
 423 485 428 438 462 440 c 0
 500 444 501 519 499 580 c 2
 499 586 l 1
 548 582 l 2
 555 581 561 517 563 503 c 0
 586 405 585 338 523 253 c 0
 511 236 492 231 476 232 c 0
 436 234 381 275 385 322 c 2
 388 348 l 1
 412 346 l 1
 438 342 l 1
 434 318 l 2
 435 310 468 280 482 282 c 0
 520 336 534 405 529 457 c 1
 517 439 494 392 468 390 c 0
 371 380 370 506 362 558 c 2
 360 583 l 1
 385 587 l 1
778 662 m 1
 756 648 l 1
 742 668 l 2
 720 698 687 744 670 743 c 0
 472 731 360 747 251 635 c 0
 168 550 185 514 186 398 c 0
 187 279 174 190 260 104 c 0
 368 -5 510 64 752 76 c 1
 759 88 766 126 768 144 c 2
 772 169 l 1
 797 166 l 1
 821 160 l 1
 817 136 l 2
 816 128 818 28 760 26 c 0
 534 15 361 -68 224 70 c 0
 122 173 137 285 136 397 c 0
 135 509 115 568 215 670 c 0
 351 809 485 785 671 793 c 0
 721 795 760 728 782 698 c 2
 797 677 l 1
 778 662 l 1
684 214 m 5
 692 208 l 5
 700 202 l 5
 694 194 l 5
 688 187 l 6
 668 161 656 140 646 118 c 4
 638 99 633 80 634 54 c 4
 634 42 636 32 638 22 c 4
 648 -10 669 -34 698 -72 c 6
 704 -80 l 5
 710 -88 l 5
 702 -94 l 5
 694 -100 l 5
 686 -106 l 5
 678 -112 l 5
 672 -104 l 5
 666 -96 l 6
 641 -62 615 -36 602 0 c 4
 596 16 595 32 594 52 c 4
 593 84 598 110 608 133 c 4
 619 159 636 182 656 210 c 6
 662 218 l 5
 668 227 l 5
 676 221 l 5
 684 214 l 5
EndSplineSet
EndChar

StartChar: lt_ZC
Encoding: 266 -1 35
Width: 999
VWidth: 0
Flags: HW
HStem: 4 50<172 634 638 820>
VStem: 594 40<54 136>
LayerCount: 2
Fore
SplineSet
684 214 m 5
 692 208 l 5
 700 202 l 5
 694 194 l 5
 688 187 l 6
 668 161 656 140 646 118 c 4
 638 99 633 80 634 54 c 4
 634 42 636 32 638 22 c 4
 648 -10 669 -34 698 -72 c 6
 704 -80 l 5
 710 -88 l 5
 702 -94 l 5
 694 -100 l 5
 686 -106 l 5
 678 -112 l 5
 672 -104 l 5
 666 -96 l 6
 641 -62 615 -36 602 0 c 4
 596 16 595 32 594 52 c 4
 593 84 598 110 608 133 c 4
 619 159 636 182 656 210 c 6
 662 218 l 5
 668 227 l 5
 676 221 l 5
 684 214 l 5
481 720 m 0
 483 697 496 687 504 688 c 0
 518 689 531 703 529 721 c 0
 527 743 511 756 493 754 c 0
 487 754 479 744 481 720 c 0
431 712 m 0
 427 744 438 802 490 804 c 0
 538 808 573 770 578 728 c 0
 584 686 555 640 508 638 c 0
 460 636 436 678 431 712 c 0
478 640 m 1
 498 674 l 1
 518 640 l 1
 886 42 l 1
 910 2 l 1
 865 2 l 1
 127 4 l 1
 82 4 l 1
 106 42 l 1
 478 640 l 1
498 580 m 1
 172 54 l 1
 820 53 l 1
 498 580 l 1
EndSplineSet
EndChar

StartChar: lt_ZD
Encoding: 267 -1 36
Width: 999
VWidth: 0
Flags: HW
HStem: 221 40<728 817> 774 20G<184 218 781 816>
LayerCount: 2
Fore
SplineSet
820 241 m 5
 822 230 l 5
 823 221 l 5
 814 218 l 5
 803 218 l 6
 769 213 747 208 725 200 c 4
 706 192 689 181 671 162 c 4
 663 152 657 144 652 136 c 4
 636 108 635 76 628 28 c 6
 626 18 l 5
 624 8 l 5
 614 10 l 5
 605 11 l 5
 595 12 l 5
 586 14 l 5
 587 24 l 5
 588 34 l 6
 594 76 595 111 612 146 c 4
 619 160 629 176 642 190 c 4
 664 213 686 228 709 238 c 4
 735 249 764 253 798 258 c 6
 806 259 l 5
 817 262 l 5
 818 251 l 5
 820 241 l 5
816 778 m 1
 835 762 l 1
 818 743 l 1
 218 4 l 1
 203 -14 l 1
 184 1 l 1
 166 17 l 1
 181 36 l 1
 781 775 l 1
 797 794 l 1
 816 778 l 1
184 778 m 1
 203 794 l 1
 218 775 l 1
 818 36 l 1
 835 17 l 1
 816 1 l 1
 797 -14 l 1
 781 4 l 1
 181 743 l 1
 166 762 l 1
 184 778 l 1
EndSplineSet
EndChar

StartChar: lt_ZE
Encoding: 268 -1 37
Width: 999
VWidth: 0
Flags: HW
HStem: -17 50<172 240 290 358>
VStem: 240 50<-8 214> 316 40<324 469> 546 48<53 113>
LayerCount: 2
Fore
SplineSet
406 550 m 5
 414 544 l 5
 422 538 l 5
 416 530 l 5
 410 522 l 6
 390 496 378 476 368 454 c 4
 360 435 355 415 356 389 c 4
 356 377 359 368 361 358 c 4
 371 326 391 301 420 263 c 6
 426 254 l 5
 432 248 l 5
 424 242 l 5
 416 235 l 5
 408 229 l 5
 400 223 l 5
 394 232 l 5
 388 239 l 6
 363 273 339 299 326 335 c 4
 320 351 317 368 316 388 c 4
 315 420 320 445 330 468 c 4
 341 494 358 518 378 546 c 6
 384 553 l 5
 390 562 l 5
 398 556 l 5
 406 550 l 5
644 192 m 1
 648 186 l 1
 642 182 l 2
 641 177 640 174 638 170 c 0
 626 133 610 105 600 67 c 2
 594 42 l 1
 570 49 l 1
 546 55 l 1
 552 79 l 2
 560 107 570 129 578 149 c 1
 550 135 504 113 470 154 c 0
 421 216 500 276 536 299 c 0
 546 305 553 308 563 310 c 0
 595 314 641 297 647 254 c 0
 649 231 648 211 644 192 c 1
598 218 m 0
 599 228 600 237 598 248 c 0
 597 252 587 262 571 260 c 0
 569 259 564 258 562 257 c 0
 516 228 498 198 509 185 c 0
 519 173 534 183 588 212 c 0
 590 214 596 216 598 218 c 0
251 412 m 1
 249 290 285 177 290 17 c 1
 289 17 290 16 290 17 c 1
 290 -8 l 1
 266 -10 l 1
 241 -10 l 1
 240 14 l 2
 235 176 194 292 202 438 c 0
 204 480 210 525 222 574 c 0
 251 684 332 803 462 781 c 0
 478 779 494 774 512 769 c 0
 634 735 820 646 780 498 c 0
 725 295 417 396 251 412 c 1
253 462 m 1
 453 443 694 368 732 511 c 0
 757 605 629 686 499 721 c 0
 483 725 468 730 454 732 c 0
 366 748 299 665 271 562 c 0
 261 527 255 494 253 462 c 1
172 10 m 1
 172 35 l 1
 198 35 l 1
 332 34 l 1
 358 32 l 1
 358 8 l 1
 358 -18 l 1
 332 -17 l 1
 197 -14 l 1
 172 -14 l 1
 172 10 l 1
EndSplineSet
EndChar

StartChar: lt_ZF
Encoding: 269 -1 38
Width: 999
VWidth: 0
Flags: HW
HStem: 22 22G<134 170> 762 20G<479 515 762 788>
VStem: 474 50<18 746> 622 40<206 301> 762 50<601 781>
LayerCount: 2
Fore
SplineSet
710 434 m 1
 719 428 l 1
 728 422 l 1
 722 414 l 1
 716 407 l 2
 696 381 682 360 672 338 c 0
 664 319 661 300 662 274 c 0
 662 262 664 251 666 241 c 0
 676 209 696 186 725 148 c 2
 732 140 l 1
 738 132 l 1
 730 126 l 1
 722 120 l 1
 713 113 l 1
 706 108 l 1
 698 116 l 1
 694 122 l 2
 669 156 644 184 631 220 c 0
 625 236 623 252 622 272 c 0
 621 304 626 329 636 352 c 0
 647 378 663 402 683 430 c 2
 689 438 l 1
 695 446 l 1
 703 440 l 1
 710 434 l 1
910 662 m 1
 932 654 l 1
 925 630 l 2
 885 509 864 439 763 348 c 0
 651 248 513 351 427 293 c 0
 306 214 265 155 170 40 c 2
 154 22 l 1
 134 37 l 1
 116 52 l 1
 132 72 l 2
 226 184 271 252 398 335 c 0
 528 420 650 313 730 385 c 0
 822 468 838 524 878 646 c 2
 886 670 l 1
 910 662 l 1
788 781 m 1
 812 781 l 1
 812 756 l 2
 810 634 799 550 696 458 c 0
 584 358 444 464 358 406 c 0
 237 327 197 267 102 152 c 2
 86 132 l 1
 68 148 l 1
 48 166 l 1
 62 184 l 2
 156 296 205 363 332 446 c 0
 462 531 582 425 662 497 c 0
 753 579 760 636 762 757 c 2
 762 782 l 1
 788 781 l 1
479 766 m 1
 498 785 l 1
 516 764 l 1
 708 542 l 1
 689 526 l 1
 670 508 l 1
 496 710 l 1
 300 505 l 1
 282 522 l 1
 263 539 l 1
 479 766 l 1
494 746 m 1
 520 746 l 1
 520 739 l 1
 524 42 l 1
 524 18 l 1
 499 17 l 1
 474 17 l 1
 474 42 l 1
 470 739 l 1
 470 746 l 1
 494 746 l 1
EndSplineSet
EndChar

StartChar: lt_ZG
Encoding: 270 -1 39
Width: 999
VWidth: 0
Flags: HW
HStem: 799 20G<170 202 719 724>
VStem: 378 49<90 264> 594 40<52 136> 724 52<731 786>
LayerCount: 2
Fore
SplineSet
684 214 m 5
 692 208 l 5
 700 202 l 5
 694 194 l 5
 688 187 l 6
 668 161 656 140 646 118 c 4
 638 99 633 80 634 54 c 4
 634 42 636 32 638 22 c 4
 648 -10 669 -34 698 -72 c 6
 704 -80 l 5
 710 -88 l 5
 702 -94 l 5
 694 -100 l 5
 686 -106 l 5
 678 -112 l 5
 672 -104 l 5
 666 -96 l 6
 641 -62 615 -36 602 0 c 4
 596 16 595 32 594 52 c 4
 593 84 598 110 608 133 c 4
 619 159 636 182 656 210 c 6
 662 218 l 5
 668 227 l 5
 676 221 l 5
 684 214 l 5
97 288 m 2
 215 314 331 354 440 382 c 0
 445 384 464 390 466 394 c 0
 470 400 496 414 500 420 c 0
 504 426 497 422 502 428 c 1
 490 424 458 420 446 418 c 0
 252 392 212 638 157 778 c 2
 148 802 l 1
 170 810 l 1
 194 818 l 1
 203 796 l 2
 268 629 300 441 438 460 c 0
 504 470 590 531 646 613 c 0
 694 681 713 764 724 786 c 1
 724 786 776 807 776 782 c 0
 776 762 772 774 770 766 c 0
 768 764 766 758 764 752 c 0
 722 654 680 583 642 530 c 0
 602 475 564 437 533 402 c 1
 642 421 747 420 836 368 c 0
 912 324 893 224 851 152 c 0
 823 104 782 60 730 32 c 0
 629 -22 444 -18 390 84 c 0
 380 103 376 128 378 152 c 0
 385 226 397 280 419 324 c 1
 321 298 217 264 108 240 c 2
 83 234 l 1
 78 258 l 1
 72 283 l 1
 97 288 l 2
97 288 m 1
 98 288 96 288 97 288 c 1
486 341 m 0
 484 339 481 333 479 331 c 0
 453 289 435 234 427 146 c 0
 425 130 428 119 434 108 c 0
 466 47 617 28 706 76 c 0
 748 98 784 137 808 178 c 0
 849 248 845 304 810 326 c 0
 728 374 626 372 506 346 c 0
 499 344 493 343 486 341 c 0
EndSplineSet
EndChar

StartChar: lt_ZH
Encoding: 271 -1 40
Width: 999
VWidth: 0
Flags: HW
HStem: 762 20G<752 785>
LayerCount: 2
Fore
SplineSet
682 310 m 5
 689 302 l 5
 698 298 l 5
 692 289 l 5
 685 281 l 6
 665 255 652 236 642 214 c 4
 634 195 630 174 631 148 c 4
 631 136 634 126 636 116 c 4
 646 84 666 60 695 22 c 6
 701 14 l 5
 708 7 l 5
 698 1 l 5
 691 -6 l 5
 683 -12 l 5
 674 -18 l 5
 670 -10 l 5
 662 -2 l 6
 637 32 614 58 601 94 c 4
 595 110 591 126 590 146 c 4
 589 178 595 205 605 228 c 4
 616 254 633 277 653 305 c 6
 659 312 l 5
 665 322 l 5
 673 314 l 5
 682 310 l 5
786 760 m 1
 798 738 l 1
 775 727 l 2
 627 653 495 588 515 506 c 0
 531 440 800 500 812 362 c 0
 826 200 670 131 542 46 c 2
 522 31 l 1
 508 52 l 1
 494 72 l 1
 516 86 l 2
 656 180 773 237 762 358 c 0
 754 441 503 342 467 494 c 0
 435 632 624 707 752 772 c 2
 775 782 l 1
 786 760 l 1
487 718 m 1
 498 696 l 1
 475 684 l 2
 327 610 195 545 215 463 c 0
 231 397 500 457 512 319 c 0
 526 157 370 87 242 2 c 1
 243 2 243 3 242 2 c 1
 222 -11 l 1
 209 10 l 1
 194 31 l 1
 216 44 l 2
 356 138 473 193 462 314 c 0
 454 397 203 300 167 452 c 0
 135 590 324 665 452 730 c 2
 475 740 l 1
 487 718 l 1
EndSplineSet
EndChar

StartChar: lt_ZI
Encoding: 272 -1 41
Width: 999
VWidth: 0
Flags: HW
VStem: 668 40<-46 103>
LayerCount: 2
Fore
SplineSet
758 182 m 5
 766 176 l 5
 774 170 l 5
 768 162 l 5
 762 154 l 6
 742 128 729 108 719 86 c 4
 711 67 707 48 708 22 c 4
 708 10 710 -2 712 -12 c 4
 722 -44 743 -68 772 -106 c 6
 778 -112 l 5
 784 -121 l 5
 776 -127 l 5
 768 -132 l 5
 760 -139 l 5
 752 -145 l 5
 746 -137 l 5
 740 -130 l 6
 715 -96 691 -68 678 -32 c 4
 672 -16 669 0 668 20 c 4
 667 52 672 78 682 101 c 4
 693 127 710 150 730 178 c 6
 736 186 l 5
 742 193 l 5
 750 188 l 5
 758 182 l 5
862 620 m 1
 842 607 l 1
 828 628 l 2
 826 630 824 633 822 635 c 0
 764 717 678 764 617 722 c 0
 483 628 420 378 458 212 c 0
 468 169 490 131 518 103 c 0
 596 25 729 8 842 122 c 2
 860 142 l 1
 878 122 l 1
 895 106 l 1
 878 88 l 2
 747 -44 580 -30 482 68 c 0
 447 103 420 148 408 200 c 0
 365 382 430 653 588 763 c 0
 688 833 803 750 864 664 c 0
 866 662 868 657 870 655 c 2
 883 634 l 1
 862 620 l 1
121 578 m 1
 98 588 l 1
 108 612 l 2
 122 644 147 678 175 710 c 0
 236 777 337 842 419 768 c 0
 601 600 669 407 598 166 c 0
 578 99 545 51 502 22 c 0
 386 -56 227 14 132 156 c 2
 118 178 l 1
 139 191 l 1
 160 205 l 1
 173 184 l 2
 261 53 392 8 474 62 c 0
 506 84 532 122 550 180 c 0
 616 403 557 574 385 732 c 0
 339 774 272 744 212 677 c 0
 187 649 166 616 154 590 c 2
 143 568 l 1
 121 578 l 1
EndSplineSet
EndChar

StartChar: lt_ZK
Encoding: 273 -1 42
Width: 999
VWidth: 0
Flags: HW
HStem: 26 50<611 829> 772 20G<794 868>
VStem: 652 40<-66 29>
LayerCount: 2
Fore
SplineSet
742 160 m 1
 750 154 l 1
 758 148 l 1
 752 140 l 1
 746 132 l 2
 726 106 713 86 703 64 c 0
 695 45 691 25 692 -1 c 0
 692 -13 695 -24 697 -34 c 0
 707 -66 727 -89 756 -127 c 2
 762 -134 l 1
 768 -142 l 1
 760 -148 l 1
 752 -154 l 1
 744 -161 l 1
 736 -167 l 1
 730 -158 l 1
 724 -151 l 2
 699 -117 675 -90 662 -54 c 0
 656 -38 653 -22 652 -2 c 0
 651 30 657 55 667 78 c 0
 678 104 694 128 714 156 c 2
 720 163 l 1
 726 172 l 1
 734 166 l 1
 742 160 l 1
679 316 m 1
 698 352 l 1
 722 318 l 1
 898 72 l 1
 925 34 l 1
 878 34 l 1
 569 26 l 1
 528 26 l 1
 547 62 l 1
 679 316 l 1
704 257 m 1
 611 78 l 1
 829 82 l 1
 704 257 l 1
808 536 m 1
 782 542 l 1
 758 547 l 1
 766 572 l 1
 791 689 l 1
 107 22 l 1
 88 5 l 1
 71 22 l 1
 53 41 l 1
 72 58 l 1
 734 706 l 1
 611 674 l 1
 599 722 l 1
 630 730 l 1
 874 792 l 1
 808 536 l 1
EndSplineSet
EndChar

StartChar: lt_ZL
Encoding: 274 -1 43
Width: 999
VWidth: 0
Flags: HW
HStem: -5 50<548 821> 782 20G<439 472>
VStem: 418 50<184 386 442 715> 678 40<-47 102>
LayerCount: 2
Fore
SplineSet
768 180 m 5
 776 174 l 5
 784 168 l 5
 778 160 l 5
 772 152 l 6
 752 126 740 106 730 84 c 4
 722 65 717 45 718 19 c 4
 718 7 720 -3 722 -13 c 4
 732 -45 753 -69 782 -107 c 6
 788 -115 l 5
 794 -122 l 5
 786 -128 l 5
 778 -134 l 5
 770 -142 l 5
 762 -146 l 5
 756 -138 l 5
 750 -131 l 6
 725 -97 701 -71 688 -35 c 4
 682 -19 679 -2 678 18 c 4
 677 50 682 75 692 98 c 4
 703 124 720 148 740 176 c 6
 746 182 l 5
 752 192 l 5
 760 186 l 5
 768 180 l 5
467 397 m 1
 466 313 468 230 482 136 c 0
 494 62 591 48 706 46 c 0
 802 44 825 63 907 128 c 2
 926 143 l 1
 942 122 l 1
 958 104 l 1
 938 88 l 2
 856 23 812 -7 704 -5 c 0
 601 -3 452 3 433 128 c 0
 419 220 417 304 418 386 c 1
 122 542 l 1
 84 563 l 1
 121 586 l 1
 434 780 l 1
 470 803 l 1
 472 760 l 2
 476 628 470 519 468 415 c 1
 467 409 l 1
 467 397 l 1
418 442 m 1
 420 528 424 613 422 715 c 1
 184 566 l 1
 418 442 l 1
EndSplineSet
EndChar

StartChar: lt_ZM
Encoding: 275 -1 44
Width: 999
VWidth: 0
Flags: HW
HStem: 14 50<238 812> 214 50<544 779> 502 50<199 418> 770 20G<190 239>
VStem: 190 50<60 503 553 791> 198 41<503 552> 601 40<-52 97>
LayerCount: 2
Fore
SplineSet
691 176 m 5xf2
 698 170 l 5
 707 164 l 5
 701 156 l 5
 695 148 l 6
 675 122 662 102 652 80 c 4
 644 61 640 40 641 14 c 4
 641 2 644 -8 646 -18 c 4
 656 -50 677 -72 706 -110 c 6
 710 -118 l 5
 718 -127 l 5
 709 -132 l 5
 701 -138 l 5
 694 -145 l 5
 685 -151 l 5
 679 -142 l 5
 673 -134 l 6
 648 -100 624 -74 611 -38 c 4
 605 -22 602 -6 601 14 c 4
 600 46 604 71 614 94 c 4
 625 120 642 144 662 172 c 6
 670 180 l 5
 674 188 l 5
 682 182 l 5
 691 176 l 5xf2
198 528 m 1xf6
 198 552 l 1
 222 553 l 2
 319 555 430 564 510 472 c 0
 516 465 520 456 522 446 c 0
 532 388 440 339 430 326 c 1
 530 252 595 273 758 263 c 2
 782 262 l 1
 781 238 l 1
 779 212 l 1
 754 214 l 2
 602 224 516 199 398 288 c 0
 388 296 380 306 378 319 c 0
 376 336 385 348 392 358 c 0
 420 394 468 425 472 438 c 0
 410 510 326 505 224 503 c 2
 199 502 l 1
 198 528 l 1xf6
214 791 m 1
 239 791 l 1
 239 766 l 1
 239 767 240 766 239 766 c 1
 238 60 l 1
 788 64 l 1
 812 64 l 1
 814 38 l 1
 814 14 l 1
 788 14 l 1
 212 10 l 1
 187 10 l 1
 187 35 l 1
 190 766 l 1
 189 766 190 767 190 766 c 1
 190 791 l 1xfa
 214 791 l 1
EndSplineSet
EndChar

StartChar: lt_ZN
Encoding: 276 -1 45
Width: 1002
VWidth: 0
Flags: HW
HStem: 22 50<226 766> 766 20G<816 835>
VStem: 452 40<-48 100> 787 48<394 662> 797 50<113 450>
LayerCount: 2
Fore
SplineSet
542 178 m 5xe0
 550 172 l 5
 558 166 l 5
 552 158 l 5
 546 150 l 6
 526 124 513 104 503 82 c 4
 495 63 491 44 492 18 c 4
 492 6 495 -4 497 -14 c 4
 507 -46 527 -71 556 -109 c 6
 562 -118 l 5
 568 -125 l 5
 560 -131 l 5
 552 -137 l 5
 544 -142 l 5
 536 -149 l 5
 530 -142 l 5
 524 -132 l 6
 499 -98 475 -73 462 -37 c 4
 456 -21 453 -4 452 16 c 4
 451 48 456 74 466 97 c 4
 477 123 494 145 514 173 c 6
 520 182 l 5
 526 190 l 5
 534 182 l 5
 542 178 l 5xe0
766 73 m 1
 499 358 l 1
 226 68 l 1
 766 73 l 1
787 662 m 1xf0
 534 395 l 1
 797 113 l 1xe8
 787 662 l 1xf0
500 430 m 1
 835 786 l 1xf0
 848 58 l 1
 848 22 l 1
 822 22 l 1
 799 22 l 1
 109 16 l 1
 466 394 l 1
 157 725 l 1
 193 758 l 1
 500 430 l 1
EndSplineSet
EndChar

StartChar: lt_ZO
Encoding: 277 -1 46
Width: 999
VWidth: 0
Flags: HW
HStem: 814 20G<494 510>
LayerCount: 2
Fore
SplineSet
910 166 m 1
 905 157 l 1
 902 148 l 1
 892 151 l 1
 883 154 l 2
 852 166 828 177 806 179 c 0
 786 181 768 181 742 173 c 0
 730 171 718 166 710 161 c 0
 682 144 666 118 635 80 c 2
 629 72 l 1
 622 64 l 1
 614 71 l 1
 607 77 l 1
 599 83 l 1
 592 89 l 1
 598 98 l 1
 604 106 l 2
 630 140 650 168 682 190 c 0
 695 200 711 206 730 212 c 0
 760 222 787 220 812 218 c 0
 840 214 866 204 898 192 c 2
 907 188 l 1
 917 184 l 1
 912 175 l 1
 910 166 l 1
469 245 m 0
 471 222 484 213 492 214 c 0
 506 215 520 229 518 247 c 0
 516 269 499 282 481 280 c 0
 475 280 467 269 469 245 c 0
419 238 m 0
 415 270 426 328 478 330 c 0
 526 334 561 295 566 253 c 0
 572 211 543 166 496 164 c 0
 448 162 424 204 419 238 c 0
188 -1 m 1
 166 8 l 1
 175 32 l 1
 479 778 l 1
 502 834 l 1
 526 776 l 1
 822 28 l 1
 830 4 l 1
 808 -5 l 1
 784 -14 l 1
 775 10 l 1
 502 700 l 1
 221 12 l 1
 212 -11 l 1
 188 -1 l 1
EndSplineSet
EndChar

StartChar: lt_ZP
Encoding: 278 -1 47
Width: 999
VWidth: 0
Flags: HW
HStem: 389 50<257 282>
VStem: 230 50<103 228>
LayerCount: 2
Fore
SplineSet
643 228 m 5
 650 222 l 5
 659 216 l 5
 653 208 l 5
 648 200 l 6
 628 174 614 154 604 132 c 4
 596 113 592 94 593 68 c 4
 593 56 596 45 598 35 c 4
 608 3 629 -20 658 -58 c 6
 662 -67 l 5
 670 -74 l 5
 661 -82 l 5
 653 -86 l 5
 646 -92 l 5
 638 -98 l 5
 631 -91 l 5
 625 -82 l 6
 600 -48 575 -23 562 13 c 4
 556 29 554 46 553 66 c 4
 552 98 558 123 568 146 c 4
 579 172 594 195 614 223 c 6
 622 232 l 5
 626 240 l 5
 635 234 l 5
 643 228 l 5
254 414 m 1
 258 439 l 1
 282 437 l 1
 748 395 l 1
 772 392 l 1
 770 368 l 1
 768 342 l 1
 742 346 l 1
 278 388 l 1
 252 389 l 1
 254 414 l 1
233 637 m 1
 216 655 l 1
 233 672 l 1
 232 671 234 672 233 672 c 1
 313 750 414 803 542 780 c 0
 578 773 618 759 654 739 c 0
 721 702 794 631 750 552 c 0
 692 450 590 430 502 368 c 0
 386 286 275 262 280 154 c 0
 280 152 281 148 281 146 c 0
 291 74 400 35 498 47 c 0
 599 59 663 136 725 228 c 2
 739 248 l 1
 760 235 l 1
 781 221 l 1
 767 200 l 2
 705 108 629 14 504 -2 c 0
 402 -14 244 18 230 140 c 0
 229 142 230 149 230 151 c 0
 222 301 376 342 472 409 c 0
 574 480 660 496 706 578 c 0
 726 615 697 658 630 695 c 0
 599 713 563 725 534 730 c 0
 427 750 342 707 268 636 c 2
 250 618 l 1
 233 637 l 1
EndSplineSet
EndChar

StartChar: lt_ZQ
Encoding: 279 -1 48
Width: 999
VWidth: 0
Flags: HW
HStem: 788 20G<746 772>
VStem: 246 50<-16 532> 253 49<10 532> 532 40<253 334> 722 50<370 806>
LayerCount: 2
Fore
SplineSet
622 478 m 5x98
 630 472 l 5
 638 466 l 5
 632 458 l 5
 626 450 l 6
 606 424 593 404 583 382 c 4
 575 363 571 344 572 318 c 4
 572 306 575 296 577 286 c 4
 587 254 607 230 636 192 c 6
 642 182 l 5
 648 176 l 5
 640 169 l 5
 632 163 l 5
 624 158 l 5
 616 152 l 5
 610 158 l 5
 604 168 l 6
 579 202 555 227 542 263 c 4
 536 279 533 296 532 316 c 4
 531 348 537 374 547 397 c 4
 558 423 574 445 594 473 c 6
 600 482 l 5
 606 490 l 5
 614 484 l 5
 622 478 l 5x98
522 509 m 1
 517 485 l 1
 492 491 l 1
 302 532 l 1xb8
 296 8 l 1
 296 -17 l 1
 271 -16 l 1
 246 -16 l 1
 246 10 l 1
 246 11 245 10 246 10 c 1xd8
 253 564 l 1
 253 595 l 1xb8
 283 588 l 1
 503 539 l 1
 528 534 l 1
 522 509 l 1
746 806 m 1
 772 808 l 1
 772 782 l 1
 778 343 l 1
 778 316 l 1
 750 318 l 1
 290 356 l 1
 266 358 l 1
 268 383 l 1
 270 408 l 1
 295 406 l 1
 727 370 l 1
 722 782 l 1
 722 806 l 1
 746 806 l 1
EndSplineSet
EndChar

StartChar: lt_ZR
Encoding: 280 -1 49
Width: 999
VWidth: 0
Flags: HW
HStem: 785 20G<382 414 584 614>
VStem: 78 50<305 526> 290 40<-26 58> 836 50<150 244 540 640>
LayerCount: 2
Fore
SplineSet
382 200 m 5
 389 194 l 5
 397 188 l 5
 391 180 l 5
 385 172 l 6
 365 146 352 126 342 104 c 4
 334 85 330 64 331 38 c 4
 331 26 334 17 336 7 c 4
 346 -25 366 -48 395 -86 c 6
 401 -95 l 5
 408 -102 l 5
 398 -108 l 5
 391 -115 l 5
 383 -121 l 5
 374 -127 l 5
 370 -118 l 5
 362 -110 l 6
 337 -76 314 -50 301 -14 c 4
 295 2 291 18 290 38 c 4
 289 70 295 95 305 118 c 4
 316 144 333 168 353 196 c 6
 359 203 l 5
 365 212 l 5
 372 206 l 5
 382 200 l 5
583 782 m 1
 592 805 l 1
 614 797 l 2
 720 759 885 726 887 578 c 0
 889 451 646 420 638 408 c 1
 648 389 886 334 886 202 c 0
 886 68 712 34 618 8 c 2
 594 1 l 1
 587 25 l 1
 580 49 l 1
 604 56 l 1
 714 88 836 120 836 202 c 0
 836 298 587 305 587 408 c 0
 587 517 840 488 838 577 c 0
 836 679 719 707 598 749 c 2
 575 758 l 1
 583 782 l 1
415 785 m 1
 427 763 l 1
 404 752 l 2
 250 673 126 581 128 418 c 0
 130 240 248 138 418 60 c 2
 439 49 l 1
 428 26 l 1
 418 4 l 1
 396 14 l 2
 220 96 80 215 78 418 c 0
 76 612 228 717 382 796 c 2
 404 808 l 1
 415 785 l 1
EndSplineSet
EndChar

StartChar: lt_ZS
Encoding: 281 -1 50
Width: 999
VWidth: 0
Flags: HW
HStem: 325 50<143 410> 340 50<533 800> 805 20G<472 494>
VStem: 472 50<110 710> 480 50<-8 624> 572 40<280 425>
LayerCount: 2
Fore
SplineSet
662 504 m 5x24
 670 498 l 5
 678 492 l 5
 672 484 l 5
 667 476 l 6
 647 450 633 430 623 408 c 4
 615 389 611 369 612 343 c 4
 612 331 615 321 617 311 c 4
 627 279 647 256 676 218 c 6
 682 209 l 5
 688 202 l 5
 680 194 l 5
 672 190 l 5
 664 182 l 5
 656 178 l 5
 650 185 l 5
 644 193 l 6
 619 227 595 253 582 289 c 4
 576 305 573 322 572 342 c 4
 571 374 577 399 587 422 c 4
 598 448 614 471 634 499 c 6
 640 508 l 5
 646 516 l 5
 654 510 l 5
 662 504 l 5x24
805 372 m 0
 807 349 820 339 828 340 c 0x64
 842 341 855 354 853 372 c 0
 851 394 835 408 817 406 c 0
 811 406 803 396 805 372 c 0
755 364 m 0
 751 396 762 454 814 456 c 0
 862 460 897 421 902 379 c 0
 908 337 879 292 832 290 c 0
 784 288 760 330 755 364 c 0
143 349 m 1
 142 374 l 1
 168 374 l 1
 167 374 168 373 168 374 c 1xa4
 775 390 l 1
 800 391 l 1
 802 366 l 1
 802 341 l 1
 778 340 l 1x64
 168 325 l 1
 168 326 167 325 168 325 c 1xa4
 143 324 l 1
 143 349 l 1
505 -8 m 1
 480 -8 l 1
 480 17 l 1x2c
 472 768 l 1
 472 826 l 1
 514 787 l 1
 768 557 l 1
 787 540 l 1
 769 521 l 1
 752 502 l 1
 734 518 l 1
 522 710 l 1x34
 530 18 l 1
 530 -8 l 1x2c
 505 -8 l 1
EndSplineSet
EndChar

StartChar: lt_ZT
Encoding: 282 -1 51
Width: 999
VWidth: 0
Flags: HW
HStem: 640 55<286 482 485 528 532 701> 760 50<473 532> 814 20G<670 684>
VStem: 470 50<-10 474> 481 50<277 695> 602 40<596 744>
LayerCount: 2
Fore
SplineSet
692 822 m 5xe4
 700 816 l 5
 708 810 l 5
 702 802 l 5
 697 794 l 6
 677 768 663 748 653 726 c 4
 645 707 641 688 642 662 c 4
 642 650 645 639 647 629 c 4
 657 597 677 574 706 536 c 6
 712 528 l 5
 718 518 l 5
 710 514 l 5
 702 508 l 5
 694 502 l 5
 686 496 l 5
 680 503 l 5
 674 512 l 6
 649 546 625 572 612 608 c 4
 606 624 603 640 602 660 c 4
 601 692 607 719 617 742 c 4
 628 768 644 790 664 818 c 6
 670 826 l 5
 676 834 l 5
 684 828 l 5
 692 822 l 5xe4
496 -10 m 1
 470 -10 l 1
 470 14 l 1xf4
 481 670 l 1
 482 695 l 1
 506 695 l 1
 532 695 l 1
 530 670 l 1xec
 521 14 l 1
 521 -10 l 1xf4
 496 -10 l 1
227 582 m 1
 204 593 l 1
 216 616 l 1
 248 677 l 1
 254 690 l 1
 270 690 l 1
 712 694 l 1
 725 694 l 1
 733 684 l 1
 779 623 l 1
 794 602 l 1
 774 588 l 1
 754 574 l 1
 739 593 l 1
 701 644 l 1
 286 640 l 1
 260 592 l 1
 248 570 l 1
 227 582 l 1
504 714 m 1
 532 760 l 1
 473 760 l 1
 504 714 l 1
485 654 m 1
 406 770 l 1
 379 808 l 1
 426 809 l 1
 576 811 l 1
 620 812 l 1
 598 773 l 1
 528 655 l 1
 508 622 l 1
 485 654 l 1
EndSplineSet
EndChar

StartChar: lt_ZU
Encoding: 283 -1 52
Width: 999
VWidth: 0
Flags: HW
HStem: 362 50<532 818> 715 50<299 725> 754 49<150 308> 776 20G<810 854>
VStem: 709 40<300 446>
LayerCount: 2
Fore
SplineSet
799 526 m 5x88
 806 518 l 5
 815 514 l 5
 809 505 l 5
 803 497 l 6
 783 471 770 452 760 430 c 4
 752 411 748 390 749 364 c 4
 749 352 752 342 754 332 c 4
 764 300 785 276 814 238 c 6
 818 230 l 5
 826 222 l 5
 818 217 l 5
 809 211 l 5
 802 204 l 5
 793 198 l 5
 788 206 l 5
 781 214 l 6
 756 248 732 275 719 311 c 4
 713 327 710 342 709 362 c 4
 708 394 712 420 722 443 c 4
 733 469 750 493 770 521 c 6
 778 528 l 5
 782 538 l 5
 791 530 l 5
 799 526 l 5x88
148 778 m 1
 150 803 l 1xa8
 175 802 l 2
 309 788 380 768 512 766 c 0
 626 764 691 781 810 791 c 2
 872 796 l 1
 830 749 l 2
 710 613 603 561 529 428 c 1
 584 420 642 415 710 413 c 0
 775 411 807 431 880 460 c 2
 902 469 l 1
 912 446 l 1
 922 422 l 1
 898 414 l 2
 831 388 788 360 709 362 c 0
 632 364 567 374 506 382 c 1
 454 261 501 188 512 40 c 2
 518 -44 l 1
 457 19 l 1
 134 450 l 1
 98 498 l 1
 158 490 l 2
 285 472 380 452 478 436 c 1
 550 575 647 634 748 734 c 1
 671 724 607 713 512 715 c 0xd8
 375 717 300 737 169 751 c 2
 144 754 l 1xa8
 148 778 l 1
455 389 m 1
 377 401 303 418 211 432 c 1
 460 94 l 1
 446 182 417 287 455 389 c 1
EndSplineSet
EndChar

StartChar: lt_ZV
Encoding: 284 -1 53
Width: 999
VWidth: 0
Flags: HW
HStem: -17 46<667 678> 203 40<547 641> 793 20G<647 674>
VStem: 277 50<314 532> 437 50<320 503>
LayerCount: 2
Fore
SplineSet
642 226 m 5
 642 215 l 5
 643 205 l 5
 634 204 l 5
 623 203 l 6
 589 201 564 199 542 192 c 4
 522 186 507 176 487 158 c 4
 477 150 472 142 466 134 c 4
 448 108 443 77 432 29 c 6
 430 19 l 5
 428 10 l 5
 418 12 l 5
 408 14 l 5
 398 16 l 5
 388 18 l 5
 391 28 l 5
 394 38 l 6
 404 79 407 114 426 148 c 4
 434 162 446 177 460 190 c 4
 483 212 506 222 530 230 c 4
 558 238 586 240 620 242 c 6
 630 244 l 5
 640 245 l 5
 641 235 l 5
 642 226 l 5
683 782 m 1
 673 770 l 2
 579 650 485 489 487 424 c 0
 489 352 544 161 686 29 c 2
 694 22 l 1
 674 -17 l 1
 662 -13 l 2
 414 57 285 223 277 422 c 0
 269 613 433 743 647 810 c 2
 658 814 l 1
 683 782 l 1
584 734 m 1
 420 664 320 559 326 425 c 0
 332 273 415 146 582 70 c 1
 480 202 439 349 437 422 c 0
 435 502 507 626 584 734 c 1
EndSplineSet
EndChar

StartChar: lt_ZW
Encoding: 285 -1 54
Width: 999
VWidth: 0
Flags: HW
HStem: 132 50<169 844> 602 50<170 846> 802 20G<480 505>
VStem: 588 49<244 506>
LayerCount: 2
Fore
SplineSet
772 738 m 5
 792 724 l 5
 778 704 l 6
 684 574 632 503 637 358 c 4
 642 218 708 154 802 28 c 6
 817 8 l 5
 797 -8 l 5
 778 -22 l 5
 762 -2 l 6
 670 120 593 197 588 355 c 4
 583 516 643 605 737 733 c 6
 752 754 l 5
 772 738 l 5
542 -2 m 1
 522 -37 l 1
 502 -2 l 1
 104 614 l 1
 79 653 l 1
 125 653 l 1
 890 654 l 1
 934 654 l 1
 912 616 l 1
 542 -2 l 1
521 58 m 1
 846 604 l 1
 170 602 l 1
 521 58 l 1
472 787 m 1
 492 822 l 1
 514 788 l 1
 911 170 l 1
 936 132 l 1
 890 132 l 1
 125 131 l 1
 82 131 l 1
 103 169 l 1
 472 787 l 1
494 727 m 1
 169 181 l 1
 844 182 l 1
 494 727 l 1
EndSplineSet
EndChar

StartChar: lt_ZX
Encoding: 286 -1 55
Width: 999
VWidth: 0
Flags: HW
HStem: 752 20G<838 862>
VStem: 150 50<652 712> 319 50<118 355> 388 40<434 528> 812 50<252 770> 822 50<14 534>
LayerCount: 2
Fore
SplineSet
478 607 m 5xf0
 486 601 l 5
 494 595 l 5
 488 587 l 5
 482 578 l 6
 462 552 449 533 439 511 c 4
 431 492 427 472 428 446 c 4
 428 434 430 423 432 413 c 4
 442 381 463 358 492 320 c 6
 498 312 l 5
 504 304 l 5
 496 298 l 5
 488 292 l 5
 480 286 l 5
 472 280 l 5
 466 288 l 5
 460 296 l 6
 435 330 411 356 398 392 c 4
 392 408 389 425 388 445 c 4
 387 477 392 503 402 526 c 4
 413 552 430 574 450 602 c 6
 456 611 l 5
 462 618 l 5
 470 612 l 5
 478 607 l 5xf0
838 770 m 1
 862 772 l 1
 862 746 l 1xf8
 872 40 l 1
 872 14 l 1
 848 14 l 1
 822 14 l 1
 822 40 l 1xf4
 812 746 l 1
 812 770 l 1xf8
 838 770 l 1
344 118 m 1
 319 118 l 1
 320 142 l 2
 322 216 289 282 330 368 c 0
 398 514 563 496 538 598 c 0
 512 702 392 694 254 719 c 0
 250 720 245 720 239 719 c 0
 213 714 198 694 200 677 c 2
 204 652 l 1
 179 648 l 1
 155 643 l 1
 150 668 l 2
 140 722 187 760 230 768 c 0
 241 770 251 770 263 768 c 0
 381 746 549 758 586 610 c 0
 621 468 414 430 376 348 c 0
 345 282 372 236 370 142 c 2
 370 116 l 1
 344 118 l 1
344 82 m 0
 346 59 360 49 368 50 c 0
 382 51 394 64 392 82 c 0
 390 104 376 118 358 116 c 0
 352 116 342 106 344 82 c 0
294 74 m 0
 290 106 300 164 352 166 c 0
 400 170 437 131 442 89 c 0
 448 47 418 2 371 0 c 0
 323 -2 299 40 294 74 c 0
EndSplineSet
EndChar

StartChar: lt_ZY
Encoding: 287 -1 56
Width: 999
VWidth: 0
Flags: HW
HStem: -2 50<412 608> 634 50<436 586> 787 20G<491 523>
VStem: 192 50<228 442> 624 50<250 512> 797 50<234 450>
LayerCount: 2
Fore
SplineSet
809 745 m 5
 829 730 l 5
 814 710 l 6
 720 580 669 507 674 362 c 4
 679 222 745 160 839 34 c 6
 854 13 l 5
 834 -2 l 5
 814 -17 l 5
 799 2 l 6
 707 124 629 203 624 361 c 4
 619 522 680 611 774 739 c 6
 788 758 l 5
 809 745 l 5
312 574 m 1
 296 592 l 1
 314 610 l 1
 491 792 l 1
 506 806 l 1
 523 793 l 1
 712 613 l 1
 732 598 l 1
 718 578 l 1
 701 559 l 1
 682 574 l 1
 509 742 l 1
 348 574 l 1
 330 556 l 1
 312 574 l 1
508 634 m 0
 363 636 246 492 242 338 c 0
 240 192 357 49 499 47 c 0
 662 45 792 172 797 336 c 0
 802 498 671 632 508 634 c 0
508 683 m 0
 698 681 852 526 847 334 c 0
 842 144 689 -4 498 -2 c 0
 323 0 188 168 192 338 c 0
 196 511 327 685 508 683 c 0
EndSplineSet
EndChar

StartChar: ltd09
Encoding: 288 -1 57
Width: 999
VWidth: 0
Flags: HW
HStem: 638 166
VStem: 431 148
LayerCount: 2
Fore
SplineSet
481 720 m 4
 483 697 496 687 504 688 c 4
 518 689 531 703 529 721 c 4
 527 743 511 756 493 754 c 4
 487 754 479 744 481 720 c 4
431 712 m 4
 427 744 438 802 490 804 c 4
 538 808 573 770 578 728 c 4
 584 686 555 640 508 638 c 4
 460 636 436 678 431 712 c 4
EndSplineSet
EndChar

StartChar: lt_WA
Encoding: 289 -1 58
Width: 999
VWidth: 0
Flags: HW
HStem: -74 50<293.514 373.931 634.559 737.656> 80 101<478 561> 132 50<190 509 515 821> 559 103<450 533> 559 51<190 494 502 822> 772 50<277.896 372.889 640.038 712.466>
LayerCount: 2
Fore
SplineSet
482 629 m 1xa4
 502 654 l 1
 520 630 l 1
 892 172 l 1
 926 131 l 1
 874 131 l 1
 137 132 l 1
 85 132 l 1
 118 172 l 1
 482 629 l 1xa4
502 574 m 1
 190 182 l 1xa4
 821 181 l 1xc4
 502 574 l 1
168 616 m 1
 146 628 l 1
 158 650 l 2
 196 716 236 812 342 810 c 0
 464 808 450 651 497 650 c 0
 533 649 567 809 661 805 c 0
 756 800 801 716 850 650 c 2x94
 864 630 l 1
 844 616 l 1
 824 601 l 1
 809 622 l 2
 754 696 721 753 659 755 c 0
 629 757 592 599 494 601 c 0
 379 603 403 758 341 760 c 0
 274 762 249 702 202 624 c 2
 190 602 l 1
 168 616 l 1
529 98 m 1
 510 74 l 1
 490 98 l 1
 118 556 l 1
 85 598 l 1
 138 598 l 1x8c
 874 596 l 1
 926 596 l 1
 893 556 l 1
 529 98 l 1
509 154 m 1
 822 546 l 1
 190 547 l 1
 509 154 l 1
842 115 m 1
 864 102 l 1
 851 82 l 2
 813 16 776 -81 670 -79 c 0
 548 -77 561 79 514 80 c 0
 478 81 443 -78 349 -74 c 0
 254 -69 211 14 162 80 c 2xc4
 146 100 l 1
 167 115 l 1
 187 130 l 1
 202 110 l 2
 257 36 290 -22 352 -24 c 0
 382 -26 417 132 515 130 c 0
 630 128 608 -27 670 -29 c 0
 737 -31 761 29 808 107 c 2
 821 128 l 1
 842 115 l 1
EndSplineSet
EndChar

StartChar: lt_WB
Encoding: 290 -1 59
Width: 999
VWidth: 0
Flags: W
HStem: -12 50<297.502 588.13>
VStem: 130 49<181.42 581.115> 379 51<447.296 527> 563 50<228 315.609> 828 50<201.44 616.953>
LayerCount: 2
Fore
SplineSet
404 527 m 1
 430 527 l 1
 430 480 449 437 475 436 c 0
 501 435 512 551 550 557 c 0
 588 562 578 522 578 522 c 1
 553 456 548 415 523 377 c 1
 595 361 617 300 613 226 c 1
 588 227 l 1
 563 228 l 1
 567 296 549 320 511 328 c 2
 509 328 474 260 440 232 c 0
 433 227 400 232 398 258 c 0
 393 296 447 341 455 358 c 0
 460 368 464 376 470 386 c 1
 396 393 379 481 379 527 c 1
 404 527 l 1
251 642 m 2
 230 656 l 1
 248 638 l 1
 160 547 178 509 179 397 c 0
 180 287 167 192 256 102 c 0
 274 84 314 36 344 38 c 0
 526 46 641 26 761 148 c 0
 849 239 829 277 828 389 c 0
 827 501 846 599 754 682 c 0
 690 740 584 742 492 734 c 0
 404 726 335 708 313 696 c 0
 271 672 252 643 251 642 c 2
244 647 m 2
 239 649 233 655 226 660 c 2
 230 656 l 1
 244 647 l 2
210 672 m 0
 217 682 240 713 288 739 c 0
 324 759 396 776 488 784 c 0
 582 792 705 793 787 719 c 0
 900 617 877 491 878 389 c 0
 879 287 897 215 796 112 c 0
 658 -30 519 -4 347 -12 c 0
 280 -14 229 60 221 68 c 0
 115 175 131 294 130 396 c 0
 129 498 110 568 210 672 c 0
EndSplineSet
EndChar

StartChar: lt_WC
Encoding: 291 -1 60
Width: 1004
VWidth: 0
Flags: HW
HStem: 124 50<179 827> 612 50<179 484 515 827>
LayerCount: 2
Fore
SplineSet
488 720 m 0
 490 697 504 687 512 688 c 0
 526 689 538 703 536 721 c 0
 534 743 518 756 500 754 c 0
 494 754 486 744 488 720 c 0
438 712 m 0
 434 744 444 802 496 804 c 0
 544 808 581 770 586 728 c 0
 592 686 562 640 515 638 c 0
 467 636 443 678 438 712 c 0
484 640 m 1
 505 674 l 1
 526 640 l 1
 893 162 l 1
 918 122 l 1
 872 122 l 1
 134 124 l 1
 88 124 l 1
 112 162 l 1
 484 640 l 1
505 580 m 1
 179 174 l 1
 827 173 l 1
 505 580 l 1
518 67 m 0
 516 90 502 99 494 98 c 0
 480 97 467 83 469 65 c 0
 471 43 488 30 506 32 c 0
 512 32 520 43 518 67 c 0
568 73 m 0
 572 41 562 -16 510 -18 c 0
 462 -22 425 16 420 58 c 0
 414 100 444 146 491 148 c 0
 539 150 563 107 568 73 c 0
522 146 m 1
 502 112 l 1
 480 146 l 1
 112 625 l 1
 88 662 l 1
 134 662 l 1
 872 662 l 1
 918 662 l 1
 892 623 l 1
 522 146 l 1
502 206 m 1
 827 612 l 1
 179 612 l 1
 502 206 l 1
EndSplineSet
EndChar

StartChar: lt_WD
Encoding: 292 -1 61
Width: 999
VWidth: 0
Flags: HW
HStem: 774 20G<125 160 250 284 722 757 846 881>
LayerCount: 2
Fore
SplineSet
757 778 m 1
 776 762 l 1
 760 743 l 1
 160 4 l 1
 145 -14 l 1
 125 1 l 1
 106 17 l 1
 122 36 l 1
 722 775 l 1
 738 794 l 1
 757 778 l 1
125 778 m 1
 145 794 l 1
 160 775 l 1
 760 36 l 1
 776 17 l 1
 757 1 l 1
 738 -14 l 1
 722 4 l 1
 122 743 l 1
 106 762 l 1
 125 778 l 1
881 778 m 1
 900 762 l 1
 884 743 l 1
 284 4 l 1
 268 -14 l 1
 250 1 l 1
 230 17 l 1
 246 36 l 1
 846 775 l 1
 862 794 l 1
 881 778 l 1
250 778 m 1
 268 794 l 1
 284 775 l 1
 884 36 l 1
 900 17 l 1
 881 1 l 1
 862 -14 l 1
 846 4 l 1
 246 743 l 1
 230 762 l 1
 250 778 l 1
EndSplineSet
EndChar

StartChar: lt_WE
Encoding: 293 -1 62
Width: 999
VWidth: 0
Flags: HW
HStem: -18 50<108 176 226 292 476 646> 730 42<696 838> 731 50<654 721 770 814>
VStem: 176 50<-8 214> 410 48<638 708> 482 48<53 112> 721 50<550 772>
LayerCount: 2
Fore
SplineSet
581 192 m 1x9e
 583 186 l 1
 578 182 l 2
 577 177 577 174 575 170 c 0
 563 133 546 105 536 67 c 2
 530 42 l 1
 506 49 l 1
 482 55 l 1
 488 79 l 2
 496 107 506 129 514 149 c 1
 486 135 441 113 407 154 c 0
 358 216 436 276 472 299 c 0
 482 305 490 308 500 310 c 0
 532 314 576 297 582 254 c 0
 584 231 585 211 581 192 c 1x9e
534 218 m 0
 535 228 535 237 533 248 c 0
 532 252 522 262 506 260 c 0
 504 259 500 258 498 257 c 0
 452 228 435 198 446 185 c 0
 456 173 469 183 523 212 c 0
 525 214 532 216 534 218 c 0
187 412 m 1
 185 290 221 177 226 17 c 1
 225 17 226 16 226 17 c 1
 227 -8 l 1
 202 -10 l 1
 178 -10 l 1
 176 14 l 2
 171 176 130 292 138 438 c 0
 140 480 146 525 158 574 c 0
 187 684 268 803 398 781 c 0xbe
 414 779 430 774 448 769 c 0
 570 735 756 646 716 498 c 0
 661 295 353 396 187 412 c 1
190 462 m 1
 390 443 630 368 668 511 c 0
 693 605 564 686 434 721 c 0
 418 725 404 730 390 732 c 0
 302 748 236 665 208 562 c 0
 198 527 192 494 190 462 c 1
108 10 m 1
 108 35 l 1
 133 35 l 1
 268 34 l 1
 293 32 l 1
 293 8 l 1
 292 -18 l 1
 268 -17 l 1
 132 -14 l 1
 108 -14 l 1
 108 10 l 1
367 572 m 1
 362 578 l 1
 368 580 l 2
 369 585 370 589 372 593 c 0
 384 630 400 659 410 697 c 2
 418 721 l 1
 442 714 l 1
 466 708 l 1
 458 684 l 2
 450 656 441 634 433 614 c 1
 461 628 506 651 540 610 c 0
 589 548 511 487 475 464 c 0
 465 458 456 456 446 454 c 0
 414 450 370 466 364 509 c 0
 362 532 363 553 367 572 c 1
412 545 m 0
 411 535 411 527 413 516 c 0
 414 512 424 501 440 503 c 0
 442 504 446 505 448 506 c 0
 494 535 513 565 502 578 c 0
 492 590 476 580 422 551 c 0
 420 549 414 547 412 545 c 0
760 352 m 1
 762 474 726 586 721 746 c 1
 722 746 721 747 721 746 c 1
 720 772 l 1
 745 772 l 1xde
 770 773 l 1
 770 748 l 2
 775 586 817 471 809 325 c 0
 807 283 800 239 788 190 c 0
 759 80 678 -40 548 -18 c 0
 532 -16 516 -11 498 -6 c 0
 376 28 190 118 230 266 c 0
 285 469 594 368 760 352 c 1
758 302 m 1
 558 321 316 395 278 252 c 0
 253 158 382 77 512 42 c 0
 528 38 544 34 558 32 c 0
 646 16 711 99 739 202 c 0
 749 237 756 270 758 302 c 1
839 752 m 1
 838 728 l 1
 814 728 l 1
 678 730 l 1xde
 653 731 l 1
 654 756 l 1
 654 781 l 1xbe
 679 780 l 1
 814 778 l 1
 839 778 l 1
 839 752 l 1
EndSplineSet
EndChar

StartChar: lt_WF
Encoding: 294 -1 63
Width: 999
VWidth: 0
Flags: HW
HStem: 22 22G<134 170> 762 20G<479 515 762 788>
VStem: 474 50<18 26 42 746> 762 50<601 781>
LayerCount: 2
Fore
SplineSet
522 -29 m 1
 503 -49 l 1
 485 -28 l 1
 292 194 l 1
 312 211 l 1
 331 228 l 1
 505 26 l 1
 701 232 l 1
 719 214 l 1
 738 198 l 1
 522 -29 l 1
910 662 m 1
 932 654 l 1
 925 630 l 2
 885 509 864 439 763 348 c 0
 651 248 513 351 427 293 c 0
 306 214 265 155 170 40 c 2
 154 22 l 1
 134 37 l 1
 116 52 l 1
 132 72 l 2
 226 184 271 252 398 335 c 0
 528 420 650 313 730 385 c 0
 822 468 838 524 878 646 c 2
 886 670 l 1
 910 662 l 1
788 781 m 1
 812 781 l 1
 812 756 l 2
 810 634 799 550 696 458 c 0
 584 358 444 464 358 406 c 0
 237 327 197 267 102 152 c 2
 86 132 l 1
 68 148 l 1
 48 166 l 1
 62 184 l 2
 156 296 205 363 332 446 c 0
 462 531 582 425 662 497 c 0
 753 579 760 636 762 757 c 2
 762 782 l 1
 788 781 l 1
479 766 m 1
 498 785 l 1
 516 764 l 1
 708 542 l 1
 689 526 l 1
 670 508 l 1
 496 710 l 1
 300 505 l 1
 282 522 l 1
 263 539 l 1
 479 766 l 1
494 746 m 1
 520 746 l 1
 520 739 l 1
 524 42 l 1
 524 18 l 1
 499 17 l 1
 474 17 l 1
 474 42 l 1
 470 739 l 1
 470 746 l 1
 494 746 l 1
EndSplineSet
EndChar

StartChar: lt_WG
Encoding: 295 -1 64
Width: 999
VWidth: 0
Flags: HW
HStem: 374 60<431 517>
VStem: 178 50<98 119>
LayerCount: 2
Fore
SplineSet
440 502 m 0
 442 506 443 509 445 511 c 0
 467 549 484 595 492 674 c 0
 494 687 491 698 486 708 c 0
 458 760 328 778 248 738 c 1
 256 719 l 2
 290 634 312 545 348 486 c 1
 372 488 396 492 422 498 c 0
 428 499 434 500 440 502 c 0
509 307 m 0
 507 303 505 300 503 298 c 0
 481 260 465 213 457 134 c 0
 455 121 458 110 463 100 c 0
 491 48 620 31 700 71 c 1
 694 89 l 2
 660 174 637 264 601 323 c 1
 577 321 552 316 526 310 c 0
 520 309 515 309 509 307 c 0
655 326 m 1
 693 256 715 170 739 108 c 2
 742 100 l 1
 764 118 781 140 794 163 c 0
 831 225 828 274 798 292 c 0
 756 317 708 327 655 326 c 1
298 248 m 1
 258 188 238 118 228 98 c 2
 228 98 208 88 194 88 c 0
 186 88 178 92 178 102 c 0
 178 120 180 117 182 119 c 0
 184 121 186 127 188 132 c 0
 204 170 222 203 238 232 c 1
 216 226 191 220 168 215 c 2
 146 211 l 1
 143 210 l 1
 142 212 l 1
 138 234 l 1
 132 257 l 1
 132 258 l 1
 134 259 l 1
 157 264 l 2
 195 272 234 282 272 293 c 1
 280 306 290 319 298 331 c 0
 320 359 340 381 358 403 c 1
 346 411 336 421 326 433 c 1
 254 428 186 436 125 472 c 0
 55 514 72 605 110 671 c 0
 136 714 174 755 221 780 c 0
 313 829 480 826 530 732 c 0
 540 714 544 692 542 670 c 0
 536 606 524 556 506 518 c 1
 554 530 602 548 652 562 c 1
 692 622 710 690 720 710 c 2
 720 712 l 1
 722 712 l 2
 722 712 740 720 754 720 c 0
 762 720 770 718 770 708 c 0
 770 690 768 692 766 690 c 0
 764 688 762 683 760 678 c 0
 744 640 728 606 712 577 c 1
 734 583 758 588 781 593 c 2
 803 598 l 1
 806 599 l 1
 806 598 l 1
 811 574 l 1
 816 552 l 1
 817 550 l 1
 814 550 l 1
 792 545 l 2
 754 537 714 526 676 515 c 1
 668 502 658 490 650 478 c 0
 628 450 608 428 590 406 c 1
 602 398 612 388 622 376 c 1
 694 381 762 372 823 336 c 0
 893 294 876 204 838 138 c 0
 812 95 775 53 728 28 c 0
 636 -21 469 -17 419 77 c 0
 409 95 406 116 408 138 c 0
 414 202 425 252 443 290 c 1
 395 278 348 262 298 248 c 1
563 368 m 1
 562 369 561 370 560 371 c 0
 559 369 558 369 557 368 c 1
 559 368 561 368 563 368 c 1
595 492 m 1
 557 481 519 471 482 461 c 0
 478 460 463 454 461 452 c 0
 456 445 432 432 430 428 c 2
 476 433 l 0
 489 435 502 435 514 434 c 1
 540 447 569 467 595 492 c 1
388 438 m 0
 389 440 391 441 392 442 c 1
 390 442 387 442 385 442 c 1
 386 441 387 439 388 438 c 0
206 709 m 1
 184 691 167 669 154 646 c 0
 117 584 120 534 150 516 c 0
 192 491 240 481 293 482 c 1
 255 552 233 640 209 702 c 2
 206 709 l 1
434 374 m 1
 408 361 380 342 354 317 c 1
 392 328 429 338 466 348 c 0
 470 349 486 356 488 358 c 0
 493 365 516 378 518 382 c 2
 472 376 l 0
 459 374 446 373 434 374 c 1
EndSplineSet
EndChar

StartChar: lt_WH
Encoding: 296 -1 65
Width: 999
VWidth: 0
Flags: HW
HStem: 760 20G<758 790>
LayerCount: 2
Fore
SplineSet
791 758 m 1
 802 736 l 1
 780 724 l 2
 632 650 500 585 520 503 c 0
 536 437 805 497 817 359 c 0
 831 197 676 127 548 42 c 2
 528 29 l 1
 514 50 l 1
 500 71 l 1
 521 84 l 2
 661 178 778 234 767 355 c 0
 759 438 506 340 470 492 c 0
 438 630 630 704 758 769 c 2
 780 780 l 1
 791 758 l 1
491 716 m 1
 502 694 l 1
 480 682 l 2
 332 608 200 543 220 461 c 0
 236 395 505 455 517 317 c 0
 531 155 376 86 248 1 c 1
 249 1 249 2 248 1 c 1
 228 -13 l 1
 214 8 l 1
 200 28 l 1
 221 42 l 2
 361 136 478 191 467 312 c 0
 459 395 208 297 172 449 c 0
 140 587 330 662 458 727 c 2
 480 738 l 1
 491 716 l 1
114 751 m 1
 137 762 l 1
 148 740 l 2
 222 592 288 460 370 480 c 0
 436 496 376 766 514 778 c 0
 676 792 745 636 830 508 c 2
 842 488 l 1
 822 473 l 1
 802 460 l 1
 788 481 l 2
 694 621 639 738 518 727 c 0
 435 719 534 467 382 431 c 0
 244 399 168 590 103 718 c 2
 92 740 l 1
 114 751 l 1
157 451 m 1
 179 462 l 1
 190 440 l 2
 264 292 330 160 412 180 c 0
 478 196 418 466 556 478 c 0
 718 492 787 336 872 208 c 1
 872 209 871 209 872 208 c 1
 886 188 l 1
 865 173 l 1
 844 160 l 1
 830 181 l 2
 736 321 681 438 560 427 c 0
 477 419 574 168 422 132 c 0
 284 100 211 290 146 418 c 2
 134 440 l 1
 157 451 l 1
EndSplineSet
EndChar

StartChar: lt_WI
Encoding: 297 -1 66
Width: 999
VWidth: 0
Flags: HW
VStem: 850 50<473 618>
LayerCount: 2
Fore
SplineSet
101 184 m 1
 84 228 84 276 122 318 c 0
 290 500 485 568 726 497 c 0
 793 477 841 443 870 400 c 0
 936 302 895 175 797 80 c 1
 779 62 782 68 766 56 c 1
 651 -38 568 -18 482 68 c 0
 447 103 420 148 408 200 c 0
 365 382 430 653 588 763 c 0
 634 795 682 796 728 778 c 1
 782 756 902 630 900 558 c 1
 898 490 870 427 823 380 c 0
 788 345 744 320 692 308 c 0
 510 265 238 328 128 486 c 0
 114 508 104 530 102 552 c 1
 94 634 240 771 278 788 c 1
 325 808 375 809 419 768 c 0
 601 600 669 407 598 166 c 0
 578 99 545 51 502 22 c 0
 452 -12 394 -18 336 -2 c 1
 262 20 117 142 101 184 c 1
349 47 m 1
 395 35 439 39 474 62 c 0
 506 84 532 122 550 180 c 0
 616 403 557 574 385 732 c 0
 359 756 325 756 289 738 c 1
 263 726 143 606 155 548 c 1
 157 536 161 525 169 515 c 0
 263 381 514 318 680 356 c 0
 723 366 760 388 788 416 c 0
 826 454 850 506 850 562 c 1
 850 620 749 718 707 732 c 1
 675 743 643 740 617 722 c 0
 483 628 420 378 458 212 c 0
 468 169 490 131 518 103 c 0
 586 35 637 22 731 98 c 1
 745 110 746 102 762 116 c 1
 850 200 874 304 828 372 c 0
 806 404 770 430 712 448 c 0
 489 514 318 455 160 283 c 0
 142 264 138 242 143 217 c 1
 151 183 288 63 349 47 c 1
EndSplineSet
EndChar

StartChar: lt_WK
Encoding: 298 -1 67
Width: 999
VWidth: 0
Flags: HW
HStem: 26 50<611 829> 714 49<149 365> 719 50<149 368> 782 20G<839 913>
VStem: 170 43<260 278>
LayerCount: 2
Fore
SplineSet
679 316 m 1x98
 698 352 l 1
 722 318 l 1
 898 72 l 1
 925 34 l 1
 878 34 l 1
 569 26 l 1
 528 26 l 1
 547 62 l 1
 679 316 l 1x98
704 257 m 1
 611 78 l 1
 829 82 l 1
 704 257 l 1
563 434 m 1
 242 120 l 1
 368 151 l 1
 380 102 l 1
 349 94 l 1
 106 32 l 1
 170 288 l 1
 194 283 l 1
 218 278 l 1
 214 253 l 1
 188 134 l 1
 532 473 l 1
 781 716 l 1
 658 684 l 1
 644 732 l 1
 676 742 l 1
 918 802 l 1
 853 547 l 1
 829 552 l 1
 805 558 l 1
 810 582 l 1
 838 700 l 1
 563 434 l 1
300 481 m 1
 281 445 l 1
 258 478 l 1
 82 724 l 1
 53 762 l 1
 101 763 l 1xd8
 409 770 l 1xb8
 452 770 l 1
 432 733 l 1
 300 481 l 1
274 540 m 1
 368 719 l 1xb8
 149 714 l 1
 274 540 l 1
EndSplineSet
EndChar

StartChar: lt_WL
Encoding: 299 -1 68
Width: 999
VWidth: 0
Flags: HW
HStem: -5 50<618 770> 754 50<220 372>
VStem: 366 50<184 386 442 715> 574 50<83 358 412 614>
LayerCount: 2
Fore
SplineSet
416 397 m 1
 415 313 418 230 432 136 c 0
 444 62 539 48 654 46 c 0
 750 44 772 63 854 128 c 2
 875 143 l 1
 890 122 l 1
 906 104 l 1
 887 88 l 2
 805 23 761 -7 653 -5 c 0
 550 -3 401 3 382 128 c 0
 368 220 365 304 366 386 c 1
 71 542 l 1
 34 563 l 1
 70 586 l 1
 382 780 l 1
 419 803 l 1
 421 760 l 2
 425 628 420 519 418 415 c 1
 416 409 l 1
 416 397 l 1
367 442 m 1
 369 528 374 613 372 715 c 1
 133 566 l 1
 367 442 l 1
574 402 m 1
 575 486 572 568 558 662 c 0
 546 736 451 752 336 754 c 0
 240 756 216 736 134 671 c 2
 115 655 l 1
 100 674 l 1
 84 694 l 1
 103 709 l 2
 185 774 229 805 337 803 c 0
 440 801 589 795 608 670 c 0
 622 578 625 494 624 412 c 1
 919 254 l 1
 958 235 l 1
 920 212 l 1
 608 18 l 1
 571 -5 l 1
 569 38 l 2
 565 170 572 278 574 382 c 1
 574 389 l 1
 574 402 l 1
623 358 m 1
 621 272 616 185 618 83 c 1
 857 232 l 1
 623 358 l 1
EndSplineSet
EndChar

StartChar: lt_WM
Encoding: 300 -1 69
Width: 999
VWidth: 0
Flags: HW
HStem: 10 50<238 763> 214 50<544 779> 502 50<199 418> 742 50<239 766>
VStem: 190 50<60 503 553 742> 198 41<503 552> 763 50<64 212 262 745> 763 18<212 262>
LayerCount: 2
Fore
SplineSet
198 528 m 1xf5
 198 552 l 1
 222 553 l 2
 319 555 430 564 510 472 c 0
 516 465 520 456 522 446 c 0
 532 388 440 339 430 326 c 1
 530 252 595 273 758 263 c 2
 782 262 l 1
 781 238 l 1
 779 212 l 1
 754 214 l 2
 602 224 516 199 398 288 c 0
 388 296 380 306 378 319 c 0
 376 336 385 348 392 358 c 0
 420 394 468 425 472 438 c 0
 410 510 326 505 224 503 c 2
 199 502 l 1
 198 528 l 1xf5
190 766 m 1xfa
 190 778 l 1
 190 791 l 2
 214 791 l 1
 226 791 l 1
 790 794 l 1
 815 794 l 1
 815 770 l 1
 814 38 l 1
 815 38 814 37 814 38 c 1
 814 28 l 1
 814 14 l 2
 788 14 l 1
 778 14 l 1
 212 10 l 1
 187 10 l 1
 187 35 l 1
 190 766 l 1xfa
190 766 m 1
 189 766 190 767 190 766 c 1
239 742 m 1
 238 60 l 1
 763 64 l 1
 766 745 l 1
 239 742 l 1
EndSplineSet
EndChar

StartChar: lt_WN
Encoding: 301 -1 70
Width: 1002
VWidth: 0
Flags: HW
HStem: 22 50<308 848> 728 52<140 238 275 680>
VStem: 58 50<408 688> 71 47<139 408> 869 48<361 662> 878 50<113 482>
LayerCount: 2
Fore
SplineSet
848 73 m 1xc0
 582 358 l 1
 308 68 l 1
 848 73 l 1xc0
869 662 m 1xc8
 616 395 l 1
 878 113 l 1xc4
 869 662 l 1xc8
582 430 m 1
 917 786 l 1xc8
 929 58 l 1
 931 22 l 1
 905 22 l 1
 881 22 l 1
 191 16 l 1
 548 394 l 1
 238 725 l 1
 275 758 l 1
 582 430 l 1
140 728 m 1
 406 443 l 1
 680 733 l 1
 140 728 l 1
118 139 m 1xd0
 372 407 l 1
 109 688 l 1xe0
 118 139 l 1xd0
406 372 m 1
 71 16 l 1xd0
 58 745 l 1
 58 779 l 1
 82 779 l 1
 107 780 l 1
 797 786 l 1
 440 408 l 1
 749 77 l 1
 712 42 l 1
 406 372 l 1
EndSplineSet
EndChar

StartChar: lt_WO
Encoding: 302 -1 71
Width: 999
VWidth: 0
Flags: HW
HStem: 814 20G<188 220 494 510 776 808>
LayerCount: 2
Fore
SplineSet
469 394 m 4
 471 371 484 361 492 362 c 4
 506 363 520 378 518 396 c 4
 516 418 499 432 481 430 c 4
 475 430 467 418 469 394 c 4
419 388 m 4
 415 420 426 476 478 478 c 4
 526 482 561 444 566 402 c 4
 572 360 543 314 496 312 c 4
 448 310 424 354 419 388 c 4
188 -1 m 1
 166 8 l 1
 175 32 l 1
 479 778 l 1
 502 834 l 1
 526 776 l 1
 822 28 l 1
 830 4 l 1
 808 -5 l 1
 784 -14 l 1
 775 10 l 1
 502 700 l 1
 221 12 l 1
 212 -11 l 1
 188 -1 l 1
808 821 m 1
 830 812 l 1
 821 788 l 1
 517 43 l 1
 493 -14 l 1
 470 43 l 1
 175 792 l 1
 166 816 l 1
 188 826 l 1
 212 834 l 1
 221 811 l 1
 494 120 l 1
 775 808 l 1
 784 830 l 1
 808 821 l 1
EndSplineSet
EndChar

StartChar: lt_WP
Encoding: 303 -1 72
Width: 999
VWidth: 0
Flags: HW
VStem: 118 50<103 228> 818 50<548 672>
LayerCount: 2
Fore
SplineSet
94 422 m 1
 97 448 l 1
 121 446 l 1
 850 395 l 1
 874 392 l 1
 872 368 l 1
 870 342 l 1
 845 346 l 1
 118 396 l 1
 92 398 l 1
 94 422 l 1
119 637 m 1
 102 655 l 1
 120 672 l 1
 119 671 121 672 120 672 c 1
 200 750 302 803 430 780 c 0
 466 773 504 759 540 739 c 0
 607 702 680 631 636 552 c 0
 578 450 476 430 388 368 c 0
 272 286 161 262 166 154 c 0
 166 152 167 148 167 146 c 0
 177 74 286 35 384 47 c 0
 485 59 550 136 612 228 c 2
 625 248 l 1
 646 235 l 1
 667 221 l 1
 652 200 l 2
 590 108 515 14 390 -2 c 0
 288 -14 132 18 118 140 c 0
 117 142 116 149 116 151 c 0
 108 301 262 342 358 409 c 0
 460 480 546 496 592 578 c 0
 612 615 583 658 516 695 c 0
 485 713 450 725 421 730 c 0
 314 750 228 707 154 636 c 2
 137 618 l 1
 119 637 l 1
864 140 m 1
 882 122 l 1
 863 106 l 1
 864 107 862 106 863 106 c 1
 783 28 682 -25 554 -2 c 0
 518 5 479 18 443 38 c 0
 376 75 304 145 348 224 c 0
 406 326 508 346 596 408 c 0
 712 490 823 515 818 623 c 0
 818 625 817 628 817 630 c 0
 807 702 697 742 599 730 c 0
 498 718 434 642 372 550 c 2
 358 528 l 1
 338 542 l 1
 317 556 l 1
 331 577 l 2
 393 669 468 764 593 780 c 0
 695 792 852 759 866 637 c 0
 867 635 868 628 868 626 c 0
 876 476 721 435 625 368 c 0
 523 297 437 282 391 200 c 0
 371 163 401 119 468 82 c 0
 499 64 533 52 562 47 c 0
 669 27 755 71 829 142 c 2
 847 158 l 1
 864 140 l 1
EndSplineSet
EndChar

StartChar: lt_WQ
Encoding: 304 -1 73
Width: 999
VWidth: 0
Flags: HW
HStem: 788 20G<672 697 797 822>
VStem: 170 50<-16 532> 178 50<10 532> 320 50<-16 421> 647 50<370 806> 790 50<258 703> 796 50<332 806>
LayerCount: 2
Fore
SplineSet
570 282 m 1x9c
 575 306 l 1
 599 300 l 1
 790 258 l 1x9c
 796 782 l 1
 797 808 l 1
 822 806 l 1
 847 806 l 1
 846 782 l 1
 846 781 847 782 846 782 c 1x9a
 839 227 l 1
 838 196 l 1
 808 202 l 1
 588 252 l 1
 564 257 l 1
 570 282 l 1x9c
346 -16 m 1
 320 -17 l 1
 320 8 l 1
 314 448 l 1
 314 475 l 1
 342 472 l 1
 802 434 l 1
 826 432 l 1
 824 408 l 1
 822 383 l 1
 797 385 l 1
 365 421 l 1
 370 10 l 1
 370 -16 l 1
 346 -16 l 1
448 509 m 1
 442 485 l 1
 418 491 l 1
 228 532 l 1xb8
 221 8 l 1
 221 -17 l 1
 196 -16 l 1
 170 -16 l 1
 170 10 l 1
 170 11 169 10 170 10 c 1xd8
 178 564 l 1
 178 595 l 1xb8
 208 588 l 1
 428 539 l 1
 452 534 l 1
 448 509 l 1
672 806 m 1
 697 808 l 1
 697 782 l 1
 702 343 l 1
 702 316 l 1
 674 318 l 1
 216 356 l 1
 191 358 l 1
 193 383 l 1
 194 408 l 1
 220 406 l 1
 652 370 l 1
 647 782 l 1
 647 806 l 1
 672 806 l 1
EndSplineSet
EndChar

StartChar: lt_WR
Encoding: 305 -1 74
Width: 999
VWidth: 0
Flags: HW
HStem: 785 20G<348 377 460 492 584 614>
VStem: 79 50<170 270 565 659> 157 50<362 469> 758 50<341 455> 836 50<150 244 540 640>
LayerCount: 2
Fore
SplineSet
583 782 m 1
 592 805 l 1
 614 797 l 2
 720 759 885 726 887 578 c 0
 889 451 646 420 638 408 c 1
 648 389 886 334 886 202 c 0
 886 68 712 34 618 8 c 2
 594 1 l 1
 587 25 l 1
 580 49 l 1
 604 56 l 1
 714 88 836 120 836 202 c 0
 836 298 587 305 587 408 c 0
 587 517 840 488 838 577 c 0
 836 679 719 707 598 749 c 2
 575 758 l 1
 583 782 l 1
494 785 m 1
 506 763 l 1
 482 752 l 2
 328 673 204 581 206 418 c 0
 208 240 326 138 496 60 c 2
 518 49 l 1
 508 26 l 1
 498 4 l 1
 474 14 l 2
 298 96 159 215 157 418 c 0
 155 612 307 717 461 796 c 2
 482 808 l 1
 494 785 l 1
382 28 m 1
 373 4 l 1
 350 12 l 2
 244 50 80 84 78 232 c 0
 76 359 320 389 328 401 c 1
 318 420 79 475 79 607 c 0
 79 741 254 776 348 802 c 2
 371 808 l 1
 378 782 l 1
 385 758 l 1
 361 752 l 1
 251 720 130 689 130 607 c 0
 130 511 378 504 378 401 c 0
 378 292 126 321 128 232 c 0
 130 130 246 101 367 59 c 2
 390 50 l 1
 382 28 l 1
470 23 m 5
 458 46 l 5
 482 58 l 6
 636 137 760 229 758 392 c 4
 756 570 639 671 469 749 c 6
 446 758 l 5
 458 782 l 5
 468 805 l 5
 491 794 l 6
 667 712 806 595 808 392 c 4
 810 198 658 91 504 12 c 6
 482 1 l 5
 470 23 l 5
EndSplineSet
EndChar

StartChar: lt_WS
Encoding: 306 -1 75
Width: 999
VWidth: 0
Flags: HW
HStem: 290 50<86 353> 306 50<475 742> 448 50<312 619> 463 50<702 968> 792 34G<414 448 582 632>
VStem: 414 50<110 710> 422 50<-8 674> 582 50<143 824> 589 50<106 518>
LayerCount: 2
Fore
SplineSet
746 338 m 0x48
 748 315 762 305 770 306 c 0
 784 307 796 320 794 338 c 0
 792 360 776 374 758 372 c 0
 752 372 744 362 746 338 c 0x48
698 331 m 0
 692 393 703 415 755 422 c 0
 803 428 840 388 845 346 c 0
 851 304 820 258 773 256 c 0
 725 254 700 297 698 331 c 0
85 314 m 1
 84 340 l 1
 109 341 l 1
 108 341 109 340 109 341 c 1x88
 718 356 l 1
 742 358 l 1
 743 332 l 1
 743 307 l 1
 718 306 l 1x48
 110 290 l 1
 110 291 109 290 110 290 c 1x88
 86 290 l 1
 85 314 l 1
448 -8 m 1
 422 -8 l 1
 422 17 l 1x0a
 414 768 l 1
 414 812 l 1
 456 787 l 1
 743 593 l 1
 762 577 l 1
 745 558 l 1
 728 540 l 1
 710 557 l 1
 466 710 l 1x0c
 472 18 l 1
 472 -8 l 1x0a
 448 -8 l 1
308 468 m 0
 306 491 292 499 284 498 c 0x28
 270 497 257 484 259 466 c 0
 261 444 277 430 295 432 c 0
 301 432 310 444 308 468 c 0
358 474 m 0
 362 442 351 384 299 382 c 0
 251 378 214 416 209 458 c 0
 203 500 234 546 281 548 c 0
 329 550 353 508 358 474 c 0
970 490 m 1
 970 464 l 1
 946 463 l 1
 947 463 946 464 946 463 c 1x18
 337 448 l 1
 312 448 l 1
 311 473 l 1
 311 498 l 1
 336 498 l 1x28
 943 514 l 1
 943 513 944 514 943 514 c 1x18
 968 514 l 1
 970 490 l 1
607 826 m 1
 632 826 l 1
 632 800 l 1x09
 640 49 l 1
 642 0 l 1
 598 30 l 1
 326 204 l 1
 308 221 l 1
 324 239 l 1
 341 258 l 1
 359 241 l 1
 589 106 l 1x0880
 582 799 l 1
 582 824 l 1x09
 607 826 l 1
EndSplineSet
EndChar

StartChar: lt_WT
Encoding: 307 -1 76
Width: 999
VWidth: 0
Flags: HW
HStem: -10 50<480 538> 112 50<311 484 527 727> 131 26<484 502> 640 55<286 482 485 528 532 701> 760 50<473 532>
VStem: 478 50<132 695>
LayerCount: 2
Fore
SplineSet
786 220 m 1xdc
 808 208 l 1
 796 186 l 1
 764 125 l 1
 757 112 l 1
 742 112 l 1xdc
 299 108 l 1
 287 108 l 1
 278 118 l 1
 232 178 l 1
 218 198 l 1
 238 214 l 1
 258 228 l 1
 272 208 l 1
 311 158 l 1xbc
 727 162 l 1
 752 209 l 1
 763 232 l 1
 786 220 l 1xdc
508 88 m 1
 480 41 l 1
 538 42 l 1
 508 88 l 1
527 148 m 1
 607 32 l 1
 634 -7 l 1
 586 -8 l 1
 436 -10 l 1
 392 -10 l 1
 414 28 l 1
 484 146 l 1
 504 180 l 1
 527 148 l 1
502 131 m 1xbc
 478 132 l 1
 478 157 l 1
 481 670 l 1
 482 695 l 1
 506 695 l 1
 532 695 l 1
 530 670 l 1
 527 156 l 1
 527 131 l 1
 502 131 l 1xbc
227 582 m 1
 204 593 l 1
 216 616 l 1
 248 677 l 1
 254 690 l 1
 270 690 l 1
 712 694 l 1
 725 694 l 1
 733 684 l 1
 779 623 l 1
 794 602 l 1
 774 588 l 1
 754 574 l 1
 739 593 l 1
 701 644 l 1
 286 640 l 1
 260 592 l 1
 248 570 l 1
 227 582 l 1
504 714 m 1
 532 760 l 1
 473 760 l 1
 504 714 l 1
485 654 m 1
 406 770 l 1
 379 808 l 1
 426 809 l 1
 576 811 l 1
 620 812 l 1
 598 773 l 1
 528 655 l 1
 508 622 l 1
 485 654 l 1
EndSplineSet
EndChar

StartChar: lt_WU
Encoding: 308 -1 77
Width: 999
VWidth: 0
Flags: HW
HStem: -19 50<727 912> 17 50<335 761> 268 49<324 529> 466 50<463 666> 715 50<228 656> 754 49<82 241> 776 20G<742 786>
LayerCount: 2
Fore
SplineSet
79 778 m 1x34
 82 803 l 1x34
 107 802 l 2
 241 788 312 768 444 766 c 0
 558 764 623 781 742 791 c 2
 804 796 l 1
 762 749 l 2
 642 613 535 663 461 530 c 1
 516 522 575 517 643 515 c 0
 708 513 739 533 812 562 c 2
 835 572 l 1
 844 548 l 1
 853 526 l 1
 830 516 l 2
 763 490 720 464 641 466 c 0
 564 468 499 474 438 482 c 1
 386 361 433 290 444 142 c 2
 450 58 l 1
 389 121 l 1
 66 552 l 1
 30 600 l 1
 89 592 l 2
 216 574 310 554 408 538 c 1
 480 677 578 634 679 734 c 1
 602 724 538 713 443 715 c 0x3a
 306 717 233 737 102 751 c 2
 77 754 l 1
 79 778 l 1x34
386 491 m 1
 308 503 234 519 142 533 c 1
 392 196 l 1
 378 284 348 389 386 491 c 1
913 2 m 5
 911 -22 l 5
 886 -19 l 6xb0
 752 -5 680 15 548 17 c 4
 434 19 369 0 250 -10 c 6
 188 -14 l 5
 229 32 l 6
 349 168 458 119 532 252 c 5
 477 260 417 266 349 268 c 4
 284 270 254 249 181 220 c 6
 158 211 l 5
 148 234 l 5
 139 257 l 5
 162 266 l 6
 229 292 271 319 350 317 c 4
 427 315 493 307 554 299 c 5
 606 420 559 492 548 640 c 6
 542 724 l 5
 602 661 l 5
 926 230 l 5
 962 182 l 5
 902 190 l 6
 775 208 682 228 584 244 c 5
 512 105 413 148 312 48 c 5
 389 58 453 69 548 67 c 4x70
 685 65 759 45 890 31 c 6xb0
 916 28 l 5
 913 2 l 5
606 290 m 5
 684 278 758 262 850 248 c 5
 600 586 l 5
 614 498 644 392 606 290 c 5
EndSplineSet
EndChar

StartChar: lt_WV
Encoding: 309 -1 78
Width: 999
VWidth: 0
Flags: HW
HStem: -17 46<600 612> 793 20G<391 414 578 608>
VStem: 210 50<314 532> 370 50<320 503> 589 50<294 475> 749 50<265 482>
LayerCount: 2
Fore
SplineSet
617 782 m 1
 607 770 l 2
 513 650 418 489 420 424 c 0
 422 352 477 161 619 29 c 2
 626 22 l 1
 608 -17 l 1
 595 -13 l 2
 347 57 218 223 210 422 c 0
 202 613 364 743 578 810 c 2
 590 814 l 1
 617 782 l 1
517 734 m 1
 353 664 254 559 260 425 c 0
 266 273 348 146 515 70 c 1
 413 202 372 349 370 422 c 0
 368 502 440 626 517 734 c 1
392 14 m 1
 402 26 l 2
 496 146 591 307 589 372 c 0
 587 444 532 636 390 768 c 2
 382 775 l 1
 401 814 l 1
 414 810 l 2
 662 740 791 573 799 374 c 0
 807 183 644 54 430 -13 c 2
 418 -17 l 1
 392 14 l 1
492 62 m 1
 656 132 755 238 749 372 c 0
 743 524 661 652 494 728 c 1
 596 596 636 447 638 374 c 0
 640 294 569 170 492 62 c 1
EndSplineSet
EndChar

StartChar: lt_WX
Encoding: 310 -1 79
Width: 999
VWidth: 0
Flags: HW
HStem: 752 20G<902 929>
VStem: 85 50<308 756> 95 50<1 520> 358 50<118 355> 641 50<416 653> 806 49<56 120> 878 50<323 770> 889 50<14 534>
LayerCount: 2
Fore
SplineSet
902 770 m 1x9e
 928 772 l 1
 929 746 l 1x9e
 938 40 l 1
 938 14 l 1
 914 14 l 1
 889 14 l 1
 889 40 l 1x9d
 878 746 l 1
 878 770 l 1
 902 770 l 1x9e
383 118 m 1
 358 118 l 1
 359 142 l 2
 361 216 330 282 370 368 c 0
 438 514 551 485 526 587 c 0
 500 691 431 696 293 719 c 0
 289 720 284 720 278 719 c 0
 252 714 236 694 238 677 c 2
 242 652 l 1
 218 648 l 1
 194 643 l 1
 190 668 l 2
 180 722 226 760 269 768 c 0
 280 770 290 770 302 768 c 0
 420 746 537 747 574 599 c 0
 609 457 453 430 415 348 c 0
 384 282 411 236 409 142 c 2
 408 116 l 1
 383 118 l 1
383 82 m 0
 385 59 399 49 407 50 c 0
 421 51 434 64 432 82 c 0
 430 104 413 118 395 116 c 0
 389 116 381 106 383 82 c 0
334 74 m 0
 330 106 340 164 392 166 c 0
 440 170 476 131 481 89 c 0
 487 47 457 2 410 0 c 0
 362 -2 339 40 334 74 c 0
120 0 m 1
 95 0 l 1
 95 25 l 1xbc
 85 731 l 1
 84 756 l 1
 109 757 l 1
 134 757 l 1
 134 732 l 1xdc
 145 26 l 1
 145 1 l 1xbc
 120 0 l 1
667 654 m 1
 692 653 l 1
 691 628 l 2
 689 554 720 488 680 402 c 0
 612 256 493 280 518 178 c 0
 544 74 618 75 756 52 c 0
 760 51 766 51 772 52 c 0
 798 57 813 78 811 95 c 2
 806 119 l 1
 832 124 l 1
 856 128 l 1
 860 104 l 2
 870 50 824 10 781 2 c 0
 770 0 760 0 748 2 c 0
 630 24 506 18 469 166 c 0
 434 308 597 342 635 424 c 0
 666 490 639 536 641 630 c 2
 642 655 l 1
 667 654 l 1
667 690 m 0
 665 713 651 723 643 722 c 0
 629 721 616 706 618 688 c 0
 620 666 636 653 654 655 c 0
 660 655 669 666 667 690 c 0
716 697 m 0
 720 665 710 608 658 606 c 0
 610 602 573 640 568 682 c 0
 562 724 593 770 640 772 c 0
 688 774 711 731 716 697 c 0
EndSplineSet
EndChar

StartChar: lt_WY
Encoding: 311 -1 80
Width: 999
VWidth: 0
Flags: HW
HStem: 112 50<404 608> 634 50<436 586> 787 20G<491 523>
VStem: 192 50<296 494> 797 50<305 500>
LayerCount: 2
Fore
SplineSet
710 194 m 1
 728 176 l 1
 709 158 l 1
 532 -23 l 1
 517 -38 l 1
 499 -25 l 1
 310 155 l 1
 290 170 l 1
 307 190 l 1
 322 209 l 1
 342 194 l 1
 514 28 l 1
 674 194 l 1
 694 212 l 1
 710 194 l 1
312 574 m 1
 296 592 l 1
 314 610 l 1
 491 792 l 1
 506 806 l 1
 523 793 l 1
 712 613 l 1
 732 598 l 1
 718 578 l 1
 701 559 l 1
 682 574 l 1
 509 742 l 1
 348 574 l 1
 330 556 l 1
 312 574 l 1
508 634 m 0
 363 636 246 552 242 398 c 0
 240 252 357 164 499 162 c 0
 662 160 792 233 797 397 c 0
 802 559 671 632 508 634 c 0
508 683 m 0
 698 681 852 587 847 395 c 0
 842 205 689 110 498 112 c 0
 323 114 188 230 192 400 c 0
 196 573 327 685 508 683 c 0
EndSplineSet
EndChar

StartChar: lt_WZ
Encoding: 312 -1 81
Width: 999
VWidth: 0
Flags: HW
HStem: 22 22G<266 301> 754 46G<202 206 241 276 679 712 757 798>
VStem: 401 50<269 527> 528 50<269 526>
LayerCount: 2
Fore
SplineSet
712 758 m 1
 733 743 l 1
 718 722 l 2
 624 592 573 521 578 376 c 0
 583 236 649 173 743 47 c 2
 758 26 l 1
 738 12 l 1
 718 -2 l 1
 703 17 l 2
 611 139 533 216 528 374 c 0
 523 535 584 624 678 752 c 2
 692 773 l 1
 712 758 l 1
899 396 m 1
 184 2 l 1
 176 16 168 32 160 46 c 1
 372 164 586 280 798 398 c 1
 181 755 l 1
 189 769 198 784 206 798 c 1
 206 798 675 526 899 396 c 1
266 37 m 1
 246 52 l 1
 262 72 l 2
 356 202 406 274 401 419 c 0
 396 559 330 622 236 748 c 2
 221 768 l 1
 241 782 l 1
 262 798 l 1
 276 778 l 2
 368 656 446 579 451 421 c 0
 456 260 395 170 301 42 c 2
 287 22 l 1
 266 37 l 1
80 400 m 1
 794 793 l 1
 802 779 810 763 818 749 c 1
 606 631 394 515 182 397 c 1
 798 40 l 1
 790 26 780 12 772 -2 c 1
 772 -2 304 270 80 400 c 1
EndSplineSet
EndChar

StartChar: lt_DN
Encoding: 313 -1 82
Width: 999
VWidth: 999
Flags: HW
HStem: 22 50<226 766> 352 50<805 948> 389 50<53 234> 766 20G<816 835>
VStem: 467 49<559 840> 488 30<-8 821> 491 50<-29 248> 787 48<394 662> 797 50<113 450>
LayerCount: 2
Fore
SplineSet
766 73 m 1x90
 499 358 l 1
 226 68 l 1
 766 73 l 1x90
787 662 m 1x91
 534 395 l 1
 797 113 l 1x9080
 787 662 l 1x91
500 430 m 1
 835 786 l 1x91
 848 58 l 1
 848 22 l 1
 822 22 l 1
 799 22 l 1
 109 16 l 1
 466 394 l 1
 157 725 l 1
 193 758 l 1
 500 430 l 1
492 842 m 5
 516 845 l 5x98
 518 821 l 5x94
 538 -2 l 5
 541 -28 l 5x92
 516 -30 l 5x98
 491 -32 l 5x92
 488 -8 l 5x94
 469 815 l 5
 467 840 l 5x98
 492 842 l 5
50 414 m 5
 53 439 l 5xb0
 78 437 l 5
 926 402 l 5
 952 400 l 5
 949 374 l 5
 947 350 l 5
 922 352 l 5xd0
 73 386 l 5
 48 389 l 5xb0
 50 414 l 5
EndSplineSet
EndChar

StartChar: lt_DK
Encoding: 314 -1 83
Width: 999
VWidth: 999
Flags: HW
HStem: 26 50<611 829> 352 50<774 916> 389 50<20 202> 772 20G<794 868>
VStem: 437 50<650 840> 457 30<-8 821> 458 49<-29 254>
LayerCount: 2
Fore
SplineSet
679 316 m 1xd0
 698 352 l 1
 722 318 l 1
 898 72 l 1
 925 34 l 1
 878 34 l 1
 569 26 l 1
 528 26 l 1
 547 62 l 1
 679 316 l 1xd0
704 257 m 1
 611 78 l 1
 829 82 l 1
 704 257 l 1
808 536 m 1
 782 542 l 1
 758 547 l 1
 766 572 l 1
 791 689 l 1
 107 22 l 1
 88 5 l 1
 71 22 l 1
 53 41 l 1
 72 58 l 1
 734 706 l 1
 611 674 l 1
 599 722 l 1
 630 730 l 1
 874 792 l 1
 808 536 l 1
458 842 m 5x92
 484 845 l 5
 487 821 l 5x98
 506 -2 l 5
 508 -28 l 5
 482 -30 l 5
 458 -32 l 5x92
 457 -8 l 5x94
 437 815 l 5x98
 434 840 l 5
 458 842 l 5x92
18 414 m 5
 22 439 l 5xb0
 46 437 l 5
 895 402 l 5
 920 400 l 5
 918 374 l 5
 914 350 l 5
 890 352 l 5xd0
 41 386 l 5
 16 389 l 5xb0
 18 414 l 5
EndSplineSet
EndChar

StartChar: lt_DA
Encoding: 315 -1 84
Width: 999
VWidth: 999
Flags: HW
HStem: 565 50<475 521> 724 50<282 368 641 708> 758 20G<184 218 781 816>
LayerCount: 2
Fore
SplineSet
482 518 m 1x80
 502 542 l 1
 520 518 l 1
 892 60 l 1
 926 19 l 1
 874 19 l 1
 137 20 l 1
 85 20 l 1
 118 61 l 1
 482 518 l 1x80
502 462 m 1
 190 70 l 1
 821 70 l 1
 502 462 l 1
168 578 m 1
 146 592 l 1
 158 614 l 2
 196 680 236 776 342 774 c 0
 464 772 450 615 497 614 c 0
 533 613 567 773 661 769 c 0
 756 764 801 680 850 614 c 2
 864 595 l 1
 844 580 l 1
 824 565 l 1
 809 586 l 2
 754 660 721 717 659 719 c 0
 629 721 592 563 494 565 c 0
 379 567 403 722 341 724 c 0xc0
 274 726 249 666 202 588 c 2
 190 566 l 1
 168 578 l 1
816 763 m 1
 835 748 l 1
 818 728 l 1
 218 -11 l 1
 203 -30 l 1
 184 -14 l 1
 166 2 l 1
 181 22 l 1
 781 760 l 1
 797 779 l 1xa0
 816 763 l 1
184 763 m 1
 203 779 l 1
 218 760 l 1
 818 22 l 1
 835 2 l 1
 816 -14 l 1
 797 -30 l 1
 781 -11 l 1
 181 728 l 1
 166 748 l 1
 184 763 l 1
EndSplineSet
EndChar

StartChar: lt_DG
Encoding: 316 -1 85
Width: 999
VWidth: 999
Flags: HW
HStem: 354 50<784 929> 392 49<34 144> 799 20G<170 202 719 724>
VStem: 378 49<90 264> 470 31<-6 822> 472 50<-26 269> 724 52<731 786>
LayerCount: 2
Fore
SplineSet
473 845 m 1x3a
 498 848 l 1
 502 822 l 1x3a
 520 0 l 1
 522 -25 l 1
 498 -28 l 1
 472 -30 l 1x36
 470 -6 l 1
 451 818 l 1
 448 842 l 1
 473 845 l 1x3a
32 416 m 1
 35 442 l 1x72
 60 438 l 1
 910 404 l 1
 934 402 l 1
 932 377 l 1
 928 352 l 1
 904 354 l 1xb2
 55 389 l 1
 30 392 l 1x72
 32 416 l 1
97 288 m 2
 215 314 331 354 440 382 c 0
 445 384 464 390 466 394 c 0
 470 400 496 414 500 420 c 0
 504 426 497 422 502 428 c 1
 490 424 458 420 446 418 c 0
 252 392 212 638 157 778 c 2
 148 802 l 1
 170 810 l 1
 194 818 l 1
 203 796 l 2
 268 629 300 441 438 460 c 0
 504 470 590 531 646 613 c 0
 694 681 713 764 724 786 c 1
 724 786 776 807 776 782 c 0
 776 762 772 774 770 766 c 0
 768 764 766 758 764 752 c 0
 722 654 680 583 642 530 c 0
 602 475 564 437 533 402 c 1
 642 421 747 420 836 368 c 0
 912 324 893 224 851 152 c 0
 823 104 782 60 730 32 c 0
 629 -22 444 -18 390 84 c 0
 380 103 376 128 378 152 c 0
 385 226 397 280 419 324 c 1
 321 298 217 264 108 240 c 2
 83 234 l 1
 78 258 l 1
 72 283 l 1
 97 288 l 2
97 288 m 1
 98 288 96 288 97 288 c 1
486 341 m 0
 484 339 481 333 479 331 c 0
 453 289 435 234 427 146 c 0
 425 130 428 119 434 108 c 0
 466 47 617 28 706 76 c 0
 748 98 784 137 808 178 c 0
 849 248 845 304 810 326 c 0
 728 374 626 372 506 346 c 0
 499 344 493 343 486 341 c 0
EndSplineSet
EndChar

StartChar: lt_DZ
Encoding: 317 -1 86
Width: 999
VWidth: 999
Flags: HW
HStem: 754 41G<130 134 230 266 667 702 828 862>
VStem: 517 50<299 500>
LayerCount: 2
Fore
SplineSet
702 758 m 5
 722 743 l 5
 708 722 l 6
 614 592 561 521 566 376 c 4
 571 236 638 173 732 47 c 6
 746 26 l 5
 727 12 l 5
 707 -2 l 5
 692 17 l 6
 600 139 522 216 517 374 c 4
 512 535 573 624 667 752 c 6
 682 773 l 5
 702 758 l 5
827 396 m 1
 112 2 l 1
 104 16 96 32 88 46 c 1
 300 164 513 280 725 398 c 1
 109 755 l 1
 117 769 126 784 134 798 c 1
 134 798 603 526 827 396 c 1
862 778 m 1
 882 762 l 1
 866 743 l 1
 266 4 l 1
 251 -14 l 1
 230 1 l 1
 212 17 l 1
 228 36 l 1
 828 775 l 1
 842 794 l 1
 862 778 l 1
230 778 m 1
 251 794 l 1
 266 775 l 1
 866 36 l 1
 882 17 l 1
 862 1 l 1
 842 -14 l 1
 828 4 l 1
 228 743 l 1
 212 762 l 1
 230 778 l 1
EndSplineSet
EndChar

StartChar: lt_DU
Encoding: 318 -1 87
Width: 999
VWidth: 999
Flags: HW
HStem: 362 50<498 785> 715 50<335 691> 754 49<115 257> 776 18G<264 299 776 821 862 896>
LayerCount: 2
Fore
SplineSet
113 778 m 1xa0
 116 803 l 1xa0
 142 802 l 2
 276 788 346 768 478 766 c 0
 592 764 657 781 776 791 c 2
 838 796 l 1
 797 749 l 2
 677 613 568 561 494 428 c 1
 549 420 609 415 677 413 c 0
 742 411 773 431 846 460 c 2
 869 469 l 1
 878 446 l 1
 888 422 l 1
 864 414 l 2
 797 388 753 360 674 362 c 0
 597 364 533 374 472 382 c 1
 420 261 467 188 478 40 c 2
 484 -44 l 1
 422 19 l 1
 100 450 l 1
 64 498 l 1
 122 490 l 2
 249 472 344 452 442 436 c 1
 514 575 612 634 713 734 c 1
 636 724 573 713 478 715 c 0xc0
 341 717 265 737 134 751 c 2
 110 754 l 1
 113 778 l 1xa0
421 389 m 1
 343 401 270 418 178 432 c 1
 426 94 l 1
 412 182 383 287 421 389 c 1
896 778 m 1
 914 762 l 1
 899 743 l 1
 299 4 l 1
 283 -14 l 1
 264 1 l 1
 245 17 l 1
 262 36 l 1
 862 775 l 1
 877 794 l 1x90
 896 778 l 1
264 778 m 1
 283 794 l 1
 299 775 l 1
 899 36 l 1
 914 17 l 1
 896 1 l 1
 877 -14 l 1
 862 4 l 1
 262 743 l 1
 245 762 l 1
 264 778 l 1
EndSplineSet
EndChar

StartChar: ltd10
Encoding: 319 -1 88
Width: 999
VWidth: 0
Flags: HW
HStem: 26 50<572 760>
VStem: 136 50<184 580> 768 49<77 161>
LayerCount: 2
Fore
SplineSet
778 662 m 1
 756 648 l 1
 742 668 l 2
 720 698 687 744 670 743 c 0
 472 731 360 747 251 635 c 0
 168 550 185 514 186 398 c 0
 187 279 174 190 260 104 c 0
 368 -5 510 64 752 76 c 1
 759 88 766 126 768 144 c 2
 772 169 l 1
 797 166 l 1
 821 160 l 1
 817 136 l 2
 816 128 818 28 760 26 c 0
 534 15 361 -68 224 70 c 0
 122 173 137 285 136 397 c 0
 135 509 115 568 215 670 c 0
 351 809 485 785 671 793 c 0
 721 795 760 728 782 698 c 2
 797 677 l 1
 778 662 l 1
EndSplineSet
EndChar

StartChar: ltd11
Encoding: 320 -1 89
Width: 999
VWidth: 0
Flags: HW
HStem: 565 50<475 521> 724 50<282 368 641 708>
LayerCount: 2
Fore
SplineSet
168 578 m 1
 146 592 l 1
 158 614 l 2
 196 680 236 776 342 774 c 0
 464 772 450 615 497 614 c 0
 533 613 567 773 661 769 c 0
 756 764 801 680 850 614 c 2
 864 595 l 1
 844 580 l 1
 824 565 l 1
 809 586 l 2
 754 660 721 717 659 719 c 0
 629 721 592 563 494 565 c 0
 379 567 403 722 341 724 c 0
 274 726 249 666 202 588 c 2
 190 566 l 1
 168 578 l 1
EndSplineSet
EndChar

StartChar: ltd12
Encoding: 321 -1 90
Width: 999
VWidth: 0
Flags: HW
HStem: -17 50<172 240 290 358>
VStem: 240 50<-8 214>
LayerCount: 2
Fore
SplineSet
251 412 m 1
 249 290 285 177 290 17 c 1
 289 17 290 16 290 17 c 1
 290 -8 l 1
 266 -10 l 1
 241 -10 l 1
 240 14 l 2
 235 176 194 292 202 438 c 0
 204 480 210 525 222 574 c 0
 251 684 332 803 462 781 c 0
 478 779 494 774 512 769 c 0
 634 735 820 646 780 498 c 0
 725 295 417 396 251 412 c 1
253 462 m 1
 453 443 694 368 732 511 c 0
 757 605 629 686 499 721 c 0
 483 725 468 730 454 732 c 0
 366 748 299 665 271 562 c 0
 261 527 255 494 253 462 c 1
172 10 m 1
 172 35 l 1
 198 35 l 1
 332 34 l 1
 358 32 l 1
 358 8 l 1
 358 -18 l 1
 332 -17 l 1
 197 -14 l 1
 172 -14 l 1
 172 10 l 1
EndSplineSet
EndChar

StartChar: ltd13
Encoding: 322 -1 91
Width: 999
VWidth: 0
Flags: HW
HStem: 785 20G<702 732>
VStem: 878 50<128 253 535 665>
LayerCount: 2
Fore
SplineSet
701 782 m 5
 709 805 l 5
 732 797 l 6
 838 759 928 726 930 578 c 4
 932 451 762 420 754 408 c 5
 764 389 929 334 929 202 c 4
 929 68 828 34 734 8 c 6
 710 1 l 5
 704 25 l 5
 698 49 l 5
 721 56 l 5
 831 88 878 120 878 202 c 4
 878 298 704 305 704 408 c 4
 704 517 882 488 880 577 c 4
 878 679 837 707 716 749 c 6
 692 758 l 5
 701 782 l 5
EndSplineSet
EndChar

StartChar: lt_OA
Encoding: 323 -1 92
Width: 999
VWidth: 0
Flags: HW
HStem: -2 50<190 821> 565 50<475 521> 724 50<282 368 641 708>
LayerCount: 2
Fore
SplineSet
476 295 m 4
 478 272 491 262 499 263 c 4
 513 264 526 280 524 298 c 4
 522 320 506 332 488 330 c 4
 482 330 474 319 476 295 c 4
427 288 m 4
 423 320 432 378 484 380 c 4
 532 384 569 344 574 302 c 4
 580 260 549 216 502 214 c 4
 454 212 432 254 427 288 c 4
482 496 m 1
 502 520 l 1
 520 496 l 1
 892 38 l 1
 926 -2 l 1
 874 -2 l 1
 137 -2 l 1
 85 -2 l 1
 118 38 l 1
 482 496 l 1
502 440 m 1
 190 48 l 1
 821 47 l 1
 502 440 l 1
168 578 m 1
 146 592 l 1
 158 614 l 2
 196 680 236 776 342 774 c 0
 464 772 450 615 497 614 c 0
 533 613 567 773 661 769 c 0
 756 764 801 680 850 614 c 2
 864 595 l 1
 844 580 l 1
 824 565 l 1
 809 586 l 2
 754 660 721 717 659 719 c 0
 629 721 592 563 494 565 c 0
 379 567 403 722 341 724 c 0
 274 726 249 666 202 588 c 2
 190 566 l 1
 168 578 l 1
EndSplineSet
EndChar

StartChar: lt_OB
Encoding: 324 -1 93
Width: 999
VWidth: 0
Flags: HW
HStem: 26 50<572 760>
VStem: 136 50<184 580> 360 49<468 584> 768 49<77 161>
LayerCount: 2
Fore
SplineSet
626 253 m 4
 628 230 641 221 649 222 c 4
 663 223 676 236 674 254 c 4
 672 276 656 290 638 288 c 4
 632 288 624 277 626 253 c 4
577 247 m 4
 573 279 582 336 634 338 c 4
 682 342 719 304 724 262 c 4
 730 220 699 174 652 172 c 4
 604 170 582 213 577 247 c 4
385 587 m 1
 409 590 l 1
 412 565 l 2
 423 485 428 438 462 440 c 0
 500 444 501 519 499 580 c 2
 499 586 l 1
 548 582 l 2
 555 581 561 517 563 503 c 0
 586 405 585 338 523 253 c 0
 511 236 492 231 476 232 c 0
 436 234 381 275 385 322 c 2
 388 348 l 1
 412 346 l 1
 438 342 l 1
 434 318 l 2
 435 310 468 280 482 282 c 0
 520 336 534 405 529 457 c 1
 517 439 494 392 468 390 c 0
 371 380 370 506 362 558 c 2
 360 583 l 1
 385 587 l 1
778 662 m 1
 756 648 l 1
 742 668 l 2
 720 698 687 744 670 743 c 0
 472 731 360 747 251 635 c 0
 168 550 185 514 186 398 c 0
 187 279 174 190 260 104 c 0
 368 -5 510 64 752 76 c 1
 759 88 766 126 768 144 c 2
 772 169 l 1
 797 166 l 1
 821 160 l 1
 817 136 l 2
 816 128 818 28 760 26 c 0
 534 15 361 -68 224 70 c 0
 122 173 137 285 136 397 c 0
 135 509 115 568 215 670 c 0
 351 809 485 785 671 793 c 0
 721 795 760 728 782 698 c 2
 797 677 l 1
 778 662 l 1
EndSplineSet
EndChar

StartChar: lt_OC
Encoding: 325 -1 94
Width: 999
VWidth: 0
Flags: HW
HStem: 4 50<172 820>
LayerCount: 2
Fore
SplineSet
470 298 m 4
 472 275 486 265 494 266 c 4
 508 267 520 282 518 300 c 4
 516 322 500 334 482 332 c 4
 476 332 468 322 470 298 c 4
422 292 m 4
 418 324 427 380 479 382 c 4
 527 386 564 348 569 306 c 4
 575 264 545 219 498 217 c 4
 450 215 427 258 422 292 c 4
481 720 m 0
 483 697 496 687 504 688 c 0
 518 689 531 703 529 721 c 0
 527 743 511 756 493 754 c 0
 487 754 479 744 481 720 c 0
431 712 m 0
 427 744 438 802 490 804 c 0
 538 808 573 770 578 728 c 0
 584 686 555 640 508 638 c 0
 460 636 436 678 431 712 c 0
478 640 m 1
 498 674 l 1
 518 640 l 1
 886 42 l 1
 910 2 l 1
 865 2 l 1
 127 4 l 1
 82 4 l 1
 106 42 l 1
 478 640 l 1
498 580 m 1
 172 54 l 1
 820 53 l 1
 498 580 l 1
EndSplineSet
EndChar

StartChar: lt_OD
Encoding: 326 -1 95
Width: 999
VWidth: 0
Flags: HW
HStem: 774 20G<184 218 781 816>
LayerCount: 2
Fore
SplineSet
478 184 m 4
 480 161 494 151 502 152 c 4
 516 153 528 168 526 186 c 4
 524 208 508 220 490 218 c 4
 484 218 476 208 478 184 c 4
428 178 m 4
 424 210 433 266 485 268 c 4
 533 272 570 234 575 192 c 4
 581 150 551 104 504 102 c 4
 456 100 433 144 428 178 c 4
816 778 m 1
 835 762 l 1
 818 743 l 1
 218 4 l 1
 203 -14 l 1
 184 1 l 1
 166 17 l 1
 181 36 l 1
 781 775 l 1
 797 794 l 1
 816 778 l 1
184 778 m 1
 203 794 l 1
 218 775 l 1
 818 36 l 1
 835 17 l 1
 816 1 l 1
 797 -14 l 1
 781 4 l 1
 181 743 l 1
 166 762 l 1
 184 778 l 1
EndSplineSet
EndChar

StartChar: lt_OE
Encoding: 327 -1 96
Width: 999
VWidth: 0
Flags: HW
HStem: -17 50<172 240 290 358>
VStem: 240 50<-8 214> 546 48<53 113>
LayerCount: 2
Fore
SplineSet
516 552 m 4
 518 529 531 519 539 520 c 4
 553 521 566 534 564 552 c 4
 562 574 546 588 528 586 c 4
 522 586 514 576 516 552 c 4
467 544 m 4
 463 576 472 634 524 636 c 4
 572 640 609 601 614 559 c 4
 620 517 589 472 542 470 c 4
 494 468 472 510 467 544 c 4
644 192 m 1
 648 186 l 1
 642 182 l 2
 641 177 640 174 638 170 c 0
 626 133 610 105 600 67 c 2
 594 42 l 1
 570 49 l 1
 546 55 l 1
 552 79 l 2
 560 107 570 129 578 149 c 1
 550 135 504 113 470 154 c 0
 421 216 500 276 536 299 c 0
 546 305 553 308 563 310 c 0
 595 314 641 297 647 254 c 0
 649 231 648 211 644 192 c 1
598 218 m 0
 599 228 600 237 598 248 c 0
 597 252 587 262 571 260 c 0
 569 259 564 258 562 257 c 0
 516 228 498 198 509 185 c 0
 519 173 534 183 588 212 c 0
 590 214 596 216 598 218 c 0
251 412 m 1
 249 290 285 177 290 17 c 1
 289 17 290 16 290 17 c 1
 290 -8 l 1
 266 -10 l 1
 241 -10 l 1
 240 14 l 2
 235 176 194 292 202 438 c 0
 204 480 210 525 222 574 c 0
 251 684 332 803 462 781 c 0
 478 779 494 774 512 769 c 0
 634 735 820 646 780 498 c 0
 725 295 417 396 251 412 c 1
253 462 m 1
 453 443 694 368 732 511 c 0
 757 605 629 686 499 721 c 0
 483 725 468 730 454 732 c 0
 366 748 299 665 271 562 c 0
 261 527 255 494 253 462 c 1
172 10 m 1
 172 35 l 1
 198 35 l 1
 332 34 l 1
 358 32 l 1
 358 8 l 1
 358 -18 l 1
 332 -17 l 1
 197 -14 l 1
 172 -14 l 1
 172 10 l 1
EndSplineSet
EndChar

StartChar: lt_OF
Encoding: 328 -1 97
Width: 999
VWidth: 0
Flags: HW
HStem: 22 22G<134 170> 762 20G<479 515 762 788>
VStem: 474 50<18 746> 762 50<601 781>
LayerCount: 2
Fore
SplineSet
601 202 m 4
 603 179 616 169 624 170 c 4
 638 171 651 184 649 202 c 4
 647 224 631 238 613 236 c 4
 607 236 599 226 601 202 c 4
552 194 m 4
 548 226 558 284 610 286 c 4
 658 290 693 251 698 209 c 4
 704 167 675 122 628 120 c 4
 580 118 557 160 552 194 c 4
910 662 m 1
 932 654 l 1
 925 630 l 2
 885 509 864 439 763 348 c 0
 651 248 513 351 427 293 c 0
 306 214 265 155 170 40 c 2
 154 22 l 1
 134 37 l 1
 116 52 l 1
 132 72 l 2
 226 184 271 252 398 335 c 0
 528 420 650 313 730 385 c 0
 822 468 838 524 878 646 c 2
 886 670 l 1
 910 662 l 1
788 781 m 1
 812 781 l 1
 812 756 l 2
 810 634 799 550 696 458 c 0
 584 358 444 464 358 406 c 0
 237 327 197 267 102 152 c 2
 86 132 l 1
 68 148 l 1
 48 166 l 1
 62 184 l 2
 156 296 205 363 332 446 c 0
 462 531 582 425 662 497 c 0
 753 579 760 636 762 757 c 2
 762 782 l 1
 788 781 l 1
479 766 m 1
 498 785 l 1
 516 764 l 1
 708 542 l 1
 689 526 l 1
 670 508 l 1
 496 710 l 1
 300 505 l 1
 282 522 l 1
 263 539 l 1
 479 766 l 1
494 746 m 1
 520 746 l 1
 520 739 l 1
 524 42 l 1
 524 18 l 1
 499 17 l 1
 474 17 l 1
 474 42 l 1
 470 739 l 1
 470 746 l 1
 494 746 l 1
EndSplineSet
EndChar

StartChar: lt_OG
Encoding: 329 -1 98
Width: 999
VWidth: 0
Flags: HW
HStem: 799 20G<170 202 719 724>
VStem: 378 49<90 264> 724 52<731 786>
LayerCount: 2
Fore
SplineSet
529 254 m 4
 531 231 544 221 552 222 c 4
 566 223 580 238 578 256 c 4
 576 278 559 291 541 289 c 4
 535 289 527 278 529 254 c 4
479 248 m 4
 475 280 486 336 538 338 c 4
 586 342 621 304 626 262 c 4
 632 220 603 174 556 172 c 4
 508 170 484 214 479 248 c 4
97 288 m 2
 215 314 331 354 440 382 c 0
 445 384 464 390 466 394 c 0
 470 400 496 414 500 420 c 0
 504 426 497 422 502 428 c 1
 490 424 458 420 446 418 c 0
 252 392 212 638 157 778 c 2
 148 802 l 1
 170 810 l 1
 194 818 l 1
 203 796 l 2
 268 629 300 441 438 460 c 0
 504 470 590 531 646 613 c 0
 694 681 713 764 724 786 c 1
 724 786 776 807 776 782 c 0
 776 762 772 774 770 766 c 0
 768 764 766 758 764 752 c 0
 722 654 680 583 642 530 c 0
 602 475 564 437 533 402 c 1
 642 421 747 420 836 368 c 0
 912 324 893 224 851 152 c 0
 823 104 782 60 730 32 c 0
 629 -22 444 -18 390 84 c 0
 380 103 376 128 378 152 c 0
 385 226 397 280 419 324 c 1
 321 298 217 264 108 240 c 2
 83 234 l 1
 78 258 l 1
 72 283 l 1
 97 288 l 2
97 288 m 1
 98 288 96 288 97 288 c 1
486 341 m 0
 484 339 481 333 479 331 c 0
 453 289 435 234 427 146 c 0
 425 130 428 119 434 108 c 0
 466 47 617 28 706 76 c 0
 748 98 784 137 808 178 c 0
 849 248 845 304 810 326 c 0
 728 374 626 372 506 346 c 0
 499 344 493 343 486 341 c 0
EndSplineSet
EndChar

StartChar: lt_OH
Encoding: 330 -1 99
Width: 999
VWidth: 0
Flags: HW
HStem: 762 20G<752 785>
LayerCount: 2
Fore
SplineSet
331 517 m 4
 333 494 346 484 354 485 c 4
 368 486 381 500 379 518 c 4
 377 540 361 553 343 551 c 4
 337 551 329 541 331 517 c 4
282 509 m 4
 278 541 286 599 338 601 c 4
 386 605 425 566 430 524 c 4
 436 482 405 436 358 434 c 4
 310 432 287 475 282 509 c 4
786 760 m 1
 798 738 l 1
 775 727 l 2
 627 653 495 588 515 506 c 0
 531 440 800 500 812 362 c 0
 826 200 670 131 542 46 c 2
 522 31 l 1
 508 52 l 1
 494 72 l 1
 516 86 l 2
 656 180 773 237 762 358 c 0
 754 441 503 342 467 494 c 0
 435 632 624 707 752 772 c 2
 775 782 l 1
 786 760 l 1
487 718 m 1
 498 696 l 1
 475 684 l 2
 327 610 195 545 215 463 c 0
 231 397 500 457 512 319 c 0
 526 157 370 87 242 2 c 1
 243 2 243 3 242 2 c 1
 222 -11 l 1
 209 10 l 1
 194 31 l 1
 216 44 l 2
 356 138 473 193 462 314 c 0
 454 397 203 300 167 452 c 0
 135 590 324 665 452 730 c 2
 475 740 l 1
 487 718 l 1
EndSplineSet
EndChar

StartChar: lt_OI
Encoding: 331 -1 100
Width: 999
VWidth: 0
Flags: HW
LayerCount: 2
Fore
SplineSet
481 364 m 4
 483 341 496 331 504 332 c 4
 518 333 531 348 529 366 c 4
 527 388 511 400 493 398 c 4
 487 398 479 388 481 364 c 4
432 358 m 4
 428 390 438 446 490 448 c 4
 538 452 573 414 578 372 c 4
 584 330 555 284 508 282 c 4
 460 280 437 324 432 358 c 4
840 620 m 1
 818 607 l 1
 805 628 l 2
 803 630 802 633 800 635 c 0
 742 717 654 764 593 722 c 0
 459 628 396 378 434 212 c 0
 444 169 466 131 494 103 c 0
 572 25 705 8 818 122 c 2
 838 142 l 1
 854 122 l 1
 872 106 l 1
 854 88 l 2
 723 -44 556 -30 458 68 c 0
 423 103 398 148 386 200 c 0
 343 382 407 653 565 763 c 0
 665 833 780 750 841 664 c 0
 843 662 845 657 847 655 c 2
 862 634 l 1
 840 620 l 1
134 578 m 1
 112 588 l 1
 122 612 l 2
 136 644 162 678 190 710 c 0
 251 777 350 842 432 768 c 0
 614 600 683 407 612 166 c 0
 592 99 559 51 516 22 c 0
 400 -56 241 14 146 156 c 2
 132 178 l 1
 154 191 l 1
 174 205 l 1
 188 184 l 2
 276 53 406 8 488 62 c 0
 520 84 546 122 564 180 c 0
 630 403 570 574 398 732 c 0
 352 774 286 744 226 677 c 0
 201 649 180 616 168 590 c 2
 158 568 l 1
 134 578 l 1
EndSplineSet
EndChar

StartChar: lt_OK
Encoding: 332 -1 101
Width: 999
VWidth: 0
Flags: HW
HStem: 26 50<611 829> 772 20G<794 868>
LayerCount: 2
Fore
SplineSet
488 258 m 4
 490 235 504 225 512 226 c 4
 526 227 540 240 538 258 c 4
 536 280 518 294 500 292 c 4
 494 292 486 282 488 258 c 4
438 250 m 4
 434 282 444 340 496 342 c 4
 544 346 581 307 586 265 c 4
 592 223 562 178 515 176 c 4
 467 174 443 216 438 250 c 4
679 316 m 1
 698 352 l 1
 722 318 l 1
 898 72 l 1
 925 34 l 1
 878 34 l 1
 569 26 l 1
 528 26 l 1
 547 62 l 1
 679 316 l 1
704 257 m 1
 611 78 l 1
 829 82 l 1
 704 257 l 1
808 536 m 1
 782 542 l 1
 758 547 l 1
 766 572 l 1
 791 689 l 1
 107 22 l 1
 88 5 l 1
 71 22 l 1
 53 41 l 1
 72 58 l 1
 734 706 l 1
 611 674 l 1
 599 722 l 1
 630 730 l 1
 874 792 l 1
 808 536 l 1
EndSplineSet
EndChar

StartChar: lt_OL
Encoding: 333 -1 102
Width: 999
VWidth: 0
Flags: HW
HStem: -5 50<548 821> 782 20G<439 472>
VStem: 418 50<184 386 442 715>
LayerCount: 2
Fore
SplineSet
319 562 m 4
 321 539 335 529 343 530 c 4
 357 531 370 546 368 564 c 4
 366 586 350 600 332 598 c 4
 326 598 317 586 319 562 c 4
270 556 m 4
 266 588 276 646 328 648 c 4
 376 652 413 612 418 570 c 4
 424 528 394 484 347 482 c 4
 299 480 275 522 270 556 c 4
467 397 m 1
 466 313 468 230 482 136 c 0
 494 62 591 48 706 46 c 0
 802 44 825 63 907 128 c 2
 926 143 l 1
 942 122 l 1
 958 104 l 1
 938 88 l 2
 856 23 812 -7 704 -5 c 0
 601 -3 452 3 433 128 c 0
 419 220 417 304 418 386 c 1
 122 542 l 1
 84 563 l 1
 121 586 l 1
 434 780 l 1
 470 803 l 1
 472 760 l 2
 476 628 470 519 468 415 c 1
 467 409 l 1
 467 397 l 1
418 442 m 1
 420 528 424 613 422 715 c 1
 184 566 l 1
 418 442 l 1
EndSplineSet
EndChar

StartChar: lt_OM
Encoding: 334 -1 103
Width: 999
VWidth: 0
Flags: HW
HStem: 14 50<238 812> 214 50<544 779> 502 50<199 418> 770 20G<190 239>
VStem: 190 50<60 503 553 791> 198 41<503 552>
LayerCount: 2
Fore
SplineSet
325 168 m 4xf0
 327 145 340 135 348 136 c 4
 362 137 375 150 373 168 c 4
 371 190 356 204 338 202 c 4
 332 202 323 192 325 168 c 4xf0
276 160 m 4
 272 192 282 250 334 252 c 4
 382 256 417 217 422 175 c 4
 428 133 399 88 352 86 c 4
 304 84 281 126 276 160 c 4
198 528 m 1xf4
 198 552 l 1
 222 553 l 2
 319 555 430 564 510 472 c 0
 516 465 520 456 522 446 c 0
 532 388 440 339 430 326 c 1
 530 252 595 273 758 263 c 2
 782 262 l 1
 781 238 l 1
 779 212 l 1
 754 214 l 2
 602 224 516 199 398 288 c 0
 388 296 380 306 378 319 c 0
 376 336 385 348 392 358 c 0
 420 394 468 425 472 438 c 0
 410 510 326 505 224 503 c 2
 199 502 l 1
 198 528 l 1xf4
214 791 m 1
 239 791 l 1
 239 766 l 1
 239 767 240 766 239 766 c 1
 238 60 l 1
 788 64 l 1
 812 64 l 1
 814 38 l 1
 814 14 l 1
 788 14 l 1
 212 10 l 1
 187 10 l 1
 187 35 l 1
 190 766 l 1
 189 766 190 767 190 766 c 1
 190 791 l 1xf8
 214 791 l 1
EndSplineSet
EndChar

StartChar: lt_ON
Encoding: 335 -1 104
Width: 1002
VWidth: 0
Flags: HW
HStem: 22 50<226 766> 766 20G<816 835>
VStem: 787 48<394 662> 797 50<113 450>
LayerCount: 2
Fore
SplineSet
472 205 m 4xc0
 474 182 488 172 496 173 c 4
 510 174 522 188 520 206 c 4
 518 228 502 242 484 240 c 4
 478 240 470 229 472 205 c 4xc0
422 198 m 4
 418 230 428 288 480 290 c 4
 528 294 565 256 570 214 c 4
 576 172 546 126 499 124 c 4
 451 122 427 164 422 198 c 4
766 73 m 1
 499 358 l 1
 226 68 l 1
 766 73 l 1
787 662 m 1xe0
 534 395 l 1
 797 113 l 1xd0
 787 662 l 1xe0
500 430 m 1
 835 786 l 1xe0
 848 58 l 1
 848 22 l 1
 822 22 l 1
 799 22 l 1
 109 16 l 1
 466 394 l 1
 157 725 l 1
 193 758 l 1
 500 430 l 1
EndSplineSet
EndChar

StartChar: lt_OP
Encoding: 336 -1 105
Width: 999
VWidth: 0
Flags: HW
VStem: 230 50<103 228>
LayerCount: 2
Fore
SplineSet
466 547 m 4
 468 524 480 514 488 515 c 4
 502 516 516 530 514 548 c 4
 512 570 496 583 478 581 c 4
 472 581 464 571 466 547 c 4
416 539 m 4
 412 571 421 629 473 631 c 4
 521 635 558 596 563 554 c 4
 569 512 539 468 492 466 c 4
 444 464 421 505 416 539 c 4
258 439 m 1
 772 392 l 1
 768 342 l 1
 252 389 l 1
 258 439 l 1
233 637 m 1
 216 655 l 1
 233 672 l 1
 232 671 234 672 233 672 c 1
 313 750 414 803 542 780 c 0
 578 773 618 759 654 739 c 0
 721 702 794 631 750 552 c 0
 692 450 590 430 502 368 c 0
 386 286 275 262 280 154 c 0
 280 152 281 148 281 146 c 0
 291 74 400 35 498 47 c 0
 599 59 663 136 725 228 c 2
 739 248 l 1
 760 235 l 1
 781 221 l 1
 767 200 l 2
 705 108 629 14 504 -2 c 0
 402 -14 244 18 230 140 c 0
 229 142 230 149 230 151 c 0
 222 301 376 342 472 409 c 0
 574 480 660 496 706 578 c 0
 726 615 697 658 630 695 c 0
 599 713 563 725 534 730 c 0
 427 750 342 707 268 636 c 2
 250 618 l 1
 233 637 l 1
EndSplineSet
EndChar

StartChar: lt_OQ
Encoding: 337 -1 106
Width: 999
VWidth: 0
Flags: HW
HStem: 788 20G<746 772>
VStem: 246 50<-16 532> 253 49<10 532> 722 50<370 806>
LayerCount: 2
Fore
SplineSet
614 482 m 4x90
 616 459 630 449 638 450 c 4
 652 451 664 464 662 482 c 4
 660 504 644 518 626 516 c 4
 620 516 612 506 614 482 c 4x90
564 474 m 4
 560 506 570 564 622 566 c 4
 670 570 707 532 712 490 c 4
 718 448 688 402 641 400 c 4
 593 398 569 440 564 474 c 4
522 509 m 1
 517 485 l 1
 492 491 l 1
 302 532 l 1xb0
 296 8 l 1
 296 -17 l 1
 271 -16 l 1
 246 -16 l 1
 246 10 l 1
 246 11 245 10 246 10 c 1xd0
 253 564 l 1
 253 595 l 1xb0
 283 588 l 1
 503 539 l 1
 528 534 l 1
 522 509 l 1
746 806 m 1
 772 808 l 1
 772 782 l 1
 778 343 l 1
 778 316 l 1
 750 318 l 1
 290 356 l 1
 266 358 l 1
 268 383 l 1
 270 408 l 1
 295 406 l 1
 727 370 l 1
 722 782 l 1
 722 806 l 1
 746 806 l 1
EndSplineSet
EndChar

StartChar: lt_OR
Encoding: 338 -1 107
Width: 999
VWidth: 0
Flags: HW
HStem: 785 20G<382 414 584 614>
VStem: 78 50<305 526> 836 50<150 244 540 640>
LayerCount: 2
Fore
SplineSet
211 432 m 4
 213 409 226 399 234 400 c 4
 248 401 261 414 259 432 c 4
 257 454 241 468 223 466 c 4
 217 466 209 456 211 432 c 4
162 424 m 4
 158 456 166 514 218 516 c 4
 266 520 305 481 310 439 c 4
 316 397 285 352 238 350 c 4
 190 348 167 390 162 424 c 4
583 782 m 1
 592 805 l 1
 614 797 l 2
 720 759 885 726 887 578 c 0
 889 451 646 420 638 408 c 1
 648 389 886 334 886 202 c 0
 886 68 712 34 618 8 c 2
 594 1 l 1
 587 25 l 1
 580 49 l 1
 604 56 l 1
 714 88 836 120 836 202 c 0
 836 298 587 305 587 408 c 0
 587 517 840 488 838 577 c 0
 836 679 719 707 598 749 c 2
 575 758 l 1
 583 782 l 1
415 785 m 1
 427 763 l 1
 404 752 l 2
 250 673 126 581 128 418 c 0
 130 240 248 138 418 60 c 2
 439 49 l 1
 428 26 l 1
 418 4 l 1
 396 14 l 2
 220 96 80 215 78 418 c 0
 76 612 228 717 382 796 c 2
 404 808 l 1
 415 785 l 1
EndSplineSet
EndChar

StartChar: lt_OS
Encoding: 339 -1 108
Width: 999
VWidth: 0
Flags: HW
HStem: 325 50<143 410> 340 50<533 800> 805 20G<472 494>
VStem: 472 50<110 710> 480 50<-8 624>
LayerCount: 2
Fore
SplineSet
594 490 m 4x20
 596 467 610 457 618 458 c 4
 632 459 644 474 642 492 c 4
 640 514 624 528 606 526 c 4
 600 526 592 514 594 490 c 4x20
544 482 m 4
 540 514 550 573 602 575 c 4
 650 579 687 540 692 498 c 4
 698 456 669 411 622 409 c 4
 574 407 549 448 544 482 c 4
805 372 m 0
 807 349 820 339 828 340 c 0x60
 842 341 855 354 853 372 c 0
 851 394 835 408 817 406 c 0
 811 406 803 396 805 372 c 0
755 364 m 0
 751 396 762 454 814 456 c 0
 862 460 897 421 902 379 c 0
 908 337 879 292 832 290 c 0
 784 288 760 330 755 364 c 0
143 349 m 1
 142 374 l 1
 168 374 l 1
 167 374 168 373 168 374 c 1xa0
 775 390 l 1
 800 391 l 1
 802 366 l 1
 802 341 l 1
 778 340 l 1x60
 168 325 l 1
 168 326 167 325 168 325 c 1xa0
 143 324 l 1
 143 349 l 1
505 -8 m 1
 480 -8 l 1
 480 17 l 1x28
 472 768 l 1
 472 826 l 1
 514 787 l 1
 768 557 l 1
 787 540 l 1
 769 521 l 1
 752 502 l 1
 734 518 l 1
 522 710 l 1x30
 530 18 l 1
 530 -8 l 1x28
 505 -8 l 1
EndSplineSet
EndChar

StartChar: lt_OT
Encoding: 340 -1 109
Width: 999
VWidth: 0
Flags: HW
HStem: 640 55<286 482 485 528 532 701> 760 50<473 532>
VStem: 470 50<-10 474> 481 50<277 695>
LayerCount: 2
Fore
SplineSet
598 509 m 4xc0
 600 486 614 477 622 478 c 4
 636 479 649 493 647 511 c 4
 645 533 628 546 610 544 c 4
 604 544 596 533 598 509 c 4xc0
548 502 m 4
 544 534 554 591 606 593 c 4
 654 597 691 559 696 517 c 4
 702 475 672 430 625 428 c 4
 577 426 553 468 548 502 c 4
496 -10 m 1
 470 -10 l 1
 470 14 l 1xe0
 481 670 l 1
 482 695 l 1
 506 695 l 1
 532 695 l 1
 530 670 l 1xd0
 521 14 l 1
 521 -10 l 1xe0
 496 -10 l 1
227 582 m 1
 204 593 l 1
 216 616 l 1
 248 677 l 1
 254 690 l 1
 270 690 l 1
 712 694 l 1
 725 694 l 1
 733 684 l 1
 779 623 l 1
 794 602 l 1
 774 588 l 1
 754 574 l 1
 739 593 l 1
 701 644 l 1
 286 640 l 1
 260 592 l 1
 248 570 l 1
 227 582 l 1
504 714 m 1
 532 760 l 1
 473 760 l 1
 504 714 l 1
485 654 m 1
 406 770 l 1
 379 808 l 1
 426 809 l 1
 576 811 l 1
 620 812 l 1
 598 773 l 1
 528 655 l 1
 508 622 l 1
 485 654 l 1
EndSplineSet
EndChar

StartChar: lt_OU
Encoding: 341 -1 110
Width: 999
VWidth: 0
Flags: HW
HStem: 362 50<532 818> 715 50<299 725> 754 49<150 308> 776 20G<810 854>
LayerCount: 2
Fore
SplineSet
394 548 m 4x80
 396 525 410 515 418 516 c 4
 432 517 444 530 442 548 c 4
 440 570 424 584 406 582 c 4
 400 582 392 572 394 548 c 4x80
343 540 m 4
 339 572 349 630 401 632 c 4
 449 636 486 596 491 554 c 4
 497 512 467 468 420 466 c 4
 372 464 348 506 343 540 c 4
148 778 m 1
 150 803 l 1xa0
 175 802 l 2
 309 788 380 768 512 766 c 0
 626 764 691 781 810 791 c 2
 872 796 l 1
 830 749 l 2
 710 613 603 561 529 428 c 1
 584 420 642 415 710 413 c 0
 775 411 807 431 880 460 c 2
 902 469 l 1
 912 446 l 1
 922 422 l 1
 898 414 l 2
 831 388 788 360 709 362 c 0
 632 364 567 374 506 382 c 1
 454 261 501 188 512 40 c 2
 518 -44 l 1
 457 19 l 1
 134 450 l 1
 98 498 l 1
 158 490 l 2
 285 472 380 452 478 436 c 1
 550 575 647 634 748 734 c 1
 671 724 607 713 512 715 c 0xd0
 375 717 300 737 169 751 c 2
 144 754 l 1xa0
 148 778 l 1
455 389 m 1
 377 401 303 418 211 432 c 1
 460 94 l 1
 446 182 417 287 455 389 c 1
EndSplineSet
EndChar

StartChar: lt_OV
Encoding: 342 -1 111
Width: 999
VWidth: 0
Flags: HW
HStem: -17 46<667 678> 793 20G<647 674>
LayerCount: 2
Fore
SplineSet
362 414 m 0
 364 391 378 381 386 382 c 0
 400 383 412 398 410 416 c 0
 408 438 392 451 374 449 c 0
 368 449 360 438 362 414 c 0
312 408 m 0
 308 440 318 496 370 498 c 0
 418 502 455 464 460 422 c 0
 466 380 436 334 389 332 c 0
 341 330 317 374 312 408 c 0
683 782 m 1
 673 770 l 2
 579 650 485 489 487 424 c 0
 489 352 544 161 686 29 c 2
 694 22 l 1
 674 -17 l 1
 662 -13 l 2
 414 57 285 223 277 422 c 0
 269 613 433 743 647 810 c 2
 658 814 l 1
 683 782 l 1
584 734 m 1
 420 664 320 559 326 425 c 0
 332 273 415 146 582 70 c 1
 480 202 439 349 437 422 c 0
 435 502 507 626 584 734 c 1
EndSplineSet
EndChar

StartChar: lt_OW
Encoding: 343 -1 112
Width: 999
VWidth: 0
Flags: HW
HStem: 132 50<169 844> 602 50<170 846> 802 20G<480 505>
LayerCount: 2
Fore
SplineSet
466 510 m 4
 468 487 482 477 490 478 c 4
 504 479 516 494 514 512 c 4
 512 534 496 547 478 545 c 4
 472 545 464 534 466 510 c 4
418 503 m 4
 414 535 422 593 474 595 c 4
 522 599 559 560 564 518 c 4
 570 476 539 432 492 430 c 4
 444 428 423 469 418 503 c 4
542 -2 m 1
 522 -37 l 1
 502 -2 l 1
 104 614 l 1
 79 653 l 1
 125 653 l 1
 890 654 l 1
 934 654 l 1
 912 616 l 1
 542 -2 l 1
521 58 m 1
 846 604 l 1
 170 602 l 1
 521 58 l 1
472 787 m 1
 492 822 l 1
 514 788 l 1
 911 170 l 1
 936 132 l 1
 890 132 l 1
 125 131 l 1
 82 131 l 1
 103 169 l 1
 472 787 l 1
494 727 m 1
 169 181 l 1
 844 182 l 1
 494 727 l 1
EndSplineSet
EndChar

StartChar: lt_OX
Encoding: 344 -1 113
Width: 999
VWidth: 0
Flags: HW
HStem: 752 20G<838 862>
VStem: 150 50<652 712> 319 50<118 355> 812 50<252 770> 822 50<14 534>
LayerCount: 2
Fore
SplineSet
368 572 m 4xe0
 370 549 384 539 392 540 c 4
 406 541 420 554 418 572 c 4
 416 594 398 608 380 606 c 4
 374 606 366 596 368 572 c 4xe0
318 564 m 4
 314 596 324 654 376 656 c 4
 424 660 461 620 466 578 c 4
 472 536 442 492 395 490 c 4
 347 488 323 530 318 564 c 4
838 770 m 1
 862 772 l 1
 862 746 l 1xf0
 872 40 l 1
 872 14 l 1
 848 14 l 1
 822 14 l 1
 822 40 l 1xe8
 812 746 l 1
 812 770 l 1xf0
 838 770 l 1
344 118 m 1
 319 118 l 1
 320 142 l 2
 322 216 289 282 330 368 c 0
 398 514 563 496 538 598 c 0
 512 702 392 694 254 719 c 0
 250 720 245 720 239 719 c 0
 213 714 198 694 200 677 c 2
 204 652 l 1
 179 648 l 1
 155 643 l 1
 150 668 l 2
 140 722 187 760 230 768 c 0
 241 770 251 770 263 768 c 0
 381 746 549 758 586 610 c 0
 621 468 414 430 376 348 c 0
 345 282 372 236 370 142 c 2
 370 116 l 1
 344 118 l 1
344 82 m 0
 346 59 360 49 368 50 c 0
 382 51 394 64 392 82 c 0
 390 104 376 118 358 116 c 0
 352 116 342 106 344 82 c 0
294 74 m 0
 290 106 300 164 352 166 c 0
 400 170 437 131 442 89 c 0
 448 47 418 2 371 0 c 0
 323 -2 299 40 294 74 c 0
EndSplineSet
EndChar

StartChar: lt_OY
Encoding: 345 -1 114
Width: 999
VWidth: 0
Flags: HW
HStem: -2 50<412 608> 634 50<436 586> 787 20G<491 523>
VStem: 192 50<228 442> 797 50<234 450>
LayerCount: 2
Fore
SplineSet
491 522 m 4
 493 499 506 490 514 491 c 4
 528 492 541 505 539 523 c 4
 537 545 521 559 503 557 c 4
 497 557 489 546 491 522 c 4
442 515 m 4
 438 547 447 605 499 607 c 4
 547 611 584 572 589 530 c 4
 595 488 565 444 518 442 c 4
 470 440 447 481 442 515 c 4
312 574 m 1
 296 592 l 1
 314 610 l 1
 491 792 l 1
 506 806 l 1
 523 793 l 1
 712 613 l 1
 732 598 l 1
 718 578 l 1
 701 559 l 1
 682 574 l 1
 509 742 l 1
 348 574 l 1
 330 556 l 1
 312 574 l 1
508 634 m 0
 363 636 246 492 242 338 c 0
 240 192 357 49 499 47 c 0
 662 45 792 172 797 336 c 0
 802 498 671 632 508 634 c 0
508 683 m 0
 698 681 852 526 847 334 c 0
 842 144 689 -4 498 -2 c 0
 323 0 188 168 192 338 c 0
 196 511 327 685 508 683 c 0
EndSplineSet
EndChar

StartChar: lt_OZ
Encoding: 346 -1 115
Width: 999
VWidth: 0
Flags: HW
HStem: 754 46G<158 162 636 670>
VStem: 485 50<269 526>
LayerCount: 2
Fore
SplineSet
583 403 m 4
 585 380 599 371 607 372 c 4
 621 373 634 388 632 406 c 4
 630 428 613 440 595 438 c 4
 589 438 581 427 583 403 c 4
533 397 m 4
 529 429 538 486 590 488 c 4
 638 492 677 452 682 410 c 4
 688 368 657 324 610 322 c 4
 562 320 538 363 533 397 c 4
670 758 m 1
 690 743 l 1
 674 722 l 2
 580 592 530 521 535 376 c 0
 540 236 606 173 700 47 c 2
 715 26 l 1
 695 12 l 1
 674 -2 l 1
 660 17 l 2
 568 139 490 216 485 374 c 0
 480 535 541 624 635 752 c 2
 649 773 l 1
 670 758 l 1
856 396 m 1
 142 2 l 1
 134 16 126 32 118 46 c 1
 330 164 542 280 754 398 c 1
 138 755 l 1
 146 769 154 784 162 798 c 1
 162 798 632 526 856 396 c 1
EndSplineSet
EndChar

StartChar: ltd14
Encoding: 347 -1 116
Width: 999
VWidth: 0
Flags: HW
HStem: 352 108
LayerCount: 2
Fore
SplineSet
137 460 m 1
 878 402 l 1
 874 352 l 1
 132 410 l 1
 137 460 l 1
EndSplineSet
EndChar

StartChar: lt_RX
Encoding: 348 -1 117
Width: 999
VWidth: 999
Flags: HW
HStem: 785 20G<702 732>
VStem: 245 50<103 332> 584 50<178 696> 593 50<12 530> 878 50<128 253 535 665>
LayerCount: 2
Fore
SplineSet
610 697 m 5xe8
 632 697 l 5
 634 697 l 5
 634 694 l 5
 634 672 l 5xe8
 643 37 l 5
 643 14 l 5
 643 12 l 5
 641 12 l 5
 618 11 l 5
 596 11 l 5
 593 11 l 5
 593 12 l 5
 593 13 l 5
 593 36 l 5xd8
 584 671 l 5
 584 694 l 5
 584 696 l 5
 587 696 l 5
 610 697 l 5xe8
270 102 m 1
 248 103 l 1
 245 103 l 1
 245 106 l 1
 246 128 l 2
 248 194 216 254 254 332 c 0
 316 466 464 449 442 538 c 0
 420 629 316 624 190 646 c 0
 188 647 181 647 176 646 c 0
 154 642 140 623 142 610 c 2
 146 588 l 1
 146 586 l 1
 144 584 l 1
 122 580 l 1
 100 576 l 1
 98 576 l 1
 97 578 l 1
 92 600 l 2
 82 650 129 686 167 694 c 0
 177 696 187 696 198 694 c 0
 304 675 456 686 490 550 c 0
 522 420 332 383 300 312 c 0
 272 254 298 212 296 127 c 2
 295 104 l 1
 295 102 l 1
 292 102 l 1
 270 102 l 1
272 73 m 0
 274 53 285 48 290 48 c 0
 302 49 313 60 311 74 c 0
 309 92 295 104 281 102 c 0
 279 102 270 95 272 73 c 0
222 67 m 0
 218 95 228 150 277 152 c 0
 323 156 355 120 360 82 c 0
 365 42 337 0 294 -2 c 0
 248 -4 226 37 222 67 c 0
701 782 m 1
 709 805 l 1
 732 797 l 2
 838 759 928 726 930 578 c 0
 932 451 762 420 754 408 c 1
 764 389 929 334 929 202 c 0
 929 68 828 34 734 8 c 2
 710 1 l 1
 704 25 l 1
 698 49 l 1
 721 56 l 1
 831 88 878 120 878 202 c 0
 878 298 704 305 704 408 c 0
 704 517 882 488 880 577 c 0
 878 679 837 707 716 749 c 2
 692 758 l 1
 701 782 l 1
EndSplineSet
EndChar

StartChar: lt_SP
Encoding: 349 -1 118
Width: 999
VWidth: 999
Flags: HW
HStem: 325 50<58 377> 340 50<528 848>
VStem: 230 50<103 228>
LayerCount: 2
Fore
SplineSet
233 637 m 1x20
 216 655 l 1
 233 672 l 1
 232 671 234 672 233 672 c 1
 313 750 414 803 542 780 c 0
 578 773 618 759 654 739 c 0
 721 702 794 631 750 552 c 0
 692 450 590 430 502 368 c 0
 386 286 275 262 280 154 c 0
 280 152 281 148 281 146 c 0
 291 74 400 35 498 47 c 0
 599 59 663 136 725 228 c 2
 739 248 l 1
 760 235 l 1
 781 221 l 1
 767 200 l 2
 705 108 629 14 504 -2 c 0
 402 -14 244 18 230 140 c 0
 229 142 230 149 230 151 c 0
 222 301 376 342 472 409 c 0
 574 480 660 496 706 578 c 0
 726 615 697 658 630 695 c 0
 599 713 563 725 534 730 c 0
 427 750 342 707 268 636 c 2
 250 618 l 1
 233 637 l 1x20
852 372 m 0
 854 349 869 339 877 340 c 0x60
 891 341 903 354 901 372 c 0
 899 394 883 408 865 406 c 0
 859 406 850 396 852 372 c 0
803 364 m 0
 799 396 810 454 862 456 c 0
 910 460 945 421 950 379 c 0
 956 337 927 292 880 290 c 0
 832 288 808 330 803 364 c 0
56 349 m 1
 55 374 l 1
 80 374 l 1
 79 374 80 373 80 374 c 1xa0
 823 390 l 1
 848 391 l 1
 850 366 l 1
 850 341 l 1
 826 340 l 1x60
 82 325 l 1
 82 326 81 325 82 325 c 1xa0
 58 324 l 1
 56 349 l 1
EndSplineSet
EndChar

StartChar: lt_PS
Encoding: 350 -1 119
Width: 999
VWidth: 999
Flags: HW
HStem: 360 50<143 410> 374 50<533 800> 805 20G<472 494>
VStem: 472 50<110 710> 480 50<-8 624>
LayerCount: 2
Fore
SplineSet
805 407 m 4x60
 807 384 820 373 828 374 c 4
 842 375 855 390 853 408 c 4
 851 430 835 444 817 442 c 4
 811 442 803 431 805 407 c 4x60
755 398 m 4
 751 430 762 489 814 491 c 4
 862 495 897 456 902 414 c 4
 908 372 879 327 832 325 c 4
 784 323 760 364 755 398 c 4
143 384 m 5
 142 409 l 5
 168 410 l 5
 167 410 168 409 168 410 c 5xa0
 775 425 l 5
 800 426 l 5
 802 401 l 5
 802 376 l 5
 778 374 l 5x60
 168 360 l 5
 168 361 167 360 168 360 c 5xa0
 143 359 l 5
 143 384 l 5
505 -8 m 1
 480 -8 l 1
 480 17 l 1x28
 472 768 l 1
 472 826 l 1
 514 787 l 1
 768 557 l 1
 787 540 l 1
 769 521 l 1
 752 502 l 1
 734 518 l 1
 522 710 l 1x30
 530 18 l 1
 530 -8 l 1x28
 505 -8 l 1
137 322 m 1
 878 263 l 1
 874 214 l 1
 132 271 l 1
 137 322 l 1
EndSplineSet
EndChar

StartChar: lt_PH
Encoding: 351 -1 120
Width: 999
VWidth: 999
Flags: HW
HStem: 762 20G<752 785>
LayerCount: 2
Fore
SplineSet
786 760 m 1
 798 738 l 1
 775 727 l 2
 627 653 495 588 515 506 c 0
 531 440 800 500 812 362 c 0
 826 200 670 131 542 46 c 2
 522 31 l 1
 508 52 l 1
 494 72 l 1
 516 86 l 2
 656 180 773 237 762 358 c 0
 754 441 503 342 467 494 c 0
 435 632 624 707 752 772 c 2
 775 782 l 1
 786 760 l 1
487 718 m 1
 498 696 l 1
 475 684 l 2
 327 610 195 545 215 463 c 0
 231 397 500 457 512 319 c 0
 526 157 370 87 242 2 c 1
 243 2 243 3 242 2 c 1
 222 -11 l 1
 209 10 l 1
 194 31 l 1
 216 44 l 2
 356 138 473 193 462 314 c 0
 454 397 203 300 167 452 c 0
 135 590 324 665 452 730 c 2
 475 740 l 1
 487 718 l 1
137 332 m 5
 878 274 l 5
 874 224 l 5
 132 282 l 5
 137 332 l 5
EndSplineSet
EndChar

StartChar: lt_PG
Encoding: 352 -1 121
Width: 999
VWidth: 999
Flags: HW
HStem: 799 20G<170 202 719 724>
VStem: 378 49<90 264> 724 52<731 786>
LayerCount: 2
Fore
SplineSet
97 288 m 2
 215 314 331 354 440 382 c 0
 445 384 464 390 466 394 c 0
 470 400 496 414 500 420 c 0
 504 426 497 422 502 428 c 1
 490 424 458 420 446 418 c 0
 252 392 212 638 157 778 c 2
 148 802 l 1
 170 810 l 1
 194 818 l 1
 203 796 l 2
 268 629 300 441 438 460 c 0
 504 470 590 531 646 613 c 0
 694 681 713 764 724 786 c 1
 724 786 776 807 776 782 c 0
 776 762 772 774 770 766 c 0
 768 764 766 758 764 752 c 0
 722 654 680 583 642 530 c 0
 602 475 564 437 533 402 c 1
 642 421 747 420 836 368 c 0
 912 324 893 224 851 152 c 0
 823 104 782 60 730 32 c 0
 629 -22 444 -18 390 84 c 0
 380 103 376 128 378 152 c 0
 385 226 397 280 419 324 c 1
 321 298 217 264 108 240 c 2
 83 234 l 1
 78 258 l 1
 72 283 l 1
 97 288 l 2
97 288 m 1
 98 288 96 288 97 288 c 1
486 341 m 0
 484 339 481 333 479 331 c 0
 453 289 435 234 427 146 c 0
 425 130 428 119 434 108 c 0
 466 47 617 28 706 76 c 0
 748 98 784 137 808 178 c 0
 849 248 845 304 810 326 c 0
 728 374 626 372 506 346 c 0
 499 344 493 343 486 341 c 0
137 568 m 5
 878 510 l 5
 874 460 l 5
 132 518 l 5
 137 568 l 5
EndSplineSet
EndChar

StartChar: lt_PQ
Encoding: 353 -1 122
Width: 999
VWidth: 999
Flags: HW
HStem: 788 20G<746 772>
VStem: 246 50<-16 532> 253 49<10 532> 722 50<370 806>
LayerCount: 2
Fore
SplineSet
522 509 m 1xb0
 517 485 l 1
 492 491 l 1
 302 532 l 1xb0
 296 8 l 1
 296 -17 l 1
 271 -16 l 1
 246 -16 l 1
 246 10 l 1
 246 11 245 10 246 10 c 1xd0
 253 564 l 1
 253 595 l 1
 283 588 l 1
 503 539 l 1
 528 534 l 1
 522 509 l 1xb0
746 806 m 1
 772 808 l 1
 772 782 l 1
 778 343 l 1
 778 316 l 1
 750 318 l 1
 290 356 l 1
 266 358 l 1
 268 383 l 1
 270 408 l 1
 295 406 l 1
 727 370 l 1
 722 782 l 1
 722 806 l 1
 746 806 l 1
127 503 m 5
 869 445 l 5
 864 395 l 5
 122 454 l 5
 127 503 l 5
EndSplineSet
EndChar

StartChar: lt_PE
Encoding: 354 -1 123
Width: 999
VWidth: 999
Flags: HW
HStem: -17 50<172 240 290 358>
VStem: 240 50<-8 210> 546 48<53 113>
LayerCount: 2
Fore
SplineSet
644 192 m 1
 648 186 l 1
 642 182 l 2
 641 177 640 174 638 170 c 0
 626 133 610 105 600 67 c 2
 594 42 l 1
 570 49 l 1
 546 55 l 1
 552 79 l 2
 560 107 570 129 578 149 c 1
 550 135 504 113 470 154 c 0
 421 216 500 276 536 299 c 0
 546 305 553 308 563 310 c 0
 595 314 641 297 647 254 c 0
 649 231 648 211 644 192 c 1
598 218 m 0
 599 228 600 237 598 248 c 0
 597 252 587 262 571 260 c 0
 569 259 564 258 562 257 c 0
 516 228 498 198 509 185 c 0
 519 173 534 183 588 212 c 0
 590 214 596 216 598 218 c 0
251 412 m 1
 249 290 285 177 290 17 c 1
 289 17 290 16 290 17 c 1
 290 -8 l 1
 266 -10 l 1
 241 -10 l 1
 240 14 l 2
 235 176 194 292 202 438 c 0
 204 480 210 525 222 574 c 0
 251 684 332 803 462 781 c 0
 478 779 494 774 512 769 c 0
 634 735 820 646 780 498 c 0
 725 295 417 396 251 412 c 1
253 462 m 1
 453 443 694 368 732 511 c 0
 757 605 629 686 499 721 c 0
 483 725 468 730 454 732 c 0
 366 748 299 665 271 562 c 0
 261 527 255 494 253 462 c 1
172 10 m 1
 172 35 l 1
 198 35 l 1
 332 34 l 1
 358 32 l 1
 358 8 l 1
 358 -18 l 1
 332 -17 l 1
 197 -14 l 1
 172 -14 l 1
 172 10 l 1
82 278 m 5
 823 221 l 5
 818 170 l 5
 77 229 l 5
 82 278 l 5
EndSplineSet
EndChar

StartChar: lt_PU
Encoding: 355 -1 124
Width: 999
VWidth: 999
Flags: HW
HStem: 362 50<532 818> 715 50<299 725> 754 49<150 308> 776 20G<810 854>
LayerCount: 2
Fore
SplineSet
148 778 m 1xa0
 150 803 l 1xa0
 175 802 l 2
 309 788 380 768 512 766 c 0
 626 764 691 781 810 791 c 2
 872 796 l 1
 830 749 l 2
 710 613 603 561 529 428 c 1
 584 420 642 415 710 413 c 0
 775 411 807 431 880 460 c 2
 902 469 l 1
 912 446 l 1
 922 422 l 1
 898 414 l 2
 831 388 788 360 709 362 c 0
 632 364 567 374 506 382 c 1
 454 261 501 188 512 40 c 2
 518 -44 l 1
 457 19 l 1
 134 450 l 1
 98 498 l 1
 158 490 l 2
 285 472 380 452 478 436 c 1
 550 575 647 634 748 734 c 1
 671 724 607 713 512 715 c 0xd0
 375 717 300 737 169 751 c 2
 144 754 l 1
 148 778 l 1xa0
455 389 m 1
 377 401 303 418 211 432 c 1
 460 94 l 1
 446 182 417 287 455 389 c 1
158 658 m 5
 902 599 l 5
 898 550 l 5
 155 607 l 5
 158 658 l 5
EndSplineSet
EndChar

StartChar: lt_MA
Encoding: 356 -1 125
Width: 999
VWidth: 0
Flags: HW
HStem: -2 50<190 821> 98 50<506 672> 565 50<475 521> 724 50<282 368 641 708>
LayerCount: 2
Fore
SplineSet
482 496 m 1
 502 520 l 1
 520 496 l 1
 892 38 l 1
 926 -2 l 1
 874 -2 l 1
 137 -2 l 1
 85 -2 l 1
 118 38 l 1
 482 496 l 1
502 440 m 1
 190 48 l 1
 821 47 l 1
 502 440 l 1
168 578 m 1
 146 592 l 1
 158 614 l 2
 196 680 236 776 342 774 c 0
 464 772 450 615 497 614 c 0
 533 613 567 773 661 769 c 0
 756 764 801 680 850 614 c 2
 864 595 l 1
 844 580 l 1
 824 565 l 1
 809 586 l 2
 754 660 721 717 659 719 c 0
 629 721 592 563 494 565 c 0
 379 567 403 722 341 724 c 0
 274 726 249 666 202 588 c 2
 190 566 l 1
 168 578 l 1
356 268 m 5
 355 280 l 5
 355 292 l 5
 368 292 l 5
 380 293 l 6
 428 295 489 300 533 248 c 4
 537 243 541 237 542 229 c 4
 547 199 517 178 505 168 c 5
 512 164 515 160 521 158 c 4
 552 146 585 152 649 148 c 6
 662 148 l 5
 674 146 l 5
 673 134 l 5
 672 122 l 5
 672 109 l 5
 671 97 l 5
 658 98 l 5
 646 98 l 6
 588 100 548 95 502 113 c 4
 488 119 475 127 461 138 c 4
 454 143 447 151 446 162 c 4
 444 175 451 186 455 191 c 4
 465 204 480 215 488 222 c 5
 462 245 429 244 382 242 c 6
 370 242 l 5
 358 242 l 5
 356 254 l 5
 356 268 l 5
EndSplineSet
EndChar

StartChar: lt_MB
Encoding: 357 -1 126
Width: 999
VWidth: 0
Flags: HW
HStem: 26 50<572 760> 232 50<323 488> 252 50<558 607> 378 50<173 305>
VStem: 172 14<377 427> 472 49<488 604> 497 50<314 362> 768 49<77 161>
LayerCount: 2
Fore
SplineSet
172 402 m 1xd9
 172 414 l 1
 172 427 l 1
 184 428 l 1
 197 428 l 2
 245 430 306 434 350 382 c 0
 354 377 359 370 360 362 c 0
 365 332 334 312 322 302 c 1xb9
 329 298 332 296 338 294 c 0
 369 282 402 286 466 282 c 2
 478 282 l 1
 491 281 l 1
 490 268 l 1
 490 256 l 1
 488 242 l 1
 488 230 l 1
 475 232 l 1
 462 232 l 2
 404 234 366 230 320 248 c 0
 306 254 292 261 278 272 c 0
 271 277 264 287 263 298 c 0
 261 311 268 320 272 325 c 0
 282 338 298 351 306 358 c 1
 280 381 245 380 198 378 c 2
 186 378 l 1
 173 377 l 1
 173 389 l 1
 172 402 l 1xd9
496 606 m 5
 521 610 l 5xbd
 524 586 l 6
 535 506 540 456 574 458 c 4
 612 462 613 538 611 599 c 6
 611 605 l 5
 660 601 l 6
 667 600 672 537 674 523 c 4
 697 425 697 357 635 272 c 4
 623 255 604 251 588 252 c 4
 548 254 493 295 497 342 c 6
 498 367 l 5
 523 364 l 5
 548 362 l 5
 547 338 l 6xbb
 548 330 579 300 593 302 c 4
 594 302 594 302 594 302 c 4
 632 356 646 424 641 476 c 5
 629 458 604 411 578 409 c 4
 481 399 483 526 475 578 c 6
 472 602 l 5xbd
 496 606 l 5
778 662 m 1
 756 648 l 1
 742 668 l 2
 720 698 687 744 670 743 c 0
 472 731 360 747 251 635 c 0
 168 550 185 514 186 398 c 0
 187 279 174 190 260 104 c 0
 368 -5 510 64 752 76 c 1
 759 88 766 126 768 144 c 2
 772 169 l 1
 797 166 l 1
 821 160 l 1
 817 136 l 2
 816 128 818 28 760 26 c 0
 534 15 361 -68 224 70 c 0
 122 173 137 285 136 397 c 0
 135 509 115 568 215 670 c 0
 351 809 485 785 671 793 c 0
 721 795 760 728 782 698 c 2
 797 677 l 1
 778 662 l 1
EndSplineSet
EndChar

StartChar: lt_MC
Encoding: 358 -1 127
Width: 999
VWidth: 0
Flags: HW
HStem: 4 50<172 820> 168 50<482 647>
LayerCount: 2
Fore
SplineSet
332 338 m 5
 331 350 l 5
 331 362 l 5
 343 362 l 5
 356 362 l 6
 404 364 465 370 509 318 c 4
 513 313 517 307 518 299 c 4
 523 269 493 248 481 238 c 5
 488 234 491 232 497 230 c 4
 528 218 560 222 624 218 c 6
 637 218 l 5
 649 217 l 5
 648 204 l 5
 648 192 l 5
 647 179 l 5
 646 167 l 5
 634 168 l 5
 622 168 l 6
 564 170 524 164 478 182 c 4
 464 188 450 197 436 208 c 4
 429 213 423 221 422 232 c 4
 420 245 427 257 431 262 c 4
 441 275 456 285 464 292 c 5
 438 315 405 315 358 313 c 6
 346 312 l 5
 332 312 l 5
 332 325 l 5
 332 338 l 5
481 720 m 0
 483 697 496 687 504 688 c 0
 518 689 531 703 529 721 c 0
 527 743 511 756 493 754 c 0
 487 754 479 744 481 720 c 0
431 712 m 0
 427 744 438 802 490 804 c 0
 538 808 573 770 578 728 c 0
 584 686 555 640 508 638 c 0
 460 636 436 678 431 712 c 0
478 640 m 1
 498 674 l 1
 518 640 l 1
 886 42 l 1
 910 2 l 1
 865 2 l 1
 127 4 l 1
 82 4 l 1
 106 42 l 1
 478 640 l 1
498 580 m 1
 172 54 l 1
 820 53 l 1
 498 580 l 1
EndSplineSet
EndChar

StartChar: lt_MD
Encoding: 359 -1 128
Width: 999
VWidth: 0
Flags: HW
HStem: 240 50<683 836> 774 20G<184 218 781 816>
LayerCount: 2
Fore
SplineSet
534 409 m 5
 533 422 l 5
 533 434 l 5
 546 434 l 5
 558 434 l 6
 606 436 668 442 712 390 c 4
 716 385 720 379 721 371 c 4
 726 341 695 320 683 310 c 5
 690 306 692 304 698 302 c 4
 729 290 763 294 827 290 c 6
 839 289 l 5
 852 288 l 5
 851 276 l 5
 850 263 l 5
 850 251 l 5
 848 238 l 5
 836 239 l 5
 823 240 l 6
 765 242 728 236 682 254 c 4
 668 260 652 267 638 278 c 4
 631 283 625 293 624 304 c 4
 622 317 630 327 634 332 c 4
 644 345 659 357 667 364 c 5
 641 387 606 387 559 385 c 6
 547 384 l 5
 534 384 l 5
 534 397 l 5
 534 409 l 5
816 778 m 1
 835 762 l 1
 818 743 l 1
 218 4 l 1
 203 -14 l 1
 184 1 l 1
 166 17 l 1
 181 36 l 1
 781 775 l 1
 797 794 l 1
 816 778 l 1
184 778 m 1
 203 794 l 1
 218 775 l 1
 818 36 l 1
 835 17 l 1
 816 1 l 1
 797 -14 l 1
 781 4 l 1
 181 743 l 1
 166 762 l 1
 184 778 l 1
EndSplineSet
EndChar

StartChar: lt_ME
Encoding: 360 -1 129
Width: 999
VWidth: 0
Flags: HW
HStem: -17 50<172 240 290 358> 152 50<394 558> 298 50<242 254 256 373>
VStem: 240 50<-8 214> 242 10<298 348>
LayerCount: 2
Fore
SplineSet
242 322 m 1xe8
 242 335 l 1
 242 348 l 1
 254 348 l 1
 266 348 l 2
 314 350 376 354 420 302 c 0
 424 297 429 292 430 284 c 0
 435 254 404 233 392 223 c 1
 399 219 402 217 408 215 c 0
 439 203 472 207 536 203 c 2
 548 202 l 1
 560 202 l 1
 560 190 l 1
 559 178 l 1
 558 164 l 1
 558 152 l 1
 545 152 l 1
 532 154 l 2
 474 156 435 150 389 168 c 0
 375 174 362 181 348 192 c 0
 341 197 333 207 332 218 c 0
 330 231 338 241 342 246 c 0
 352 259 366 271 374 278 c 1
 348 301 315 300 268 298 c 2
 256 298 l 1
 242 298 l 1
 242 310 l 1
 242 322 l 1xe8
736 182 m 5
 738 178 l 5
 734 174 l 6
 733 169 732 164 730 160 c 4
 718 123 702 96 692 58 c 6
 685 34 l 5
 661 40 l 5
 637 46 l 5
 643 70 l 6
 651 98 660 120 668 140 c 5
 640 126 596 103 562 144 c 4
 513 206 590 267 626 290 c 4
 636 296 645 298 655 300 c 4
 687 304 732 288 738 245 c 4
 740 222 740 201 736 182 c 5
689 209 m 4
 690 219 690 227 688 238 c 4
 687 242 678 252 662 250 c 4
 660 249 655 249 653 248 c 4
 607 219 590 188 601 175 c 4
 611 163 624 174 678 203 c 4
 680 205 687 207 689 209 c 4
251 412 m 1
 249 290 285 177 290 17 c 1
 289 17 290 16 290 17 c 1
 290 -8 l 1
 266 -10 l 1
 241 -10 l 1
 240 14 l 2xf0
 235 176 194 292 202 438 c 0
 204 480 210 525 222 574 c 0
 251 684 332 803 462 781 c 0
 478 779 494 774 512 769 c 0
 634 735 820 646 780 498 c 0
 725 295 417 396 251 412 c 1
253 462 m 1
 453 443 694 368 732 511 c 0
 757 605 629 686 499 721 c 0
 483 725 468 730 454 732 c 0
 366 748 299 665 271 562 c 0
 261 527 255 494 253 462 c 1
172 10 m 1
 172 35 l 1
 198 35 l 1
 332 34 l 1
 358 32 l 1
 358 8 l 1
 358 -18 l 1
 332 -17 l 1
 197 -14 l 1
 172 -14 l 1
 172 10 l 1
EndSplineSet
EndChar

StartChar: lt_MF
Encoding: 361 -1 130
Width: 999
VWidth: 0
Flags: HW
HStem: 22 22G<134 170> 62 50<638 802> 208 50<488 619> 762 20G<479 515 762 788>
VStem: 474 50<18 208 258 746> 488 36<208 258> 762 50<601 781>
LayerCount: 2
Fore
SplineSet
488 232 m 5xf6
 487 245 l 5
 487 258 l 5
 499 258 l 5
 512 258 l 6
 560 260 621 266 665 214 c 4
 669 209 673 202 674 194 c 4
 679 164 649 142 637 132 c 5
 644 128 646 126 652 124 c 4
 683 112 716 117 780 113 c 6
 792 112 l 5
 805 112 l 5
 804 98 l 5
 803 86 l 5
 802 74 l 5
 802 62 l 5
 790 62 l 5
 778 62 l 6
 720 64 680 60 634 78 c 4
 620 84 606 91 592 102 c 4
 585 107 579 117 578 128 c 4
 576 141 583 151 587 156 c 4
 597 169 612 181 620 188 c 5
 594 211 559 210 512 208 c 6
 500 208 l 5
 488 208 l 5
 488 220 l 5
 488 232 l 5xf6
910 662 m 1
 932 654 l 1
 925 630 l 2
 885 509 864 439 763 348 c 0
 651 248 513 351 427 293 c 0
 306 214 265 155 170 40 c 2
 154 22 l 1
 134 37 l 1
 116 52 l 1
 132 72 l 2
 226 184 271 252 398 335 c 0
 528 420 650 313 730 385 c 0
 822 468 838 524 878 646 c 2
 886 670 l 1
 910 662 l 1
788 781 m 1
 812 781 l 1
 812 756 l 2
 810 634 799 550 696 458 c 0
 584 358 444 464 358 406 c 0
 237 327 197 267 102 152 c 2
 86 132 l 1
 68 148 l 1
 48 166 l 1
 62 184 l 2
 156 296 205 363 332 446 c 0
 462 531 582 425 662 497 c 0
 753 579 760 636 762 757 c 2
 762 782 l 1
 788 781 l 1
479 766 m 1
 498 785 l 1
 516 764 l 1
 708 542 l 1
 689 526 l 1
 670 508 l 1
 496 710 l 1
 300 505 l 1
 282 522 l 1
 263 539 l 1
 479 766 l 1
494 746 m 1
 520 746 l 1
 520 739 l 1
 524 42 l 1
 524 18 l 1
 499 17 l 1
 474 17 l 1
 474 42 l 1xfa
 470 739 l 1
 470 746 l 1
 494 746 l 1
EndSplineSet
EndChar

StartChar: lt_MG
Encoding: 362 -1 131
Width: 999
VWidth: 0
Flags: HW
HStem: 120 50<583 736> 264 50<434 446 458 565> 799 20G<170 202 719 724>
VStem: 378 49<90 264> 724 52<731 786>
LayerCount: 2
Fore
SplineSet
434 289 m 5
 433 302 l 5
 433 314 l 5
 446 314 l 5
 458 314 l 6
 506 316 568 322 612 270 c 4
 616 265 621 259 622 251 c 4
 627 221 595 200 583 190 c 5
 590 186 593 184 599 182 c 4
 630 170 663 174 727 170 c 6
 739 169 l 5
 752 168 l 5
 751 156 l 5
 750 143 l 5
 749 131 l 5
 748 118 l 5
 736 119 l 5
 722 120 l 6
 664 122 627 116 581 134 c 4
 567 140 552 147 538 158 c 4
 531 163 525 173 524 184 c 4
 522 197 529 207 533 212 c 4
 543 225 558 237 566 244 c 5
 540 267 505 267 458 265 c 6
 446 264 l 5
 434 264 l 5
 434 277 l 5
 434 289 l 5
97 288 m 2
 215 314 331 354 440 382 c 0
 445 384 464 390 466 394 c 0
 470 400 496 414 500 420 c 0
 504 426 497 422 502 428 c 1
 490 424 458 420 446 418 c 0
 252 392 212 638 157 778 c 2
 148 802 l 1
 170 810 l 1
 194 818 l 1
 203 796 l 2
 268 629 300 441 438 460 c 0
 504 470 590 531 646 613 c 0
 694 681 713 764 724 786 c 1
 724 786 776 807 776 782 c 0
 776 762 772 774 770 766 c 0
 768 764 766 758 764 752 c 0
 722 654 680 583 642 530 c 0
 602 475 564 437 533 402 c 1
 642 421 747 420 836 368 c 0
 912 324 893 224 851 152 c 0
 823 104 782 60 730 32 c 0
 629 -22 444 -18 390 84 c 0
 380 103 376 128 378 152 c 0
 385 226 397 280 419 324 c 1
 321 298 217 264 108 240 c 2
 83 234 l 1
 78 258 l 1
 72 283 l 1
 97 288 l 2
97 288 m 1
 98 288 96 288 97 288 c 1
486 341 m 0
 484 339 481 333 479 331 c 0
 453 289 435 234 427 146 c 0
 425 130 428 119 434 108 c 0
 466 47 617 28 706 76 c 0
 748 98 784 137 808 178 c 0
 849 248 845 304 810 326 c 0
 728 374 626 372 506 346 c 0
 499 344 493 343 486 341 c 0
EndSplineSet
EndChar

StartChar: lt_MH
Encoding: 363 -1 132
Width: 999
VWidth: 0
Flags: HW
HStem: 348 50<432 562> 762 20G<752 785>
LayerCount: 2
Fore
SplineSet
432 373 m 5
 432 386 l 5
 431 398 l 5
 443 398 l 5
 456 398 l 6
 504 400 566 405 610 353 c 4
 614 348 617 343 618 335 c 4
 623 305 593 284 581 274 c 5
 588 270 592 267 598 265 c 4
 629 253 661 257 725 253 c 6
 738 253 l 5
 750 252 l 5
 749 240 l 5
 748 228 l 5
 748 215 l 5
 746 202 l 5
 734 203 l 5
 722 204 l 6
 664 206 624 200 578 218 c 4
 564 224 552 231 538 242 c 4
 531 247 523 257 522 268 c 4
 520 281 526 293 530 298 c 4
 540 311 556 321 564 328 c 5
 538 351 505 351 458 349 c 6
 445 348 l 5
 432 348 l 5
 432 361 l 5
 432 373 l 5
786 760 m 1
 798 738 l 1
 775 727 l 2
 627 653 495 588 515 506 c 0
 531 440 800 500 812 362 c 0
 826 200 670 131 542 46 c 2
 522 31 l 1
 508 52 l 1
 494 72 l 1
 516 86 l 2
 656 180 773 237 762 358 c 0
 754 441 503 342 467 494 c 0
 435 632 624 707 752 772 c 2
 775 782 l 1
 786 760 l 1
487 718 m 1
 498 696 l 1
 475 684 l 2
 327 610 195 545 215 463 c 0
 231 397 500 457 512 319 c 0
 526 157 370 87 242 2 c 1
 243 2 243 3 242 2 c 1
 222 -11 l 1
 209 10 l 1
 194 31 l 1
 216 44 l 2
 356 138 473 193 462 314 c 0
 454 397 203 300 167 452 c 0
 135 590 324 665 452 730 c 2
 475 740 l 1
 487 718 l 1
EndSplineSet
EndChar

StartChar: lt_MI
Encoding: 364 -1 133
Width: 999
VWidth: 0
Flags: HW
HStem: 252 50<755 920> 397 50<606 617 618 737>
LayerCount: 2
Fore
SplineSet
605 421 m 5
 604 433 l 5
 604 446 l 5
 617 446 l 5
 629 446 l 6
 677 448 738 454 782 402 c 4
 786 397 791 390 792 382 c 4
 797 352 766 332 754 322 c 5
 761 318 764 315 770 313 c 4
 801 301 834 306 898 302 c 6
 910 301 l 5
 922 300 l 5
 922 288 l 5
 922 275 l 5
 920 262 l 5
 920 250 l 5
 908 251 l 5
 895 252 l 6
 837 254 798 248 752 266 c 4
 738 272 724 281 710 292 c 4
 703 297 696 305 695 316 c 4
 693 329 700 339 704 344 c 4
 714 357 730 370 738 377 c 5
 712 400 678 399 631 397 c 6
 618 397 l 5
 606 396 l 5
 605 408 l 5
 605 421 l 5
862 620 m 1
 842 607 l 1
 828 628 l 2
 826 630 824 633 822 635 c 0
 764 717 678 764 617 722 c 0
 483 628 420 378 458 212 c 0
 468 169 490 131 518 103 c 0
 596 25 729 8 842 122 c 2
 860 142 l 1
 878 122 l 1
 895 106 l 1
 878 88 l 2
 747 -44 580 -30 482 68 c 0
 447 103 420 148 408 200 c 0
 365 382 430 653 588 763 c 0
 688 833 803 750 864 664 c 0
 866 662 868 657 870 655 c 2
 883 634 l 1
 862 620 l 1
121 578 m 1
 98 588 l 1
 108 612 l 2
 122 644 147 678 175 710 c 0
 236 777 337 842 419 768 c 0
 601 600 669 407 598 166 c 0
 578 99 545 51 502 22 c 0
 386 -56 227 14 132 156 c 2
 118 178 l 1
 139 191 l 1
 160 205 l 1
 173 184 l 2
 261 53 392 8 474 62 c 0
 506 84 532 122 550 180 c 0
 616 403 557 574 385 732 c 0
 339 774 272 744 212 677 c 0
 187 649 166 616 154 590 c 2
 143 568 l 1
 121 578 l 1
EndSplineSet
EndChar

StartChar: lt_MK
Encoding: 365 -1 134
Width: 999
VWidth: 0
Flags: HW
HStem: 26 50<611 829> 337 50<740 906> 772 20G<794 868>
LayerCount: 2
Fore
SplineSet
590 506 m 5
 590 518 l 5
 590 530 l 5
 602 532 l 5
 614 532 l 6
 662 534 724 539 768 487 c 4
 772 482 777 476 778 468 c 4
 783 438 752 417 740 407 c 5
 747 403 750 400 756 398 c 4
 787 386 820 390 884 386 c 6
 898 386 l 5
 910 385 l 5
 908 372 l 5
 908 360 l 5
 907 348 l 5
 906 335 l 5
 893 336 l 5
 881 337 l 6
 823 339 784 334 738 352 c 4
 724 358 710 366 696 377 c 4
 689 382 683 390 682 401 c 4
 680 414 686 425 690 430 c 4
 700 443 714 455 722 462 c 5
 696 485 664 484 617 482 c 6
 604 482 l 5
 592 481 l 5
 590 493 l 5
 590 506 l 5
679 316 m 1
 698 352 l 1
 722 318 l 1
 898 72 l 1
 925 34 l 1
 878 34 l 1
 569 26 l 1
 528 26 l 1
 547 62 l 1
 679 316 l 1
704 257 m 1
 611 78 l 1
 829 82 l 1
 704 257 l 1
808 536 m 1
 782 542 l 1
 758 547 l 1
 766 572 l 1
 791 689 l 1
 107 22 l 1
 88 5 l 1
 71 22 l 1
 53 41 l 1
 72 58 l 1
 734 706 l 1
 611 674 l 1
 599 722 l 1
 630 730 l 1
 874 792 l 1
 808 536 l 1
EndSplineSet
EndChar

StartChar: lt_ML
Encoding: 366 -1 135
Width: 999
VWidth: 0
Flags: HW
HStem: -5 50<548 821> 247 49<604 769> 391 50<455 467 468 587> 782 20G<439 472>
VStem: 418 50<184 386 442 715> 455 12<391 442>
LayerCount: 2
Fore
SplineSet
454 416 m 5xf4
 454 428 l 5
 454 442 l 5
 466 442 l 5
 478 442 l 6
 526 444 588 448 632 396 c 4
 636 391 641 386 642 378 c 4
 647 348 614 326 602 316 c 5
 609 312 614 310 620 308 c 4
 651 296 684 300 748 296 c 6
 760 296 l 5
 772 295 l 5
 772 282 l 5
 770 270 l 5
 770 258 l 5
 769 245 l 5
 757 246 l 5
 744 247 l 6
 686 249 648 244 602 262 c 4
 588 268 573 275 559 286 c 4
 552 291 546 300 545 311 c 4
 543 324 549 333 553 338 c 4
 563 351 580 364 588 371 c 5
 562 394 527 394 480 392 c 6
 468 391 l 5
 455 391 l 5
 455 403 l 5
 454 416 l 5xf4
467 397 m 1
 466 313 468 230 482 136 c 0
 494 62 591 48 706 46 c 0
 802 44 825 63 907 128 c 2
 926 143 l 1
 942 122 l 1
 958 104 l 1
 938 88 l 2
 856 23 812 -7 704 -5 c 0
 601 -3 452 3 433 128 c 0
 419 220 417 304 418 386 c 1xf8
 122 542 l 1
 84 563 l 1
 121 586 l 1
 434 780 l 1
 470 803 l 1
 472 760 l 2
 476 628 470 519 468 415 c 1
 467 409 l 1
 467 397 l 1
418 442 m 1
 420 528 424 613 422 715 c 1
 184 566 l 1
 418 442 l 1
EndSplineSet
EndChar

StartChar: lt_MN
Encoding: 367 -1 136
Width: 1002
VWidth: 0
Flags: HW
HStem: 22 50<226 766> 85 50<524 690> 229 50<376 386 398 506> 766 20G<816 835>
VStem: 787 48<394 662> 797 50<113 450>
LayerCount: 2
Fore
SplineSet
374 254 m 5xf0
 374 266 l 5
 374 278 l 5
 386 278 l 5
 398 280 l 6
 446 282 508 287 552 235 c 4
 556 230 561 224 562 216 c 4
 567 186 536 164 524 154 c 5
 531 150 534 148 540 146 c 4
 571 134 604 138 668 134 c 6
 680 134 l 5
 692 133 l 5
 692 121 l 5
 691 108 l 5
 690 96 l 5
 690 83 l 5
 678 84 l 5
 665 85 l 6
 607 87 568 82 522 100 c 4
 508 106 494 113 480 124 c 4
 473 129 467 138 466 149 c 4
 464 162 470 173 474 178 c 4
 484 191 500 202 508 209 c 5
 482 232 448 232 401 230 c 6
 388 229 l 5
 376 229 l 5
 374 242 l 5
 374 254 l 5xf0
766 73 m 1
 499 358 l 1
 226 68 l 1
 766 73 l 1
787 662 m 1xf8
 534 395 l 1
 797 113 l 1xf4
 787 662 l 1xf8
500 430 m 1
 835 786 l 1xf8
 848 58 l 1
 848 22 l 1
 822 22 l 1
 799 22 l 1
 109 16 l 1
 466 394 l 1
 157 725 l 1
 193 758 l 1
 500 430 l 1
EndSplineSet
EndChar

StartChar: lt_MO
Encoding: 368 -1 137
Width: 999
VWidth: 0
Flags: HW
HStem: 312 49<529 671> 456 50<380 510> 814 20G<494 510>
LayerCount: 2
Fore
SplineSet
379 481 m 1
 379 493 l 1
 378 506 l 1
 391 506 l 1
 403 506 l 2
 451 508 514 513 558 461 c 0
 562 456 565 450 566 442 c 0
 571 412 540 392 528 382 c 1
 535 378 539 374 545 372 c 0
 576 360 598 365 662 361 c 6
 674 361 l 5
 686 360 l 5
 686 348 l 5
 685 335 l 5
 684 322 l 5
 683 310 l 5
 671 311 l 5
 658 312 l 6
 600 314 573 308 527 326 c 0
 513 332 498 339 484 350 c 0
 477 355 471 365 470 376 c 0
 468 389 474 399 478 404 c 0
 488 417 504 429 512 436 c 1
 486 459 453 459 406 457 c 2
 392 456 l 1
 380 456 l 1
 380 468 l 1
 379 481 l 1
469 245 m 0
 471 222 484 213 492 214 c 0
 506 215 520 229 518 247 c 0
 516 269 499 282 481 280 c 0
 475 280 467 269 469 245 c 0
419 238 m 0
 415 270 426 328 478 330 c 0
 526 334 561 295 566 253 c 0
 572 211 543 166 496 164 c 0
 448 162 424 204 419 238 c 0
188 -1 m 1
 166 8 l 1
 175 32 l 1
 479 778 l 1
 502 834 l 1
 526 776 l 1
 822 28 l 1
 830 4 l 1
 808 -5 l 1
 784 -14 l 1
 775 10 l 1
 502 700 l 1
 221 12 l 1
 212 -11 l 1
 188 -1 l 1
EndSplineSet
EndChar

StartChar: lt_MP
Encoding: 369 -1 138
Width: 999
VWidth: 0
Flags: HW
VStem: 230 50<103 228>
LayerCount: 2
Fore
SplineSet
350 278 m 5
 349 292 l 5
 349 304 l 5
 362 304 l 5
 374 305 l 6
 422 307 484 312 528 260 c 4
 532 255 537 249 538 241 c 4
 543 211 511 189 499 179 c 5
 506 175 509 174 515 172 c 4
 546 160 578 164 642 160 c 6
 655 158 l 5
 668 158 l 5
 667 146 l 5
 666 133 l 5
 665 121 l 5
 665 108 l 5
 652 109 l 5
 640 110 l 6
 582 112 543 107 497 125 c 4
 483 131 469 138 455 149 c 4
 448 154 441 163 440 174 c 4
 438 187 445 197 449 202 c 4
 459 215 474 227 482 234 c 5
 456 257 423 256 376 254 c 6
 362 254 l 5
 350 254 l 5
 350 266 l 5
 350 278 l 5
258 439 m 1
 772 392 l 1
 768 342 l 1
 252 389 l 1
 258 439 l 1
233 637 m 1
 216 655 l 1
 233 672 l 1
 232 671 234 672 233 672 c 1
 313 750 414 803 542 780 c 0
 578 773 618 759 654 739 c 0
 721 702 794 631 750 552 c 0
 692 450 590 430 502 368 c 0
 386 286 275 262 280 154 c 0
 280 152 281 148 281 146 c 0
 291 74 400 35 498 47 c 0
 599 59 663 136 725 228 c 2
 739 248 l 1
 760 235 l 1
 781 221 l 1
 767 200 l 2
 705 108 629 14 504 -2 c 0
 402 -14 244 18 230 140 c 0
 229 142 230 149 230 151 c 0
 222 301 376 342 472 409 c 0
 574 480 660 496 706 578 c 0
 726 615 697 658 630 695 c 0
 599 713 563 725 534 730 c 0
 427 750 342 707 268 636 c 2
 250 618 l 1
 233 637 l 1
EndSplineSet
EndChar

StartChar: lt_MQ
Encoding: 370 -1 139
Width: 999
VWidth: 0
Flags: HW
HStem: 110 50<438 590> 254 50<289 421> 788 20G<746 772>
VStem: 246 50<-16 532> 253 49<10 532> 722 50<370 806>
LayerCount: 2
Fore
SplineSet
289 280 m 5xec
 288 292 l 5
 288 305 l 5
 301 305 l 5
 313 306 l 6
 361 308 423 314 467 262 c 4
 471 257 475 250 476 242 c 4
 481 212 450 191 438 181 c 5
 445 177 448 174 454 172 c 4
 485 160 518 165 582 161 c 6
 594 160 l 5
 607 158 l 5
 606 146 l 5
 605 134 l 5
 604 122 l 5
 602 109 l 5
 590 110 l 5
 578 110 l 6
 520 112 482 108 436 126 c 4
 422 132 408 139 394 150 c 4
 387 155 380 164 379 175 c 4
 377 188 384 198 388 203 c 4
 398 216 414 228 422 235 c 5
 396 258 361 258 314 256 c 6
 302 254 l 5
 289 254 l 5
 289 268 l 5
 289 280 l 5xec
522 509 m 1
 517 485 l 1
 492 491 l 1
 302 532 l 1xec
 296 8 l 1
 296 -17 l 1
 271 -16 l 1
 246 -16 l 1
 246 10 l 1
 246 11 245 10 246 10 c 1xf4
 253 564 l 1
 253 595 l 1
 283 588 l 1
 503 539 l 1
 528 534 l 1
 522 509 l 1
746 806 m 1
 772 808 l 1
 772 782 l 1
 778 343 l 1
 778 316 l 1
 750 318 l 1
 290 356 l 1
 266 358 l 1
 268 383 l 1
 270 408 l 1
 295 406 l 1
 727 370 l 1
 722 782 l 1
 722 806 l 1
 746 806 l 1
EndSplineSet
EndChar

StartChar: lt_MR
Encoding: 371 -1 140
Width: 999
VWidth: 0
Flags: HW
HStem: 430 50<121 132 133 250> 785 20G<382 414 584 614>
VStem: 78 42<430 479> 120 8<430 479> 836 50<150 244 540 640>
LayerCount: 2
Fore
SplineSet
120 454 m 5xe8
 119 467 l 5
 119 479 l 5
 132 479 l 5
 144 480 l 6
 192 482 254 486 298 434 c 4
 302 429 306 424 307 416 c 4
 312 386 281 364 269 354 c 5
 276 350 280 349 286 347 c 4
 317 335 348 339 412 335 c 6
 425 334 l 5
 438 334 l 5
 437 322 l 5
 436 308 l 5
 434 296 l 5
 434 283 l 5
 422 284 l 5
 410 286 l 6
 352 288 312 282 266 300 c 4
 252 306 240 313 226 324 c 4
 219 329 211 338 210 349 c 4
 208 362 214 373 218 378 c 4
 228 391 244 402 252 409 c 5
 226 432 193 432 146 430 c 6
 133 430 l 5
 121 430 l 5
 120 442 l 5
 120 454 l 5xe8
583 782 m 1
 592 805 l 1
 614 797 l 2
 720 759 885 726 887 578 c 0
 889 451 646 420 638 408 c 1
 648 389 886 334 886 202 c 0
 886 68 712 34 618 8 c 2
 594 1 l 1
 587 25 l 1
 580 49 l 1
 604 56 l 1
 714 88 836 120 836 202 c 0
 836 298 587 305 587 408 c 0
 587 517 840 488 838 577 c 0
 836 679 719 707 598 749 c 2
 575 758 l 1
 583 782 l 1
415 785 m 1
 427 763 l 1
 404 752 l 2
 250 673 126 581 128 418 c 0xd8
 130 240 248 138 418 60 c 2
 439 49 l 1
 428 26 l 1
 418 4 l 1
 396 14 l 2
 220 96 80 215 78 418 c 0
 76 612 228 717 382 796 c 2
 404 808 l 1
 415 785 l 1
EndSplineSet
EndChar

StartChar: lt_MS
Encoding: 372 -1 141
Width: 999
VWidth: 0
Flags: HW
HStem: 114 49<665 830> 258 50<516 647> 343 50<143 410> 358 50<493 800> 805 20G<472 494>
VStem: 472 50<110 710> 480 50<-8 624>
LayerCount: 2
Fore
SplineSet
515 283 m 1xc8
 514 296 l 1
 514 308 l 1
 527 308 l 1
 539 310 l 2
 587 312 648 315 692 263 c 0
 696 258 701 253 702 245 c 0
 707 215 676 192 664 182 c 1
 671 178 674 177 680 175 c 0
 711 163 744 167 808 163 c 2
 820 163 l 1
 832 162 l 1
 832 150 l 1
 830 138 l 1
 830 125 l 1
 830 112 l 1
 818 113 l 1
 805 114 l 2
 747 116 708 112 662 130 c 0
 648 136 634 143 620 154 c 0
 613 159 606 167 605 178 c 0
 603 191 610 201 614 206 c 0
 624 219 640 231 648 238 c 1
 622 261 588 261 541 259 c 2
 528 258 l 1
 516 258 l 1
 515 271 l 1
 515 283 l 1xc8
805 389 m 4
 807 366 820 357 828 358 c 4xd8
 842 359 855 373 853 391 c 4
 851 413 835 426 817 424 c 4
 811 424 803 413 805 389 c 4
755 382 m 4
 751 414 762 472 814 474 c 4
 862 478 897 440 902 398 c 4
 908 356 879 310 832 308 c 4
 784 306 760 348 755 382 c 4
143 368 m 5
 142 392 l 5
 168 394 l 5
 167 394 168 393 168 394 c 5xe8
 775 408 l 5
 800 408 l 5
 802 383 l 5
 802 358 l 5
 778 358 l 5xd8
 168 343 l 5
 168 344 167 343 168 343 c 5xe8
 143 342 l 5
 143 368 l 5
505 -8 m 1
 480 -8 l 1
 480 17 l 1xca
 472 768 l 1
 472 826 l 1
 514 787 l 1
 768 557 l 1
 787 540 l 1
 769 521 l 1
 752 502 l 1
 734 518 l 1
 522 710 l 1xcc
 530 18 l 1
 530 -8 l 1xca
 505 -8 l 1
EndSplineSet
EndChar

StartChar: lt_MT
Encoding: 373 -1 142
Width: 999
VWidth: 0
Flags: HW
HStem: 197 50<665 830> 342 50<516 647> 640 55<286 482 485 528 532 701> 760 50<473 532>
VStem: 470 50<-10 146 341 353> 481 50<277 695>
LayerCount: 2
Fore
SplineSet
515 366 m 5xf0
 514 378 l 5
 514 391 l 5
 527 392 l 5
 539 392 l 6
 587 394 648 399 692 347 c 4
 696 342 701 336 702 328 c 4
 707 298 676 276 664 266 c 5
 671 262 674 260 680 258 c 4
 711 246 744 251 808 247 c 6
 820 246 l 5
 832 245 l 5
 832 232 l 5
 830 220 l 5
 830 208 l 5
 830 194 l 5
 818 196 l 5
 805 197 l 6
 747 199 708 194 662 212 c 4
 648 218 634 227 620 238 c 4
 613 243 606 251 605 262 c 4
 603 275 610 284 614 289 c 4
 624 302 640 315 648 322 c 5
 622 345 588 344 541 342 c 6
 528 342 l 5
 516 341 l 5
 515 353 l 5
 515 366 l 5xf0
496 -10 m 1
 470 -10 l 1
 470 14 l 1xf8
 481 670 l 1
 482 695 l 1
 506 695 l 1
 532 695 l 1
 530 670 l 1xf4
 521 14 l 1
 521 -10 l 1xf8
 496 -10 l 1
227 582 m 1
 204 593 l 1
 216 616 l 1
 248 677 l 1
 254 690 l 1
 270 690 l 1
 712 694 l 1
 725 694 l 1
 733 684 l 1
 779 623 l 1
 794 602 l 1
 774 588 l 1
 754 574 l 1
 739 593 l 1
 701 644 l 1
 286 640 l 1
 260 592 l 1
 248 570 l 1
 227 582 l 1
504 714 m 1
 532 760 l 1
 473 760 l 1
 504 714 l 1
485 654 m 1
 406 770 l 1
 379 808 l 1
 426 809 l 1
 576 811 l 1
 620 812 l 1
 598 773 l 1
 528 655 l 1
 508 622 l 1
 485 654 l 1
EndSplineSet
EndChar

StartChar: lt_MU
Encoding: 374 -1 143
Width: 999
VWidth: 0
Flags: HW
HStem: 127 50<613 766> 272 50<464 478 488 595> 362 50<532 818> 715 50<299 725> 754 49<150 308> 776 20G<810 854>
LayerCount: 2
Fore
SplineSet
464 296 m 5xe0
 463 308 l 5
 463 322 l 5
 476 322 l 5
 488 322 l 6
 536 324 598 329 642 277 c 4
 646 272 649 266 650 258 c 4
 655 228 625 207 613 197 c 5
 620 193 623 190 629 188 c 4
 660 176 693 182 757 178 c 6
 769 176 l 5
 782 175 l 5
 781 162 l 5
 780 150 l 5
 779 138 l 5
 778 125 l 5
 766 126 l 5
 754 127 l 6
 696 129 657 124 611 142 c 4
 597 148 582 156 568 167 c 4
 561 172 555 180 554 191 c 4
 552 204 559 213 563 218 c 4
 573 231 590 245 598 252 c 5
 572 275 537 274 490 272 c 6
 478 272 l 5
 464 271 l 5
 464 283 l 5
 464 296 l 5xe0
148 778 m 1
 150 803 l 1xe8
 175 802 l 2
 309 788 380 768 512 766 c 0
 626 764 691 781 810 791 c 2
 872 796 l 1
 830 749 l 2
 710 613 603 561 529 428 c 1
 584 420 642 415 710 413 c 0
 775 411 807 431 880 460 c 2
 902 469 l 1
 912 446 l 1
 922 422 l 1
 898 414 l 2
 831 388 788 360 709 362 c 0
 632 364 567 374 506 382 c 1
 454 261 501 188 512 40 c 2
 518 -44 l 1
 457 19 l 1
 134 450 l 1
 98 498 l 1
 158 490 l 2
 285 472 380 452 478 436 c 1
 550 575 647 634 748 734 c 1
 671 724 607 713 512 715 c 0xf4
 375 717 300 737 169 751 c 2
 144 754 l 1xe8
 148 778 l 1
455 389 m 1
 377 401 303 418 211 432 c 1
 460 94 l 1
 446 182 417 287 455 389 c 1
EndSplineSet
EndChar

StartChar: lt_MV
Encoding: 375 -1 144
Width: 999
VWidth: 0
Flags: HW
HStem: -17 46<667 678> 244 49<626 779> 388 50<478 487 490 607> 793 20G<647 674>
VStem: 277 50<314 532> 478 10<388 438>
LayerCount: 2
Fore
SplineSet
478 413 m 5
 478 426 l 5
 476 438 l 5
 488 438 l 5
 502 439 l 6
 550 441 611 446 655 394 c 4
 659 389 661 382 662 374 c 4
 667 344 638 323 626 313 c 5
 633 309 636 307 642 305 c 4
 673 293 706 297 770 293 c 6
 782 293 l 5
 794 292 l 5
 794 280 l 5
 793 268 l 5
 792 254 l 5
 792 242 l 5
 779 242 l 5
 767 244 l 6
 709 246 670 241 624 259 c 4
 610 265 596 272 582 283 c 4
 575 288 567 297 566 308 c 4
 564 321 572 332 576 337 c 4
 586 350 602 361 610 368 c 5
 584 391 549 391 502 389 c 6
 490 388 l 5
 478 388 l 5
 478 401 l 5
 478 413 l 5
683 782 m 1
 673 770 l 2
 579 650 485 489 487 424 c 0
 489 352 544 161 686 29 c 2
 694 22 l 1
 674 -17 l 1
 662 -13 l 2
 414 57 285 223 277 422 c 0
 269 613 433 743 647 810 c 2
 658 814 l 1
 683 782 l 1
584 734 m 1
 420 664 320 559 326 425 c 0
 332 273 415 146 582 70 c 1
 480 202 439 349 437 422 c 0
 435 502 507 626 584 734 c 1
EndSplineSet
EndChar

StartChar: lt_MW
Encoding: 376 -1 145
Width: 999
VWidth: 0
Flags: HW
HStem: 132 50<169 844> 224 49<443 595> 368 50<293 304 317 425> 602 50<170 846> 802 20G<480 505>
LayerCount: 2
Fore
SplineSet
292 394 m 5
 292 406 l 5
 292 418 l 5
 304 418 l 5
 317 419 l 6
 365 421 426 425 470 373 c 4
 474 368 479 363 480 355 c 4
 485 325 454 303 442 293 c 5
 449 289 452 288 458 286 c 4
 489 274 522 278 586 274 c 6
 598 274 l 5
 611 272 l 5
 610 260 l 5
 610 248 l 5
 608 235 l 5
 608 222 l 5
 595 223 l 5
 582 224 l 6
 524 226 486 221 440 239 c 4
 426 245 412 252 398 263 c 4
 391 268 384 277 383 288 c 4
 381 301 388 312 392 317 c 4
 402 330 418 341 426 348 c 5
 400 371 365 372 318 370 c 6
 306 368 l 5
 293 368 l 5
 293 382 l 5
 292 394 l 5
542 -2 m 1
 522 -37 l 1
 502 -2 l 1
 104 614 l 1
 79 653 l 1
 125 653 l 1
 890 654 l 1
 934 654 l 1
 912 616 l 1
 542 -2 l 1
521 58 m 1
 846 604 l 1
 170 602 l 1
 521 58 l 1
472 787 m 1
 492 822 l 1
 514 788 l 1
 911 170 l 1
 936 132 l 1
 890 132 l 1
 125 131 l 1
 82 131 l 1
 103 169 l 1
 472 787 l 1
494 727 m 1
 169 181 l 1
 844 182 l 1
 494 727 l 1
EndSplineSet
EndChar

StartChar: lt_MX
Encoding: 377 -1 146
Width: 999
VWidth: 0
Flags: HW
HStem: 197 50<518 671> 752 20G<838 862>
VStem: 150 50<652 712> 320 49<118 356> 812 50<252 770> 822 50<14 534>
LayerCount: 2
Fore
SplineSet
370 366 m 5xf0
 368 378 l 5
 368 391 l 5
 382 392 l 5
 394 392 l 6
 442 394 503 399 547 347 c 4
 551 342 555 336 556 328 c 4
 561 298 530 276 518 266 c 5
 525 262 528 260 534 258 c 4
 565 246 598 251 662 247 c 6
 674 246 l 5
 686 245 l 5
 686 232 l 5
 685 220 l 5
 684 208 l 5
 683 194 l 5
 671 196 l 5
 658 197 l 6
 600 199 562 194 516 212 c 4
 502 218 487 227 473 238 c 4
 466 243 459 251 458 262 c 4
 456 275 464 284 468 289 c 4
 478 302 494 315 502 322 c 5
 476 345 441 344 394 342 c 6
 382 342 l 5
 370 341 l 5
 370 353 l 5
 370 366 l 5xf0
838 770 m 1
 862 772 l 1
 862 746 l 1xf8
 872 40 l 1
 872 14 l 1
 848 14 l 1
 822 14 l 1
 822 40 l 1xf4
 812 746 l 1
 812 770 l 1xf8
 838 770 l 1
344 118 m 1
 319 118 l 1
 320 142 l 2
 322 216 289 282 330 368 c 0
 398 514 563 496 538 598 c 0
 512 702 392 694 254 719 c 0
 250 720 245 720 239 719 c 0
 213 714 198 694 200 677 c 2
 204 652 l 1
 179 648 l 1
 155 643 l 1
 150 668 l 2
 140 722 187 760 230 768 c 0
 241 770 251 770 263 768 c 0
 381 746 549 758 586 610 c 0
 621 468 414 430 376 348 c 0
 345 282 372 236 370 142 c 2
 370 116 l 1
 344 118 l 1
344 82 m 0
 346 59 360 49 368 50 c 0
 382 51 394 64 392 82 c 0
 390 104 376 118 358 116 c 0
 352 116 342 106 344 82 c 0
294 74 m 0
 290 106 300 164 352 166 c 0
 400 170 437 131 442 89 c 0
 448 47 418 2 371 0 c 0
 323 -2 299 40 294 74 c 0
EndSplineSet
EndChar

StartChar: lt_MY
Encoding: 378 -1 147
Width: 999
VWidth: 0
Flags: HW
HStem: -2 50<412 608> 204 49<388 540> 348 50<250 370> 634 50<436 586> 787 20G<491 523>
VStem: 238 4<348 398> 797 50<234 450>
LayerCount: 2
Fore
SplineSet
238 373 m 5
 238 386 l 5
 238 398 l 5
 250 398 l 5
 262 398 l 6
 310 400 372 405 416 353 c 4
 420 348 424 343 425 335 c 4
 430 305 398 284 386 274 c 5
 393 270 397 267 403 265 c 4
 434 253 466 257 530 253 c 6
 542 253 l 5
 556 252 l 5
 554 240 l 5
 554 228 l 5
 553 215 l 5
 552 202 l 5
 540 203 l 5
 528 204 l 6
 470 206 431 200 385 218 c 4
 371 224 356 231 342 242 c 4
 335 247 329 257 328 268 c 4
 326 281 333 293 337 298 c 4
 347 311 363 321 371 328 c 5
 345 351 310 351 263 349 c 6
 251 348 l 5
 238 348 l 5
 238 361 l 5
 238 373 l 5
312 574 m 1
 296 592 l 1
 314 610 l 1
 491 792 l 1
 506 806 l 1
 523 793 l 1
 712 613 l 1
 732 598 l 1
 718 578 l 1
 701 559 l 1
 682 574 l 1
 509 742 l 1
 348 574 l 1
 330 556 l 1
 312 574 l 1
508 634 m 0
 363 636 246 492 242 338 c 0
 240 192 357 49 499 47 c 0
 662 45 792 172 797 336 c 0
 802 498 671 632 508 634 c 0
508 683 m 0
 698 681 852 526 847 334 c 0
 842 144 689 -4 498 -2 c 0
 323 0 188 168 192 338 c 0
 196 511 327 685 508 683 c 0
EndSplineSet
EndChar

StartChar: lt_MZ
Encoding: 379 -1 148
Width: 999
VWidth: 0
Flags: HW
HStem: 338 50<352 517> 482 50<202 332> 754 46G<158 162 636 670>
VStem: 485 34<338 374> 518 17<338 374>
LayerCount: 2
Fore
SplineSet
202 508 m 5xf0
 202 521 l 5
 202 533 l 5
 214 533 l 5
 226 534 l 6
 274 536 336 540 380 488 c 4
 384 483 387 478 388 470 c 4
 393 440 362 418 350 408 c 5
 357 404 362 402 368 400 c 4
 399 388 430 392 494 388 c 6
 508 388 l 5
 520 388 l 5
 518 374 l 5
 518 362 l 5
 518 350 l 5
 517 338 l 5
 504 338 l 5
 492 338 l 6
 434 340 395 336 349 354 c 4
 335 360 321 367 307 378 c 4
 300 383 293 392 292 403 c 4
 290 416 297 427 301 432 c 4
 311 445 326 456 334 463 c 5
 308 486 275 486 228 484 c 6
 215 482 l 5
 202 482 l 5
 202 496 l 5
 202 508 l 5xf0
670 758 m 1
 690 743 l 1
 674 722 l 2
 580 592 530 521 535 376 c 0xe8
 540 236 606 173 700 47 c 2
 715 26 l 1
 695 12 l 1
 674 -2 l 1
 660 17 l 2
 568 139 490 216 485 374 c 0
 480 535 541 624 635 752 c 2
 649 773 l 1
 670 758 l 1
856 396 m 1
 142 2 l 1
 134 16 126 32 118 46 c 1
 330 164 542 280 754 398 c 1
 138 755 l 1
 146 769 154 784 162 798 c 1
 162 798 632 526 856 396 c 1
EndSplineSet
EndChar

StartChar: lt_xa
Encoding: 380 -1 149
Width: 0
VWidth: 0
Flags: W
HStem: 866 150
VStem: -611 216
LayerCount: 2
Fore
SplineSet
-594 885 m 5
 -611 902 l 5
 -520 997 l 5
 -500 1016 l 5
 -482 996 l 5
 -395 900 l 5
 -414 883 l 5
 -432 866 l 5
 -502 943 l 5
 -576 867 l 5
 -594 885 l 5
EndSplineSet
EndChar

StartChar: lt_xi
Encoding: 381 -1 150
Width: 0
VWidth: 0
Flags: W
HStem: 866 149
VStem: -602 216
LayerCount: 2
Fore
SplineSet
-404 997 m 5
 -386 979 l 5
 -478 885 l 5
 -497 866 l 5
 -515 885 l 5
 -602 981 l 5
 -584 998 l 5
 -565 1015 l 5
 -496 939 l 5
 -421 1014 l 5
 -404 997 l 5
EndSplineSet
EndChar

StartChar: lt_xy
Encoding: 382 -1 151
Width: 0
VWidth: 0
Flags: W
HStem: 850 51<-456.766 -374.58>
VStem: -618 299
LayerCount: 2
Fore
SplineSet
-504 920 m 5
 -502 928 -503 977 -461 990 c 4
 -430 1000 -330 1029 -319 951 c 4
 -311 887 -374 858 -420 852 c 4
 -427 851 -436 850 -443 850 c 4
 -465 851 -483 856 -500 862 c 4
 -548 880 -575 913 -618 933 c 5
 -607 956 l 5
 -598 979 l 5
 -557 960 -529 934 -504 920 c 5
-457 902 m 5
 -452 901 -448 901 -442 901 c 4
 -437 901 -432 901 -427 901 c 4
 -387 906 -366 926 -368 944 c 4
 -369 952 -394 958 -446 942 c 4
 -447 942 -448 942 -448 942 c 4
 -449 941 -450 925 -457 902 c 5
EndSplineSet
EndChar

StartChar: lt_xz
Encoding: 383 -1 152
Width: 0
VWidth: 0
Flags: W
HStem: 990 50<-595 -394>
VStem: -392 49<892.101 924 988 990>
LayerCount: 2
Fore
SplineSet
-595 1011 m 5
 -596 1036 l 5
 -371 1040 l 5
 -343 1041 l 5
 -344 1014 l 6
 -344 1009 -344 999 -343 988 c 5
 -318 995 -295 1004 -278 1012 c 5
 -268 990 l 5
 -257 967 l 5
 -281 955 -309 946 -338 938 c 5
 -337 912 -336 878 -359 855 c 4
 -395 820 -507 831 -536 861 c 4
 -548 873 -547 897 -535 908 c 4
 -499 942 -444 958 -392 974 c 5
 -392 980 -394 984 -394 990 c 5
 -595 986 l 5
 -595 1011 l 5
-389 924 m 5
 -421 914 -451 903 -475 890 c 5
 -445 885 -402 887 -392 892 c 4
 -391 894 -389 906 -389 924 c 5
EndSplineSet
EndChar

StartChar: bar
Encoding: 124 124 153
Width: 0
VWidth: 0
Flags: HW
LayerCount: 2
Fore
SplineSet
-595 961 m 5
 -596 986 l 5
 -371 990 l 5
 -343 991 l 5
 -344 964 l 6
 -344 959 -344 949 -343 938 c 5
 -318 945 -295 954 -278 962 c 5
 -268 940 l 5
 -257 917 l 5
 -281 905 -309 896 -338 888 c 5
 -337 862 -336 828 -359 805 c 4
 -395 770 -507 781 -536 811 c 4
 -548 823 -547 847 -535 858 c 4
 -499 892 -444 908 -392 924 c 5
 -392 930 -394 934 -394 940 c 5
 -595 936 l 5
 -595 961 l 5
-389 874 m 5
 -421 864 -451 853 -475 840 c 5
 -445 835 -402 837 -392 842 c 4
 -391 844 -389 856 -389 874 c 5
EndSplineSet
EndChar

StartChar: asciitilde
Encoding: 126 126 154
Width: 999
VWidth: 0
Flags: HW
LayerCount: 2
Fore
SplineSet
259 955 m 29
 640 831 l 29
 415 659 l 29
 259 955 l 29
242 482 m 25
 623 358 l 25
 398 186 l 25
 242 482 l 25
EndSplineSet
EndChar

StartChar: lt_xe
Encoding: 384 -1 155
Width: 0
VWidth: 0
Flags: W
HStem: 892 50<-605 -365>
VStem: -605 240<894 942>
LayerCount: 2
Fore
SplineSet
-605 916 m 5
 -605 942 l 5
 -365 944 l 5
 -365 919 l 5
 -365 894 l 5
 -605 892 l 5
 -605 916 l 5
EndSplineSet
EndChar

StartChar: lt_xf
Encoding: 385 -1 156
Width: 0
VWidth: 0
Flags: W
HStem: 915 49<-672 -551.737 -487 -429.078>
VStem: -550 51<958 991.255> -526 51<844 906.154>
LayerCount: 2
Fore
SplineSet
-487 907 m 5xc0
 -481 889 -475 868 -475 844 c 5
 -500 844 l 5
 -526 843 l 5xa0
 -526 863 -533 885 -540 908 c 5
 -582 910 -625 916 -672 915 c 5
 -673 939 l 5
 -673 964 l 5
 -627 965 -587 960 -550 958 c 5
 -550 981 -540 1005 -521 1027 c 4
 -484 1068 -416 1024 -392 1002 c 4
 -381 992 -355 962 -380 936 c 4
 -385 931 -391 927 -397 925 c 4
 -428 913 -457 908 -487 907 c 5xc0
-499 956 m 5xc0
 -474 956 -451 960 -428 967 c 5
 -446 981 -475 993 -485 992 c 5
 -498 976 -499 967 -499 956 c 5xc0
EndSplineSet
EndChar

StartChar: lt_xm
Encoding: 386 -1 157
Width: 0
VWidth: 0
Flags: W
HStem: 838 203
VStem: -436 52<918 1014>
LayerCount: 2
Fore
SplineSet
-715 1018 m 1
 -704 1041 l 1
 -436 918 l 1
 -438 1014 l 1
 -413 1014 l 1
 -388 1015 l 1
 -384 879 l 1
 -383 838 l 1
 -420 855 l 1
 -725 996 l 1
 -715 1018 l 1
EndSplineSet
EndChar

StartChar: lt_xu
Encoding: 387 -1 158
Width: 0
VWidth: 0
Flags: W
HStem: 855 51<-727 -391>
VStem: -391 51<906 1009>
LayerCount: 2
Fore
SplineSet
-727 882 m 1
 -727 907 l 1
 -391 906 l 1
 -394 1009 l 1
 -370 1010 l 1
 -344 1011 l 1
 -340 880 l 1
 -340 855 l 1
 -365 855 l 1
 -727 856 l 1
 -727 882 l 1
EndSplineSet
EndChar

StartChar: lt_xw
Encoding: 388 -1 159
Width: 0
VWidth: 0
Flags: W
HStem: 882.511 49.9824<-700.051 -653.134 -389.306 -366.678>
LayerCount: 2
Fore
SplineSet
-464.720703125 975.501953125 m 5
 -487.796875 985.1171875 l 5
 -475.205078125 1015.33886719 -437.403320312 1049.70800781 -395.228515625 1027.70410156 c 4
 -368.732421875 1014.09863281 -289.4375 960.866210938 -317 911 c 4
 -323.366210938 899.483398438 -334.745117188 893.588867188 -344.969726562 891.172851562 c 4
 -461.740234375 863.571289062 -591.6328125 885.415039062 -700.05078125 882.510742188 c 5
 -700.720703125 907.501953125 l 5
 -701.389648438 932.493164062 l 5
 -589.705078125 935.484375 -467.001953125 916.927734375 -366.677734375 937.571289062 c 5
 -377.752929688 954 -402.442382812 975.202148438 -418.212890625 983.299804688 c 4
 -422.037109375 985.295898438 -434.235351562 983.665039062 -441.643554688 965.88671875 c 5
 -464.720703125 975.501953125 l 5
EndSplineSet
EndChar

StartChar: lt_xv
Encoding: 389 -1 160
Width: 0
VWidth: 0
Flags: HW
LayerCount: 2
Fore
SplineSet
-682 861 m 5
 -671 838 l 5
 -403 961 l 5
 -405 865 l 5
 -380 865 l 5
 -355 864 l 5
 -351 1000 l 5
 -350 1041 l 5
 -387 1024 l 5
 -692 883 l 5
 -682 861 l 5
EndSplineSet
EndChar

StartChar: lt_xo
Encoding: 390 -1 161
Width: 0
VWidth: 0
Flags: HW
VStem: -698 387
LayerCount: 2
Fore
SplineSet
-698 984 m 5
 -698 959 l 5
 -362 960 l 5
 -365 857 l 5
 -341 856 l 5
 -315 855 l 5
 -311 986 l 5
 -311 1011 l 5
 -336 1011 l 5
 -698 1010 l 5
 -698 984 l 5
EndSplineSet
EndChar

StartChar: lt_a
Encoding: 391 -1 162
Width: 0
VWidth: 0
Flags: W
HStem: 879.004 49.9922<-621.394 -543.322> 971 50<-473.149 -419.216>
VStem: -693.93 49.8633<951.277 998.801>
LayerCount: 2
Fore
SplineSet
-668.998046875 1000 m 1
 -667.471679688 1000.11328125 l 1
 -644.06640625 1001.84667969 l 1
 -641.05859375 961.239257812 -607.254882812 929.772460938 -564.559570312 928.99609375 c 0
 -536.797851562 928.508789062 -538.455078125 1021 -450.998046875 1021 c 0
 -389.88671875 1021 -360.78515625 953.474609375 -344.637695312 921.180664062 c 1
 -366.998046875 910 l 1
 -389.359375 898.819335938 l 1
 -409.211914062 938.525390625 -432.110351562 971 -450.998046875 971 c 0
 -477.541015625 971 -479.19921875 877.491210938 -565.436523438 879.00390625 c 0
 -632.7421875 880.227539062 -688.9375 930.760742188 -693.9296875 998.153320312 c 1
 -668.998046875 1000 l 1
EndSplineSet
EndChar

StartChar: lt_aa
Encoding: 392 -1 163
Width: 0
VWidth: 0
Flags: W
HStem: 979.018 49.9648<-647.883 -552.246>
VStem: -715.15 412.292
LayerCount: 2
Fore
SplineSet
-325.00390625 906 m 1
 -347.150390625 894.399414062 l 1
 -371.888671875 941.627929688 -397.15625 982.958984375 -425.319335938 981.056640625 c 0
 -439.50390625 980.098632812 -437.141601562 954.920898438 -476.421875 911.276367188 c 2
 -493.229492188 892.600585938 l 1
 -511.821289062 909.501953125 l 2
 -556.028320312 949.689453125 -559.922851562 978.271484375 -579.935546875 979.017578125 c 0
 -666.790039062 982.255859375 -641.938476562 951.611328125 -670.858398438 896.399414062 c 1
 -693.00390625 908 l 1
 -715.150390625 919.600585938 l 1
 -700.0703125 948.388671875 -697.807617188 1033.44726562 -578.072265625 1028.98242188 c 0
 -533.561523438 1027.32324219 -514.274414062 990.999023438 -497.5234375 968.591796875 c 1
 -487.016601562 987.43359375 -471.634765625 1028.04296875 -428.688476562 1030.94335938 c 0
 -355.953125 1035.85546875 -322.120117188 954.372070312 -302.858398438 917.600585938 c 1
 -325.00390625 906 l 1
EndSplineSet
EndChar

StartChar: lt_ai
Encoding: 393 -1 164
Width: 0
VWidth: 0
Flags: W
HStem: 855 164
VStem: -700 378
LayerCount: 2
Fore
SplineSet
-340 1001 m 5
 -322 983 l 5
 -414 889 l 5
 -433 870 l 5
 -451 889 l 5
 -538 985 l 5
 -520 1002 l 5
 -501 1019 l 5
 -432 943 l 5
 -357 1018 l 5
 -340 1001 l 5
-683 874 m 5
 -700 891 l 5
 -609 986 l 5
 -589 1005 l 5
 -571 985 l 5
 -484 889 l 5
 -503 872 l 5
 -521 855 l 5
 -591 932 l 5
 -665 856 l 5
 -683 874 l 5
EndSplineSet
EndChar

StartChar: lt_ay
Encoding: 394 -1 165
Width: 0
VWidth: 0
Flags: W
HStem: 868.372 173.018
VStem: -365.41 49.8828<937.469 958.965>
LayerCount: 2
Fore
SplineSet
-455.163085938 970.55859375 m 1
 -450.278320312 985.5859375 -437.622070312 1008.96582031 -409.41796875 1011.8828125 c 0
 -370.899414062 1015.38476562 -318.87890625 992.596679688 -315.52734375 943.923828125 c 0
 -315.182617188 938.903320312 -315.48046875 933.602539062 -316.391601562 928.591796875 c 0
 -324.798828125 880.953125 -375.090820312 861.301757812 -414.1328125 868.372070312 c 0
 -420.518554688 869.528320312 -426.870117188 871.405273438 -433.020507812 874.095703125 c 0
 -453.168945312 882.856445312 -467.859375 896.358398438 -478.362304688 910.694335938 c 0
 -490.9296875 927.848632812 -497.9453125 944.877929688 -506.533203125 961.305664062 c 1
 -546.28515625 916.423828125 l 1
 -566.916992188 893.130859375 l 1
 -585.21875 918.295898438 l 1
 -613.083984375 956.610351562 l 1
 -658.83984375 894.215820312 l 1
 -679 909 l 1
 -699.16015625 923.784179688 l 1
 -633.16015625 1013.78417969 l 1
 -612.916015625 1041.38964844 l 1
 -592.78125 1013.70410156 l 1
 -563.083007812 972.869140625 l 1
 -521.71484375 1019.57617188 l 1
 -501.471679688 1042.43066406 l 1
 -483.05859375 1018.078125 l 2
 -470.416992188 1001.359375 -462.228515625 984.708984375 -455.163085938 970.55859375 c 1
-417.59765625 922.12109375 m 0
 -416.141601562 921.362304688 -414.520507812 920.57421875 -413.005859375 919.915039062 c 0
 -410.563476562 918.846679688 -408.004882812 918.075195312 -405.223632812 917.571289062 c 0
 -384.79296875 913.872070312 -367.6015625 926.11328125 -365.608398438 937.408203125 c 0
 -365.372070312 938.709960938 -365.345703125 939.557617188 -365.41015625 940.489257812 c 0
 -365.948242188 948.318359375 -383.24609375 963.75 -404.768554688 962.103515625 c 0
 -407.116210938 958.204101562 -409.6015625 942.032226562 -417.59765625 922.12109375 c 0
EndSplineSet
EndChar

StartChar: lt_az
Encoding: 395 -1 166
Width: 0
VWidth: 0
Flags: HW
LayerCount: 2
Fore
SplineSet
-437.467773438 954.2890625 m 1
 -437.467773438 954.2890625 -436.75 954.666992188 -435.862304688 955.127929688 c 0
 -411.065429688 968.006835938 -387.419921875 977.0390625 -365.935546875 993.046875 c 1
 -350.998046875 973 l 1
 -336.061523438 952.953125 l 1
 -353.759765625 939.765625 -371.814453125 930.646484375 -387.755859375 922.970703125 c 1
 -362.66015625 888.135742188 -365.516601562 833.358398438 -400.956054688 803.826171875 c 0
 -419.65234375 788.12109375 -443.041992188 791.237304688 -459.029296875 797.932617188 c 0
 -485.635742188 809.073242188 -523.807617188 843.700195312 -505.907226562 885.010742188 c 0
 -505.123046875 886.790039062 -504.299804688 888.5546875 -503.458007812 890.291992188 c 1
 -522.733398438 884.12109375 -548.251953125 883.17578125 -575.033203125 896.56640625 c 0
 -602.077148438 909.65234375 -616.8125 935.213867188 -624.873046875 960.130859375 c 1
 -693.907226562 887.74609375 l 1
 -711.998046875 905 l 1
 -730.08984375 922.25390625 l 1
 -627.08984375 1030.25390625 l 1
 -583.998046875 1049 l 1
 -584.03515625 1014.34960938 l 2
 -584.072265625 979.321289062 -569.694335938 949.529296875 -552.962890625 941.43359375 c 0
 -520.427734375 925.165039062 -520.149414062 945.119140625 -474.0546875 954.813476562 c 0
 -463.357421875 957.063476562 -450.69921875 957.39453125 -437.467773438 954.2890625 c 1
-433.008789062 898.586914062 m 0
 -435.493164062 896.75390625 -437.998046875 894.754882812 -440.084960938 892.892578125 c 0
 -448.095703125 885.74609375 -454.040039062 878.399414062 -459.98828125 865.22265625 c 0
 -459.981445312 859.946289062 -441.573242188 841.693359375 -432.71484375 842.44921875 c 1
 -419.955078125 853.448242188 -417.74609375 881.778320312 -429.6953125 895.446289062 c 0
 -430.684570312 896.579101562 -431.842773438 897.6640625 -433.008789062 898.586914062 c 0
EndSplineSet
EndChar

StartChar: lt_ae
Encoding: 396 -1 167
Width: 0
VWidth: 0
Flags: HW
LayerCount: 2
Fore
SplineSet
-704.000976562 893 m 5
 -725.280273438 906.122070312 l 5
 -651.280273438 1026.12207031 l 5
 -612.000976562 1049 l 5
 -607.544921875 1023.98925781 l 6
 -595.954101562 958.919921875 -592.833984375 930.35546875 -561.40234375 915.642578125 c 4
 -528.642578125 900.307617188 -419.196289062 919.224609375 -367.7265625 931.334960938 c 5
 -362.000976562 907 l 5
 -356.274414062 882.665039062 l 5
 -406.8046875 870.775390625 -521.358398438 841.692382812 -582.599609375 870.357421875 c 4
 -622.448242188 889.010742188 -631.9296875 925.141601562 -637.939453125 952.498046875 c 5
 -682.721679688 879.877929688 l 5
 -704.000976562 893 l 5
EndSplineSet
EndChar

StartChar: lt_af
Encoding: 397 -1 168
Width: 0
VWidth: 0
Flags: HW
LayerCount: 2
Fore
SplineSet
-448.625 882.10546875 m 1
 -447.81640625 866.215820312 -447.646484375 848.661132812 -450.096679688 830.1484375 c 1
 -474.880859375 833.428710938 l 1
 -499.6640625 836.708984375 l 1
 -497.44921875 853.448242188 -497.90625 870.040039062 -498.99609375 886.96484375 c 1
 -515.895507812 890.735351562 -532.837890625 896.112304688 -549.157226562 901.838867188 c 0
 -578.958007812 912.294921875 -593.939453125 941.133789062 -605.560546875 965.739257812 c 1
 -658.662109375 892.724609375 l 1
 -678.880859375 907.428710938 l 1
 -699.098632812 922.1328125 l 1
 -619.098632812 1032.1328125 l 1
 -578.880859375 1053.42871094 l 1
 -575.080078125 1025.07910156 l 2
 -571.493164062 998.327148438 -542.765625 952.584960938 -532.603515625 949.018554688 c 0
 -521.905273438 945.264648438 -511.369140625 941.826171875 -501.392578125 939.0703125 c 1
 -500.556640625 966.737304688 -493.25 997.1953125 -469.721679688 1023.86132812 c 0
 -463.37890625 1031.21875 -454.044921875 1036.515625 -444.6875 1038.17382812 c 0
 -422.336914062 1042.1328125 -404.375976562 1030.17382812 -391.580078125 1018.97363281 c 0
 -371.05078125 1001.00390625 -327.797851562 954.14453125 -369.965820312 915.018554688 c 0
 -389.783203125 897.048828125 -421.209960938 883.678710938 -448.625 882.10546875 c 1
-451.465820312 932.025390625 m 1
 -434.260742188 933.012695312 -419.41796875 938.318359375 -405.181640625 950.60546875 c 1
 -406.021484375 960.502929688 -423.229492188 983.0703125 -434.514648438 988.079101562 c 1
 -448.693359375 970.396484375 -451.509765625 954.548828125 -451.465820312 932.025390625 c 1
EndSplineSet
EndChar

StartChar: lt_am
Encoding: 398 -1 169
Width: 0
VWidth: 0
Flags: HW
HStem: 838 203
VStem: -436 52<918 1014>
LayerCount: 2
Fore
SplineSet
-541 1018 m 1
 -530 1041 l 1
 -380 918 l 1
 -382 1014 l 1
 -357 1014 l 1
 -332 1015 l 1
 -328 879 l 1
 -327 838 l 1
 -364 855 l 5
 -551 996 l 1
 -541 1018 l 1
-701 885 m 1
 -718 902 l 1
 -627 997 l 1
 -607 1016 l 1
 -589 996 l 1
 -502 900 l 1
 -521 883 l 1
 -539 866 l 1
 -609 943 l 1
 -683 867 l 1
 -701 885 l 1
EndSplineSet
EndChar

StartChar: lt_au
Encoding: 399 -1 170
Width: 0
VWidth: 0
Flags: HW
LayerCount: 2
Fore
SplineSet
-705 891 m 1
 -723.049804688 908.297851562 l 1
 -631.049804688 1004.29785156 l 1
 -597.459960938 1039.34765625 l 1
 -588.436523438 991.647460938 l 2
 -577.125976562 931.868164062 -597.44921875 920.17578125 -583.893554688 913.397460938 c 0
 -533.328125 888.529296875 -507.334960938 909.049804688 -423.6171875 917.862304688 c 0
 -422.109375 918.021484375 -421.197265625 918.301757812 -420.625976562 918.534179688 c 0
 -418.107421875 919.556640625 -408.607421875 944.620117188 -425.978515625 985.15234375 c 1
 -403 995 l 1
 -380.021484375 1004.84765625 l 1
 -364.665039062 969.016601562 -346.00390625 894.877929688 -401.80859375 872.209960938 c 0
 -407.0703125 870.073242188 -412.665039062 868.739257812 -418.3828125 868.137695312 c 0
 -486.665039062 860.950195312 -534.672851562 833.470703125 -606.107421875 868.602539062 c 0
 -630.913085938 881.004882812 -638.501953125 904.709960938 -639.145507812 923.5859375 c 1
 -686.950195312 873.702148438 l 1
 -705 891 l 1
EndSplineSet
EndChar

StartChar: lt_aw
Encoding: 400 -1 171
Width: 0
VWidth: 0
Flags: HW
LayerCount: 2
Fore
SplineSet
-519 954 m 1
 -543.630859375 958.283203125 l 1
 -534.504882812 1010.75390625 -469.180664062 1046.79980469 -422.35546875 1038.01269531 c 0
 -405.334960938 1034.81835938 -388.23828125 1023.875 -380.048828125 1004.91113281 c 0
 -364.643554688 968.96484375 -346.004882812 894.877929688 -401.80859375 872.209960938 c 0
 -407.0703125 870.073242188 -412.665039062 868.739257812 -418.3828125 868.137695312 c 0
 -486.665039062 860.950195312 -534.672851562 833.470703125 -606.107421875 868.602539062 c 0
 -630.913085938 881.004882812 -638.501953125 904.709960938 -639.145507812 923.5859375 c 1
 -686.950195312 873.702148438 l 1
 -705 891 l 1
 -723.049804688 908.297851562 l 1
 -631.049804688 1004.29785156 l 1
 -597.459960938 1039.34765625 l 1
 -588.436523438 991.647460938 l 2
 -577.125976562 931.868164062 -597.44921875 920.17578125 -583.893554688 913.397460938 c 0
 -533.328125 888.529296875 -507.334960938 909.049804688 -423.6171875 917.862304688 c 0
 -422.109375 918.021484375 -421.197265625 918.301757812 -420.625976562 918.534179688 c 0
 -418.107421875 919.557617188 -408.619140625 944.645507812 -425.965820312 985.120117188 c 0
 -426.950195312 987.400390625 -427.278320312 988.063476562 -431.577148438 988.870117188 c 0
 -451.513671875 992.611328125 -491.369140625 966.97265625 -494.370117188 949.716796875 c 1
 -519 954 l 1
EndSplineSet
EndChar

StartChar: lt_av
Encoding: 401 -1 172
Width: 0
VWidth: 0
Flags: HW
LayerCount: 2
Fore
SplineSet
-614.000976562 928 m 5
 -633.143554688 944.080078125 l 5
 -549.143554688 1041.08007812 l 5
 -520.000976562 1057 l 5
 -506.884765625 1034.51855469 l 5
 -480.11328125 969.50390625 l 5
 -426.686523438 1029.609375 l 5
 -390.000976562 1047 l 5
 -383.04296875 1011.55273438 l 6
 -374.106445312 966.026367188 -330.5703125 871.994140625 -403.005859375 817.99609375 c 4
 -481.741210938 758.641601562 -572.404296875 800.071289062 -637.51953125 826.8828125 c 5
 -628.000976562 850 l 5
 -618.482421875 873.1171875 l 5
 -547.59765625 843.928710938 -484.260742188 819.358398438 -432.997070312 858.00390625 c 4
 -408.446289062 876.3046875 -416.463867188 901.138671875 -427.379882812 956.569335938 c 5
 -469.31640625 909.390625 l 5
 -495.888671875 879.49609375 l 5
 -511.118164062 916.481445312 l 5
 -537.404296875 977.318359375 l 5
 -594.858398438 911.919921875 l 5
 -614.000976562 928 l 5
EndSplineSet
EndChar

StartChar: lt_ao
Encoding: 402 -1 173
Width: 0
VWidth: 0
Flags: HW
LayerCount: 2
Fore
SplineSet
-398.037109375 843.45703125 m 1
 -399.075195312 855.9140625 l 2
 -395.471679688 856.213867188 -393.501953125 856.552734375 -391.956054688 856.939453125 c 0
 -390.958007812 858.430664062 -387.69921875 864.665039062 -382.706054688 873.403320312 c 0
 -368.635742188 898.026367188 -374.016601562 885.130859375 -378.315429688 911.8671875 c 1
 -558.823242188 896.094726562 l 1
 -578.162109375 894.405273438 l 1
 -584.58984375 912.72265625 l 1
 -607.499023438 978.013671875 l 1
 -655.87890625 901.624023438 l 1
 -677 915 l 1
 -698.120117188 928.375976562 l 1
 -625 1031 l 1
 -597 1049 l 1
 -575 1019 l 1
 -543.836914062 947.594726562 l 1
 -357.17578125 963.905273438 l 1
 -329.357421875 966.3359375 l 1
 -330.005859375 938.418945312 l 2
 -330.651367188 910.6640625 -313.6328125 893.502929688 -339.29296875 848.596679688 c 0
 -345.045898438 838.530273438 -347.9375 827.34375 -361.73828125 816.874023438 c 0
 -371.818359375 809.2265625 -383.32421875 807.052734375 -394.923828125 806.0859375 c 1
 -397 831 l 2
 -397.083007812 831.99609375 -398.037109375 843.45703125 -398.037109375 843.45703125 c 1
EndSplineSet
EndChar

StartChar: lt_i
Encoding: 403 -1 174
Width: 0
VWidth: 0
Flags: HW
HStem: 879.004 49.9922<-621.394 -543.322> 971 50<-473.149 -419.216>
VStem: -693.93 49.8633<951.277 998.801>
LayerCount: 2
Fore
SplineSet
-668.998046875 900.00390625 m 5
 -667.471679688 899.890625 l 5
 -644.06640625 898.157226562 l 5
 -641.05859375 938.764648438 -607.254882812 970.231445312 -564.559570312 971.0078125 c 4
 -536.797851562 971.495117188 -538.455078125 879.00390625 -450.998046875 879.00390625 c 4
 -389.88671875 879.00390625 -360.78515625 946.529296875 -344.637695312 978.823242188 c 5
 -366.998046875 990.00390625 l 5
 -389.359375 1001.18457031 l 5
 -409.211914062 961.478515625 -432.110351562 929.00390625 -450.998046875 929.00390625 c 4
 -477.541015625 929.00390625 -479.19921875 1022.51269531 -565.436523438 1021 c 4
 -632.7421875 1019.77636719 -688.9375 969.243164062 -693.9296875 901.850585938 c 5
 -668.998046875 900.00390625 l 5
EndSplineSet
EndChar

StartChar: lt_ia
Encoding: 404 -1 175
Width: 0
VWidth: 0
Flags: HW
HStem: 855 164
VStem: -700 378
LayerCount: 2
Fore
SplineSet
-340 873 m 5
 -322 891 l 5
 -414 985 l 5
 -433 1004 l 5
 -451 985 l 5
 -538 889 l 5
 -520 872 l 5
 -501 855 l 5
 -432 931 l 5
 -357 856 l 5
 -340 873 l 5
-683 1000 m 5
 -700 983 l 5
 -609 888 l 5
 -589 869 l 5
 -571 889 l 5
 -484 985 l 5
 -503 1002 l 5
 -521 1019 l 5
 -591 942 l 5
 -665 1018 l 5
 -683 1000 l 5
EndSplineSet
EndChar

StartChar: lt_ii
Encoding: 405 -1 176
Width: 0
VWidth: 0
Flags: HW
HStem: 979.018 49.9648<-647.883 -552.246>
VStem: -715.15 412.292
LayerCount: 2
Fore
SplineSet
-325.00390625 1010.54394531 m 5
 -347.150390625 1022.14453125 l 5
 -371.888671875 974.916015625 -397.15625 933.584960938 -425.319335938 935.487304688 c 4
 -439.50390625 936.4453125 -437.141601562 961.623046875 -476.421875 1005.26757812 c 6
 -493.229492188 1023.94335938 l 5
 -511.821289062 1007.04199219 l 6
 -556.028320312 966.854492188 -559.922851562 938.272460938 -579.935546875 937.526367188 c 4
 -666.790039062 934.288085938 -641.938476562 964.932617188 -670.858398438 1020.14453125 c 5
 -693.00390625 1008.54394531 l 5
 -715.150390625 996.943359375 l 5
 -700.0703125 968.155273438 -697.807617188 883.096679688 -578.072265625 887.561523438 c 4
 -533.561523438 889.220703125 -514.274414062 925.544921875 -497.5234375 947.952148438 c 5
 -487.016601562 929.110351562 -471.634765625 888.500976562 -428.688476562 885.600585938 c 4
 -355.953125 880.688476562 -322.120117188 962.171875 -302.858398438 998.943359375 c 5
 -325.00390625 1010.54394531 l 5
EndSplineSet
EndChar

StartChar: lt_iy
Encoding: 406 -1 177
Width: 0
VWidth: 0
Flags: HW
LayerCount: 2
Fore
SplineSet
-470.7890625 938.77734375 m 1
 -449.443359375 981.010742188 -391.364257812 1049.49511719 -336.947265625 1020.58105469 c 0
 -328.126953125 1015.89355469 -320.870117188 1008.58398438 -315.64453125 999.999023438 c 0
 -284.108398438 948.188476562 -326.07421875 895.946289062 -365.40234375 872.223632812 c 0
 -385.5703125 860.05859375 -408.969726562 852 -433 852 c 0
 -456.180664062 852 -475.568359375 860.276367188 -488.98828125 873.755859375 c 0
 -501.645507812 886.467773438 -507.87109375 900.096679688 -514.547851562 914.313476562 c 1
 -521.934570312 889.498046875 -537.272460938 846.030273438 -587.979492188 848.01953125 c 0
 -671.744140625 851.303710938 -687.876953125 930.018554688 -716.919921875 982.979492188 c 1
 -695 995 l 1
 -673.079101562 1007.02050781 l 1
 -634.122070312 935.981445312 -630.296875 899.716796875 -586.020507812 897.98046875 c 0
 -559.471679688 896.939453125 -578.680664062 921.14453125 -540.522460938 985.717773438 c 2
 -521.987304688 1017.0859375 l 1
 -499.389648438 988.505859375 l 2
 -485.74609375 971.251953125 -477.504882812 953.18359375 -470.7890625 938.77734375 c 1
-431.896484375 902.01171875 m 1
 -419.583984375 902.265625 -404.6171875 906.961914062 -391.227539062 915.038085938 c 0
 -358.52734375 934.762695312 -350.268554688 960.716796875 -358.354492188 974.000976562 c 0
 -360.048828125 976.78515625 -360.481445312 976.467773438 -360.59765625 976.50390625 c 0
 -368.065429688 978.8515625 -418.52734375 945.399414062 -431.896484375 902.01171875 c 1
EndSplineSet
EndChar

StartChar: lt_iz
Encoding: 407 -1 178
Width: 0
VWidth: 0
Flags: HW
LayerCount: 2
Fore
SplineSet
-370.797851562 976.395507812 m 1
 -349.639648438 974.6875 -327.306640625 973.897460938 -302.842773438 977.703125 c 1
 -299 953 l 1
 -295.157226562 928.296875 l 1
 -317.272460938 924.857421875 -338.060546875 924.54296875 -356.396484375 925.346679688 c 1
 -351.712890625 902.393554688 -353.522460938 870.401367188 -383.897460938 851.708984375 c 0
 -423.270507812 827.479492188 -479.090820312 845.499023438 -506.560546875 870.37890625 c 0
 -516.299804688 879.19921875 -526.033203125 892.01953125 -526.365234375 909.348632812 c 0
 -526.596679688 921.48828125 -521.412109375 933.127929688 -513.483398438 941.833007812 c 0
 -496.6171875 960.353515625 -477.328125 971.475585938 -457.399414062 976.431640625 c 1
 -508.171875 984.26171875 -538.802734375 993.142578125 -576.487304688 971.356445312 c 0
 -589.288085938 963.956054688 -582.576171875 879.317382812 -633.708984375 852.80078125 c 0
 -647.764648438 845.51171875 -662.120117188 850.094726562 -671.21484375 855.1875 c 0
 -734.864257812 890.831054688 -722.387695312 954.05078125 -742.200195312 985.75 c 1
 -721 999 l 1
 -699.799804688 1012.25 l 1
 -667.2265625 960.1328125 -675.9375 925.22265625 -659.120117188 907.923828125 c 1
 -656.279296875 932.361328125 -630.720189731 978.729082828 -601.512695312 1014.64355469 c 0
 -563 1062 -461.146484375 1020.32910156 -399.67578125 1021.99121094 c 2
 -374.529296875 1022.67089844 l 1
 -374.005859375 997.520507812 l 2
 -373.879882812 991.498046875 -372.672851562 984.14453125 -370.797851562 976.395507812 c 1
-409.0859375 929.54296875 m 0
 -411.383789062 929.69921875 -413.704101562 929.834960938 -415.790039062 929.928710938 c 0
 -442.170898438 931.107421875 -456.576171875 929.00390625 -475.158203125 909.629882812 c 1
 -463.29296875 896.16015625 -422.477539062 886.67578125 -410.102539062 894.291015625 c 0
 -402.737304688 898.82421875 -400.983398438 902.231445312 -409.0859375 929.54296875 c 0
EndSplineSet
EndChar

StartChar: lt_ie
Encoding: 408 -1 179
Width: 0
VWidth: 0
Flags: HW
LayerCount: 2
Fore
SplineSet
-667.000976562 1010.35742188 m 5
 -688.280273438 997.235351562 l 5
 -614.280273438 877.235351562 l 5
 -575.000976562 854.357421875 l 5
 -570.544921875 879.368164062 l 6
 -558.954101562 944.4375 -555.833984375 973.001953125 -524.40234375 987.71484375 c 4
 -491.642578125 1003.04980469 -382.196289062 984.1328125 -330.7265625 972.022460938 c 5
 -325.000976562 996.357421875 l 5
 -319.274414062 1020.69238281 l 5
 -369.8046875 1032.58203125 -484.358398438 1061.66503906 -545.599609375 1033 c 4
 -585.448242188 1014.34667969 -594.9296875 978.215820312 -600.939453125 950.859375 c 5
 -645.721679688 1023.47949219 l 5
 -667.000976562 1010.35742188 l 5
EndSplineSet
EndChar

StartChar: lt_if
Encoding: 409 -1 180
Width: 0
VWidth: 0
Flags: HW
LayerCount: 2
Fore
SplineSet
-420.25390625 910.572265625 m 1
 -415.434570312 891.403320312 -408.890625 868.249023438 -408.009765625 841.833007812 c 1
 -432.99609375 841 l 1
 -457.982421875 840.166992188 l 1
 -459.056640625 872.38671875 -473.924804688 902.451171875 -476.291015625 940.545898438 c 0
 -476.3359375 941.263671875 -476.3984375 942.487304688 -476.442382812 943.462890625 c 0
 -496.31640625 954.969726562 -508.737304688 958.68359375 -525.586914062 951.837890625 c 0
 -576.657226562 931.090820312 -568.4921875 935.47265625 -589.640625 880.08203125 c 2
 -605.475585938 838.610351562 l 1
 -632.73046875 873.651367188 l 1
 -716.73046875 981.651367188 l 1
 -696.99609375 997 l 1
 -677.262695312 1012.34863281 l 1
 -619.791992188 938.458007812 l 1
 -604.483398438 969.0859375 -583.344726562 982.342773438 -544.405273438 998.162109375 c 0
 -515.221679688 1010.01757812 -487.69140625 1004.5078125 -466.127929688 994.502929688 c 1
 -463.700195312 999.3984375 -460.737304688 1004.54492188 -457.668945312 1009.05761719 c 0
 -424.913085938 1056.82714844 -362.451171875 1047.9453125 -325.659179688 1022.46777344 c 0
 -320.59765625 1018.96289062 -316.193359375 1015.39550781 -311.46875 1010.82714844 c 0
 -280.98046875 980.33984375 -295.979492188 942.299804688 -315.655273438 923.004882812 c 0
 -328.032226562 910.869140625 -344.053710938 901.969726562 -362.653320312 900.109375 c 0
 -384.240234375 898.205078125 -403.76171875 903.377929688 -420.25390625 910.572265625 c 1
-422.817382812 968.875 m 1
 -402.288085938 956.079101562 -385.3828125 948.297851562 -367.338867188 949.890625 c 0
 -363.422851562 950.282226562 -356.16796875 953.447265625 -350.99609375 958.3828125 c 0
 -341.1953125 967.736328125 -343.486328125 972 -346.54296875 975.19140625 c 0
 -349.37890625 977.875976562 -351.30078125 979.40625 -354.124023438 981.361328125 c 0
 -378.958007812 998.55859375 -406.426757812 995.374023438 -416.350585938 980.90234375 c 0
 -419.059570312 976.91796875 -421.272460938 972.6484375 -422.817382812 968.875 c 1
EndSplineSet
EndChar

StartChar: lt_im
Encoding: 410 -1 181
Width: 0
VWidth: 0
Flags: HW
LayerCount: 2
Fore
SplineSet
-704.001953125 977 m 1
 -687.213867188 995.524414062 l 1
 -583.959960938 901.951171875 l 1
 -538.505859375 995.888671875 l 1
 -526.2734375 1021.16894531 l 1
 -502.580078125 1006.09179688 l 1
 -365.701171875 918.987304688 l 1
 -366.999023438 1004.62109375 l 1
 -342.001953125 1005 l 1
 -317.004882812 1005.37890625 l 1
 -315.004882812 873.37890625 l 1
 -314.302734375 827.012695312 l 1
 -353.423828125 851.908203125 l 1
 -505.73046875 948.831054688 l 1
 -553.498046875 850.111328125 l 1
 -568.043945312 820.048828125 l 1
 -592.790039062 842.475585938 l 1
 -720.790039062 958.475585938 l 1
 -704.001953125 977 l 1
EndSplineSet
EndChar

StartChar: lt_iu
Encoding: 411 -1 182
Width: 0
VWidth: 0
Flags: HW
LayerCount: 2
Fore
SplineSet
-681.004882812 949 m 5
 -663.149414062 966.498046875 l 5
 -584.505859375 886.25 l 5
 -542.209960938 937.004882812 l 5
 -534.239257812 946.5703125 l 5
 -521.801757812 945.970703125 l 6
 -435.776367188 941.825195312 -386.974609375 928.338867188 -313.555664062 935.869140625 c 4
 -312.232421875 936.004882812 -311.353515625 936.260742188 -311.137695312 936.330078125 c 4
 -307.184570312 944.465820312 -315.806640625 983.932617188 -313.979492188 1024.13476562 c 5
 -289.004882812 1023 l 5
 -264.030273438 1021.86523438 l 5
 -265.079101562 998.798828125 -240.053710938 931.575195312 -278.375 898.4453125 c 4
 -286.779296875 891.1796875 -297.522460938 887.251953125 -308.454101562 886.130859375 c 4
 -386.92578125 878.08203125 -437.020507812 890.622070312 -511.83984375 895.346679688 c 5
 -563.799804688 832.995117188 l 5
 -581.50390625 811.75 l 5
 -600.860351562 831.501953125 l 5
 -698.860351562 931.501953125 l 5
 -681.004882812 949 l 5
EndSplineSet
EndChar

StartChar: lt_iw
Encoding: 412 -1 183
Width: 0
VWidth: 0
Flags: HW
LayerCount: 2
Fore
SplineSet
-681.004882812 939 m 1
 -663.149414062 956.498046875 l 1
 -584.505859375 876.25 l 1
 -542.209960938 927.004882812 l 1
 -534.23828125 936.5703125 l 1
 -521.80078125 935.970703125 l 2
 -435.776367188 931.825195312 -386.974609375 918.338867188 -313.555664062 925.869140625 c 0
 -310.431640625 926.189453125 -308.407226562 927.158203125 -305.956054688 929.51953125 c 0
 -293.779296875 941.248046875 -292.28125 980.452148438 -306.969726562 995.614257812 c 0
 -317.994140625 1007.00683594 -348.572265625 996.729492188 -379.735351562 970.018554688 c 1
 -396.004882812 989 l 1
 -412.274414062 1007.98144531 l 1
 -387.4375 1029.27050781 -320.014648438 1080.99316406 -271.040039062 1030.38574219 c 0
 -236.275390625 994.5 -236.154296875 927.331054688 -271.268554688 893.5078125 c 0
 -280.81640625 884.3125 -293.747070312 877.638671875 -308.454101562 876.130859375 c 0
 -386.92578125 868.08203125 -437.020507812 880.622070312 -511.83984375 885.346679688 c 1
 -563.798828125 822.995117188 l 1
 -581.50390625 801.75 l 1
 -600.860351562 821.501953125 l 1
 -698.860351562 921.501953125 l 1
 -681.004882812 939 l 1
EndSplineSet
EndChar

StartChar: lt_iv
Encoding: 413 -1 184
Width: 0
VWidth: 0
Flags: HW
HStem: 838 203
VStem: -436 52<865 961>
LayerCount: 2
Fore
SplineSet
-541 861 m 1
 -530 838 l 1
 -380 961 l 1
 -382 865 l 1
 -357 865 l 1
 -332 864 l 1
 -328 1000 l 1
 -327 1041 l 1
 -364 1024 l 5
 -551 883 l 1
 -541 861 l 1
-701 994 m 1
 -718 977 l 1
 -627 882 l 1
 -607 863 l 1
 -589 883 l 1
 -502 979 l 1
 -521 996 l 1
 -539 1013 l 1
 -609 936 l 1
 -683 1012 l 1
 -701 994 l 1
EndSplineSet
EndChar

StartChar: lt_io
Encoding: 414 -1 185
Width: 0
VWidth: 0
Flags: HW
LayerCount: 2
Fore
SplineSet
-694 999.46875 m 1
 -712.049804688 982.170898438 l 1
 -620.049804688 886.170898438 l 1
 -586.459960938 851.12109375 l 1
 -577.436523438 898.821289062 l 2
 -566.12801161 958.600970908 -531.555664062 965.221679688 -518 972 c 0
 -467.434570312 996.868164062 -495.332293941 981.444244762 -411.6171875 972.606445312 c 0
 -410.109375 972.447265625 -409.197265625 972.166992188 -408.625976562 971.934570312 c 0
 -406.107421875 970.912109375 -397.607421875 945.848632812 -414.978515625 905.31640625 c 1
 -392 895.46875 l 1
 -369.021484375 885.62109375 l 1
 -353.665039062 921.452148438 -334.00390625 995.590820312 -389.80859375 1018.25878906 c 0
 -395.0703125 1020.39550781 -400.665070264 1021.72919569 -406.3828125 1022.33105469 c 0
 -474.665039062 1029.51855469 -468.797851562 1045.59960938 -540 1010 c 0
 -564.805664062 997.59765625 -611.356445312 960.875976562 -612 942 c 1
 -675.950195312 1016.76660156 l 1
 -694 999.46875 l 1
EndSplineSet
EndChar

StartChar: lt_y
Encoding: 415 -1 186
Width: 0
VWidth: 0
Flags: HW
LayerCount: 2
Fore
SplineSet
-485.217773438 886.70703125 m 1
 -480.784179688 937.653320312 -482.02734375 987.279296875 -419.872070312 1005.03808594 c 0
 -400.931640625 1010.44921875 -378.913085938 1016.28320312 -357.913085938 1003.7734375 c 0
 -343.1328125 994.96875 -335.596679688 980.0390625 -331.162109375 964.46875 c 0
 -327.692382812 952.28515625 -325.608398438 938.28125 -324.100585938 921.197265625 c 0
 -318.637695312 859.284179688 -377.331054688 837.575195312 -422.228515625 833.801757812 c 0
 -435.954101562 832.6484375 -450.0234375 832.725585938 -463.92578125 833.75390625 c 0
 -485.772460938 835.369140625 -507.385742188 839.356445312 -526.1796875 845.051757812 c 0
 -577.259765625 860.186523438 -589.112304688 905.283203125 -600.107421875 937.973632812 c 1
 -653.397460938 846.422851562 l 1
 -675.00390625 859 l 1
 -696.610351562 871.577148438 l 1
 -618.610351562 1005.57714844 l 1
 -597.764648438 1041.38769531 l 1
 -575.803710938 1006.25 l 2
 -536.4609375 943.301757812 -548.1796875 903.71875 -511.827148438 892.948242188 c 0
 -503.818359375 890.521484375 -494.713867188 888.388671875 -485.217773438 886.70703125 c 1
-435.342773438 883.094726562 m 1
 -432.315429688 883.21484375 -429.083007812 883.40234375 -426.416015625 883.626953125 c 0
 -384.702148438 887.131835938 -372.416015625 899.908203125 -373.907226562 916.802734375 c 0
 -376.525390625 946.478515625 -382.244140625 959.21484375 -383.526367188 960.768554688 c 0
 -384.98046875 961.064453125 -392.776367188 960.779296875 -406.135742188 956.961914062 c 0
 -434.4609375 948.869140625 -430.041015625 944.971679688 -435.342773438 883.094726562 c 1
EndSplineSet
EndChar

StartChar: lt_ya
Encoding: 416 -1 187
Width: 0
VWidth: 0
Flags: HW
LayerCount: 2
Fore
SplineSet
-572.766601562 895.079101562 m 1
 -565.317382812 878.34765625 -555.6796875 869.78515625 -538.1484375 867.836914062 c 0
 -487.46484375 861.834960938 -414.23046875 1015.68457031 -414.23046875 1015.68457031 c 2
 -401.998046875 1033 l 1
 -369.06640625 1002.84667969 l 1
 -357.06640625 829.846679688 l 1
 -381.998046875 828 l 1
 -406.9296875 826.153320312 l 1
 -411.595703125 900.139648438 l 1
 -425.616210938 862.895507812 -481.657226562 810.797851562 -543.848632812 818.163085938 c 0
 -590.178710938 823.310546875 -615.900390625 858.923828125 -625.830078125 896.137695312 c 1
 -663.841796875 900.599609375 -699.096679688 909.361328125 -738.13671875 908.014648438 c 1
 -738.998046875 933 l 1
 -739.860351562 957.985351562 l 1
 -698.274414062 959.418945312 -662.575195312 951.767578125 -631.938476562 947.36328125 c 1
 -632.00390625 974.719726562 -627.772460938 1003.05957031 -621.172851562 1027.37304688 c 0
 -614.483398438 1053.52539062 -587.076171875 1059.22167969 -570.412109375 1054.93652344 c 0
 -535.05078125 1045.84277344 -469.780273438 994.15234375 -483.544921875 943.999023438 c 0
 -486.23046875 934.215820312 -492.881835938 925.399414062 -501.724609375 919.815429688 c 0
 -525.71484375 904.90234375 -549.623046875 897.56640625 -572.766601562 895.079101562 c 1
-581.907226562 944.446289062 m 1
 -565.474609375 945.73046875 -549.961914062 949.908203125 -533.0234375 959.362304688 c 1
 -538.491210938 972.725585938 -560.647460938 995.345703125 -575.598632812 1003.42871094 c 1
 -579.806640625 984.645507812 -582.18359375 963.790039062 -581.907226562 944.446289062 c 1
EndSplineSet
EndChar

StartChar: lt_yi
Encoding: 417 -1 188
Width: 0
VWidth: 0
Flags: HW
LayerCount: 2
Fore
SplineSet
-578.330078125 879.48046875 m 1
 -563.943359375 870.106445312 -546.241210938 863.755859375 -524.955078125 861.916015625 c 0
 -489.049804688 859.111328125 -521.104492188 896.837890625 -481.669921875 981.55078125 c 2
 -463.495117188 1020.59082031 l 1
 -438.604492188 985.450195312 l 1
 -387.155273438 912.81640625 l 1
 -357.521484375 933.6484375 -349.424804688 927.559570312 -340.58984375 964.962890625 c 1
 -346.771484375 968.765625 -358.940429688 973.580078125 -370.682617188 985.322265625 c 1
 -353.004882812 1003 l 1
 -335.327148438 1020.67773438 l 1
 -335.327148438 1020.67773438 -281.490234375 1005.10058594 -290.490234375 960.096679688 c 0
 -305.916015625 882.970703125 -356.977539062 878.029296875 -371.271484375 859.651367188 c 2
 -391.943359375 833.073242188 l 1
 -411.405273438 860.549804688 l 1
 -448.594726562 913.051757812 l 1
 -453.794921875 878.71484375 -457.638671875 806.504882812 -529.0546875 812.083984375 c 0
 -573.962890625 815.96484375 -610.756835938 835.02734375 -636.646484375 864.6328125 c 0
 -637.943359375 866.115234375 -639.392578125 867.844726562 -640.72265625 869.486328125 c 0
 -677.700195312 869.291992188 -714.916992188 874.487304688 -742.870117188 872.091796875 c 1
 -745.004882812 897 l 1
 -747.139648438 921.908203125 l 1
 -720.768554688 924.168945312 -693.900390625 921.633789062 -668.924804688 920.3046875 c 1
 -676.1796875 940.587890625 -680.55859375 962.799804688 -681.95703125 985.459960938 c 0
 -682.725585938 997.90625 -678.873046875 1011.1953125 -669.647460938 1020.55371094 c 0
 -658.8984375 1031.45800781 -645.224609375 1034.47363281 -633.65625 1035.0390625 c 0
 -594.576171875 1036.94628906 -520.877929688 1009.46972656 -519.407226562 953.784179688 c 0
 -519.19921875 945.919921875 -520.89453125 937.790039062 -524.374023438 930.376953125 c 0
 -536.2265625 905.126953125 -556.270507812 888.349609375 -578.330078125 879.48046875 c 1
-614.962890625 921.29296875 m 1
 -592.266601562 924.829101562 -578.73046875 932.248046875 -569.635742188 951.623046875 c 0
 -569.123046875 952.71484375 -569.380859375 952.294921875 -569.390625 952.497070312 c 0
 -569.71875 958.986328125 -606.404296875 986.633789062 -631.810546875 985.063476562 c 1
 -629.926757812 960.8671875 -624.041992188 939.169921875 -614.962890625 921.29296875 c 1
EndSplineSet
EndChar

StartChar: lt_yy
Encoding: 418 -1 189
Width: 0
VWidth: 0
Flags: HW
LayerCount: 2
Fore
SplineSet
-544.545898438 884.536132812 m 1
 -540.264648438 880.330078125 -535.094726562 877.05859375 -528.014648438 875.002929688 c 0
 -480.467773438 861.11328125 -445.62109375 874.57421875 -408.716796875 904.826171875 c 1
 -433.533203125 928.338867188 -475.166015625 974.725585938 -438.611328125 1012.59765625 c 0
 -434.68359375 1016.66699219 -430.171875 1020.00683594 -425.330078125 1022.75097656 c 0
 -384.872070312 1045.67675781 -322.833984375 1022.41210938 -303.171875 987.39453125 c 0
 -295.024414062 972.8828125 -294.861328125 951.998046875 -308.069335938 936.676757812 c 0
 -323.719726562 918.522460938 -339.481445312 900.869140625 -356.11328125 884.866210938 c 0
 -404.568359375 838.243164062 -464.268554688 804.290039062 -542.015625 827.002929688 c 0
 -570.307617188 835.216796875 -589.763671875 855.630859375 -599.92578125 879.262695312 c 1
 -634.732421875 879.688476562 -667.538085938 883.494140625 -698.94921875 878.331054688 c 1
 -703.004882812 903 l 1
 -707.059570312 927.668945312 l 1
 -671.139648438 933.573242188 -638.2734375 930.404296875 -609.915039062 929.49609375 c 1
 -610.3984375 963.352539062 -601.116210938 998.693359375 -584.7109375 1027.40332031 c 0
 -578.967773438 1037.45507812 -567.737304688 1045.33984375 -555.571289062 1046.24902344 c 0
 -544.24609375 1047.09570312 -535.41015625 1043.17871094 -528.474609375 1039.10546875 c 0
 -503.9296875 1024.68847656 -438.689453125 951.686523438 -489.469726562 911.412109375 c 0
 -506.717773438 897.733398438 -525.865234375 889.21484375 -544.545898438 884.536132812 c 1
-559.942382812 932.309570312 m 1
 -546.827148438 935.122070312 -533.943359375 940.604492188 -523.033203125 948.672851562 c 1
 -523.89453125 958.333984375 -535.774414062 979.926757812 -547.236328125 990.831054688 c 1
 -555.275390625 972.68359375 -559.864257812 951.485351562 -559.942382812 932.309570312 c 1
-372.55859375 939.462890625 m 1
 -364.997070312 947.568359375 -355.865234375 957.865234375 -349.08984375 965.6796875 c 1
 -361.98046875 978.051757812 -393.37890625 983.38671875 -400.6796875 979.249023438 c 0
 -401.260742188 978.919921875 -401.749023438 978.586914062 -401.999023438 978.409179688 c 0
 -400.979492188 972.778320312 -390.923828125 956.578125 -372.55859375 939.462890625 c 1
EndSplineSet
EndChar

